<svg version="1.2" xmlns="http://www.w3.org/2000/svg" viewBox="0 0 1483 794" width="1483" height="794">
	<title>New Project</title>
	<style>
		.s0 { fill: #000000 } 
	</style>
	<path id="AtB" fill-rule="evenodd" class="s0" d="m450.3 569.3h-187.2l-27.8 59.7h-118.6v-17.6l213.5-463.1h52.3l214.2 463.1v17.6h-118.6zm-94.3-228.5l-53.6 124.8h108.5zm172.9-78c0-36.6 0-72.6 0-108.5h352.6c0 35.9 0 71.9 0 108.5h-116v366.1q-60 0-120 0v-366.1zm689.6 119.3c38.6 19.7 56.9 54.9 56.9 97-0.7 82.7-50.8 149.8-147.8 149.8h-222.4v-474.6h202.7c82.1 0 147.8 63.7 147.8 145.8 0 28.5-14.2 63-37.2 82zm-196 58.3v80.7h97c48.8 0 48.1-80.7-0.7-80.7zm0-177.6v76.6h76.6c48.1 0 48.1-76.6-0.7-76.6z"/>
	<path id="tm" class="s0" d="m1285.9 168.8v36.2q5.9 0 11.8 0v-36.2h11.5c0-3.6 0-7.1 0-10.7h-34.9c0 3.6 0 7.1 0 10.7zm52.4 9.5l-18.3-20.3h-4.4v47q6.1 0 12.2 0v-20.9l9.9 10.4h1.4l10-10.4v20.9q6.1 0 12.2 0v-47h-4.3z"/>
</svg>