<svg xmlns="http://www.w3.org/2000/svg" xmlns:xlink="http://www.w3.org/1999/xlink" width="150" height="150" viewBox="0 0 150 150"><defs><path id="b" d="M1000 307.091c40.92 0 74.088-33.17 74.088-74.091 0-40.915-33.167-74.088-74.088-74.088-40.918 0-74.088 33.173-74.088 74.088 0 40.92 33.17 74.091 74.088 74.091"/><path id="a" d="M925 158.235h150.001v149.536H925z"/><path id="d" d="M1000 308.006c-41.356 0-75-33.647-75-75.006 0-41.356 33.644-75 75-75s75.003 33.644 75.003 75c0 41.359-33.647 75.006-75.003 75.006m0-148.18c-40.35 0-73.174 32.827-73.174 73.174 0 40.353 32.824 73.18 73.174 73.18 40.35 0 73.176-32.827 73.176-73.18 0-40.347-32.826-73.174-73.176-73.174"/><path id="f" d="M957.63 275.091l.435-.297 2.732 2.45c.553.497.938.92 1.153 1.274.338.547.438 1.144.294 1.78-.12.546-.432 1.102-.938 1.667a6.52 6.52 0 0 1-2.488 1.74c-1.018.398-2.012.492-2.986.28-.973-.211-1.914-.723-2.82-1.538l-2.688-2.406.429-.294c.291.247.518.403.68.468a.692.692 0 0 0 .543-.03 2.86 2.86 0 0 0 .421-.24l5.247-3.56c.2-.135.338-.247.415-.332.132-.147.123-.327-.03-.532a3.531 3.531 0 0 0-.4-.43zm2.135 1.93l-6.186 4.185c-.2.138-.323.232-.37.285-.15.168-.088.374.185.62.388.35.759.598 1.106.745.347.15.7.209 1.065.182.844-.062 1.806-.43 2.888-1.1a8.931 8.931 0 0 0 1.982-1.644c.568-.632.797-1.197.689-1.691-.065-.3-.336-.665-.81-1.091z"/><path id="g" d="M963.364 288.025l.474.333a4.09 4.09 0 0 1-1.57.597c-.766.115-1.498-.074-2.198-.562-.547-.385-.888-.847-1.018-1.385-.138-.577-.003-1.159.403-1.741a5.121 5.121 0 0 1 1.439-1.35c.805-.518 1.623-.765 2.455-.739a3.341 3.341 0 0 1 1.868.61c.409.284.691.62.85 1 .188.45.13.89-.173 1.326-.465.661-1.31.888-2.533.68-.735-.124-1.488-.43-2.264-.919a3.209 3.209 0 0 0-.539.58c-.206.291-.3.576-.288.85.024.382.209.697.562.944.43.3.956.368 1.576.2a3.36 3.36 0 0 0 .956-.424m-1.897-2.482c.509.356 1.038.524 1.588.503a2.35 2.35 0 0 0 1.074-.303c.315-.173.573-.403.773-.691a1.08 1.08 0 0 0 .212-.515c.03-.22-.041-.39-.206-.506-.373-.264-1.003-.147-1.882.353a8.692 8.692 0 0 0-1.559 1.16"/><path id="h" d="M967.162 285.944l.259-.268c.735.374 1.438.65 2.105.827-.052.103-.09.18-.12.23-.182.32-.418.626-.703.923.38-.2.7-.335.965-.406.514-.132.982-.08 1.406.162.258.147.423.34.497.576.079.25.047.5-.097.753a1.086 1.086 0 0 1-.618.518.78.78 0 0 1-.647-.068c-.23-.13-.35-.3-.365-.506a.572.572 0 0 1 .074-.344c.097-.17.256-.259.476-.259.038-.158-.012-.276-.156-.358-.28-.16-.697-.068-1.25.276-.332.206-.835.665-1.509 1.374l-2.14 2.244-1.486-.844 3.465-3.618c.232-.244.379-.42.438-.53.08-.135.041-.258-.109-.376a5.136 5.136 0 0 0-.485-.306"/><path id="i" d="M980.3 294.782l.457.167c-.418.686-.918 1.212-1.5 1.586-1.003.65-2.1.756-3.289.317-.976-.358-1.632-.932-1.958-1.717-.31-.73-.286-1.574.067-2.536a7.415 7.415 0 0 1 1.427-2.353c.823-.911 1.756-1.511 2.797-1.797.885-.244 1.776-.2 2.67.13.389.141.733.32 1.036.538.126.1.344.303.647.606.159.162.294.262.412.306.111.041.305.041.585.003l-1.462 2.314-.412-.15c.197-.532.3-.935.312-1.214a1.754 1.754 0 0 0-.2-1.01c-.188-.355-.494-.61-.915-.767-1-.37-2.058-.047-3.167.968-.453.42-.874.92-1.268 1.5a7.759 7.759 0 0 0-.838 1.623c-.253.686-.283 1.28-.083 1.78.177.459.553.794 1.13 1.006.862.317 1.673.24 2.435-.224.4-.247.774-.606 1.118-1.076"/><path id="j" d="M986.312 292.868c.68.159 1.18.491 1.51.997.337.526.417 1.17.237 1.932-.117.497-.314.97-.59 1.424a4.47 4.47 0 0 1-.977 1.135c-.93.753-1.965.994-3.103.727-.665-.16-1.159-.465-1.482-.924-.38-.541-.471-1.212-.283-2.018.159-.67.453-1.282.885-1.84.518-.668 1.124-1.118 1.818-1.35a3.558 3.558 0 0 1 1.985-.083m-.154.341a1.04 1.04 0 0 0-.792.141c-.26.159-.545.438-.853.844-.311.41-.625.936-.942 1.574a7.566 7.566 0 0 0-.61 1.603c-.182.762.005 1.209.565 1.341.359.082.711-.015 1.058-.291.4-.32.839-.912 1.322-1.777.412-.738.69-1.417.838-2.04.19-.795-.006-1.26-.586-1.395"/><path id="k" d="M989.7 294.326l.127-.347a14.09 14.09 0 0 0 2.794-.155l-1.676 4.511c-.121.324-.192.565-.21.718a.787.787 0 0 0 .062.415c.095.203.271.317.527.347.494.056.941-.21 1.335-.797.188-.27.4-.727.635-1.362l1.26-3.362c.567.059 1.15.08 1.746.059l-1.444 3.841c-.282.768-.435 1.247-.459 1.435-.014.147.006.262.068.35a.33.33 0 0 0 .232.139c.212.023.421-.089.627-.339.056-.07.141-.194.25-.373l.353.203c-.524.897-1.17 1.306-1.938 1.217-.46-.052-.789-.238-.989-.552-.106-.165-.167-.398-.182-.7a4.418 4.418 0 0 1-.87.62 2.479 2.479 0 0 1-1.412.235c-.574-.064-.989-.276-1.242-.635a1.328 1.328 0 0 1-.223-.956c.023-.223.094-.494.212-.809l.994-2.661c.12-.32.188-.53.197-.633.02-.167-.07-.276-.277-.326a4.334 4.334 0 0 0-.497-.082"/><path id="l" d="M997.6 295.144l.088-.359c.891-.094 1.647-.235 2.277-.423.035.168.053.318.053.45.003.215-.02.444-.068.691.594-.756 1.33-1.141 2.203-1.15.556-.006.98.153 1.276.47.197.218.297.489.303.821.003.315-.05.697-.156 1.15l-.455 1.868c-.162.694-.242 1.115-.242 1.265.003.261.103.39.303.388a.486.486 0 0 0 .412-.241c.077-.115.177-.336.3-.66l.37.098c-.211 1.03-.761 1.55-1.655 1.559-.391.006-.712-.103-.962-.32a1.159 1.159 0 0 1-.418-.907c0-.27.074-.709.227-1.314l.468-1.933a3.75 3.75 0 0 0 .129-.847c-.003-.206-.068-.37-.194-.488a.75.75 0 0 0-.52-.182c-.374.005-.695.173-.957.503-.203.255-.358.608-.47 1.061l-1.027 4.32-1.709.019 1.165-4.871c.056-.374.085-.597.085-.68-.002-.15-.102-.238-.3-.267a3.348 3.348 0 0 0-.526-.02"/><path id="m" d="M1008.98 299.397l-.08.562c-.459.4-.947.626-1.456.68-.415.043-.762-.05-1.047-.289-.259-.215-.412-.532-.456-.95-.03-.262 0-.703.085-1.324l.448-3.388-.827.088.077-.497c.508-.067.961-.311 1.364-.735.388-.426.683-.953.877-1.576l.523-.056-.285 2.082 1.27-.138-.07.518-1.27.135-.418 3.462c-.083.7-.115 1.144-.094 1.332.02.185.09.326.214.426a.46.46 0 0 0 .356.106c.203-.02.468-.167.788-.438"/><path id="n" d="M1009.882 294.346l.024-.37a10.795 10.795 0 0 0 2.141-.732c.027.111.047.197.056.252.068.362.088.748.062 1.16.159-.398.317-.71.473-.933.306-.435.7-.697 1.177-.788.29-.053.544-.015.753.117.22.142.358.353.411.639a1.07 1.07 0 0 1-.138.794.766.766 0 0 1-.535.367c-.259.05-.459-.003-.606-.153a.551.551 0 0 1-.165-.305c-.038-.195.03-.362.194-.506-.07-.147-.188-.203-.35-.174-.317.059-.576.4-.773 1.02-.12.371-.209 1.045-.262 2.021l-.182 3.097-1.677.318.3-5c.018-.335.015-.565-.009-.688-.026-.153-.135-.224-.326-.215a5.192 5.192 0 0 0-.568.08"/><path id="o" d="M1018.476 298.215l-2.302-4.483c-.171-.329-.318-.526-.439-.597-.138-.08-.347-.09-.626-.038l-.02-.397a25.341 25.341 0 0 0 1.64-.418 29.515 29.515 0 0 0 1.645-.544l.017.397c-.28.106-.459.189-.541.247-.132.1-.176.22-.135.365.009.03.05.124.123.282l1.37 2.936 1.03-3.297c.027-.086.053-.17.086-.26.1-.302.132-.52.094-.65-.053-.176-.215-.223-.492-.14a1.41 1.41 0 0 0-.188.073l-.162-.326a6.65 6.65 0 0 0 .753-.374c.221-.123.442-.297.665-.52a1.9 1.9 0 0 1 .197.388 1.1 1.1 0 0 1-.006.594c-.02.1-.18.597-.47 1.497l-2.018 6.144c-.103.312-.235.653-.394 1.027-.159.37-.282.623-.368.753-.309.473-.79.808-1.447 1-.067.02-.17.047-.309.082l-.267-.912c.297.032.559.018.788-.05.435-.126.782-.441 1.041-.941.227-.438.42-.894.583-1.37z"/><path id="p" d="M1031.759 289.644l.435-.212c.206.774.244 1.497.112 2.177-.223 1.176-.906 2.044-2.044 2.6-.935.456-1.8.532-2.597.23-.738-.286-1.332-.886-1.782-1.804a7.335 7.335 0 0 1-.715-2.656c-.091-1.226.117-2.314.632-3.264.435-.81 1.083-1.424 1.938-1.841a4.363 4.363 0 0 1 1.106-.377 8.46 8.46 0 0 1 .883-.05c.226-.003.394-.032.506-.085.108-.053.244-.194.408-.42l.665 2.655-.394.194c-.25-.512-.47-.865-.662-1.067a1.793 1.793 0 0 0-.87-.55c-.389-.11-.783-.068-1.186.129-.959.47-1.456 1.456-1.488 2.962a8.574 8.574 0 0 0 .206 1.953c.141.629.338 1.206.594 1.726.32.656.732 1.085 1.23 1.288.452.192.955.147 1.508-.123.824-.403 1.33-1.041 1.518-1.912.103-.462.1-.98-.003-1.553"/><path id="q" d="M1033.282 281.53l2.23 6.929c.214.673.364 1.08.45 1.215.132.217.288.273.464.164.148-.09.224-.244.224-.459.006-.14-.026-.364-.091-.673l.376-.115c.324 1.009.12 1.738-.609 2.191-.332.206-.664.28-.994.224a1.184 1.184 0 0 1-.84-.574c-.145-.232-.31-.638-.492-1.211l-1.609-5.015c-.109-.338-.188-.544-.235-.62-.082-.136-.218-.165-.403-.086a3.043 3.043 0 0 0-.459.244l-.118-.35c.727-.52 1.43-1.141 2.106-1.865"/><path id="r" d="M1035.738 284.08l-.15-.339c.7-.615 1.336-1.297 1.91-2.047l1.914 4.418c.135.317.25.538.344.662a.786.786 0 0 0 .33.255c.211.08.417.042.62-.111.397-.303.535-.803.415-1.503-.053-.324-.215-.8-.486-1.42l-1.417-3.3c.45-.35.885-.74 1.3-1.166l1.617 3.771c.327.75.547 1.203.662 1.353a.496.496 0 0 0 .291.206c.1.017.191-.003.262-.059.17-.13.244-.356.22-.676a4.2 4.2 0 0 0-.079-.445l.394-.1c.247 1.012.062 1.753-.556 2.221-.367.28-.729.376-1.094.285-.188-.044-.394-.17-.614-.38a4.384 4.384 0 0 1-.2 1.05c-.165.46-.45.842-.853 1.148-.462.353-.91.488-1.342.403a1.342 1.342 0 0 1-.82-.535 3.658 3.658 0 0 1-.409-.73l-1.123-2.609c-.136-.314-.233-.511-.295-.594-.103-.132-.244-.147-.423-.044a3.698 3.698 0 0 0-.418.285"/><path id="s" d="M1041.991 274.353l1.741 3.012c.03-.612.244-1.11.644-1.494.474-.462.998-.653 1.574-.574.47.065.93.33 1.376.791.442.456.789.997 1.036 1.624.335.864.426 1.717.273 2.559a3.137 3.137 0 0 1-.911 1.714c-.562.544-1.16.774-1.786.691-.473-.067-.9-.3-1.288-.697-.268-.276-.694-.923-1.282-1.938l-1.668-2.891c-.159-.276-.282-.456-.362-.538-.123-.127-.27-.127-.444 0-.091.064-.22.182-.388.344l-.182-.32a14.473 14.473 0 0 0 1.667-2.283m2.438 1.985c-.423.412-.364 1.227.18 2.444.23.512.523 1.047.876 1.597.327.51.606.886.839 1.124.182.188.37.306.567.356.227.056.42 0 .588-.162.26-.253.347-.638.26-1.156-.104-.612-.404-1.353-.9-2.223-.436-.756-.854-1.342-1.257-1.756-.447-.462-.832-.536-1.153-.224"/><path id="t" d="M938.562 235.636l.012-.591c.782-.103 1.414-.3 1.894-.591.444-.271.79-.65 1.044-1.139.206-.39.312-.797.32-1.211.012-.668-.19-1.218-.611-1.656a1.792 1.792 0 0 0-1.289-.562c-.632-.015-1.18.268-1.638.841-.215.274-.547.8-.994 1.58-.676 1.173-1.194 1.929-1.556 2.267a2.775 2.775 0 0 1-2.03.777c-.976-.018-1.723-.412-2.243-1.18-.465-.69-.689-1.517-.671-2.485.015-.741.197-1.38.55-1.912.115-.173.276-.37.482-.588l-1.097-.597.006-.365 3.524.065-.012.591c-.668.1-1.224.28-1.662.544-.75.453-1.132 1.109-1.147 1.97-.012.6.156 1.083.506 1.45.332.35.75.53 1.247.539.456.009.844-.174 1.162-.544.159-.185.391-.547.694-1.088.576-1 1.015-1.733 1.318-2.2.358-.547.726-.944 1.105-1.186.489-.314 1.062-.464 1.718-.453.988.018 1.803.38 2.447 1.08.627.67.93 1.535.912 2.591a4.594 4.594 0 0 1-.688 2.38c-.12.19-.283.417-.489.673l1.28.709-.009.364z"/><path id="u" d="M940.172 217.268l.11-.565c.95.215 1.705.582 2.27 1.106a3.846 3.846 0 0 1 1.135 1.92c.159.61.17 1.253.038 1.936a4.607 4.607 0 0 1-.85 1.92 4.37 4.37 0 0 1-1.608 1.306c-1.162.565-2.542.688-4.139.377-1.564-.306-2.814-.87-3.75-1.694a4.096 4.096 0 0 1-1.244-1.924c-.223-.735-.253-1.52-.088-2.362.17-.882.535-1.594 1.088-2.135a4.6 4.6 0 0 1 .718-.556l-1.124-.797.07-.359 3.845.753-.106.53c-.759.02-1.391.12-1.897.297a2.79 2.79 0 0 0-1.206.858 2.626 2.626 0 0 0-.576 1.21c-.212 1.076.147 1.929 1.076 2.555.85.568 1.968.988 3.353 1.259 1.368.27 2.512.291 3.433.065 1.035-.256 1.661-.947 1.885-2.07a3.225 3.225 0 0 0-.056-1.522 2.827 2.827 0 0 0-.753-1.255c-.388-.383-.93-.665-1.624-.853"/><path id="v" d="M940.132 210.52l1.542-3.732-3.098-1.276c-.364-.15-.629-.215-.794-.194-.208.023-.403.194-.582.517-.094.165-.185.35-.274.553l-.585-.24c.435-.866.797-1.65 1.088-2.36.289-.703.571-1.476.842-2.317l.585.24c-.177.457-.265.786-.265.989-.003.224.1.403.306.544.109.074.277.159.509.253l7.235 2.982c.362.15.627.215.794.195.206-.024.4-.195.583-.518.088-.159.179-.344.273-.553l.583.241a25.518 25.518 0 0 0-1.06 2.227 29.842 29.842 0 0 0-.867 2.45l-.585-.242c.173-.461.262-.797.267-.997a.632.632 0 0 0-.311-.535 2.864 2.864 0 0 0-.51-.253l-3.526-1.456-1.538 3.736 3.527 1.452c.364.15.629.215.794.192.206-.02.403-.194.582-.515a6.48 6.48 0 0 0 .274-.553l.585.241c-.456.87-.827 1.656-1.115 2.353a25.98 25.98 0 0 0-.815 2.324l-.585-.242c.174-.464.262-.797.268-.997-.006-.22-.109-.397-.312-.535a2.776 2.776 0 0 0-.509-.253l-7.232-2.982c-.365-.15-.63-.215-.794-.194-.209.023-.403.194-.583.517a7.505 7.505 0 0 0-.273.553l-.585-.24c.403-.786.747-1.533 1.038-2.233.288-.706.585-1.52.891-2.444l.585.24c-.176.457-.264.79-.267.998-.003.22.103.4.311.532.092.07.262.153.506.256z"/><path id="w" d="M951.482 196.053l2.347 2.182-4.5 6.912-.532-.344c.265-.427.415-.735.447-.932.041-.212-.03-.406-.206-.583a2.966 2.966 0 0 0-.453-.344l-6.509-4.238c-.329-.215-.576-.327-.744-.335-.206-.015-.429.117-.667.4-.124.15-.247.314-.37.494l-.53-.344a36.066 36.066 0 0 0 1.488-2.095c.403-.62.841-1.355 1.312-2.208l.53.347c-.257.414-.407.723-.448.93-.041.217.027.41.209.581.085.092.238.203.45.345l6.732 4.382c.303.197.533.276.686.238.182-.047.385-.235.602-.573l.486-.747c.34-.533.497-1 .467-1.403-.02-.403-.208-.906-.57-1.506a7.674 7.674 0 0 0-.52-.706z"/><path id="x" d="M949.663 185.344a4.768 4.768 0 0 1 2.477-1.409c1.741-.39 3.488.244 5.247 1.906 1.238 1.17 1.973 2.403 2.2 3.697a4.37 4.37 0 0 1-.15 2.133c-.227.694-.618 1.338-1.177 1.929a5.093 5.093 0 0 1-1.858 1.277 4.231 4.231 0 0 1-2.103.258c-1.31-.173-2.568-.832-3.774-1.973-1.288-1.218-2.032-2.491-2.238-3.827a4.275 4.275 0 0 1 .23-2.182 5.322 5.322 0 0 1 1.146-1.809m.386.412c-.45.476-.624 1.082-.524 1.82.147 1.077.985 2.339 2.512 3.78 1.023.97 2 1.691 2.932 2.165.544.279 1.083.39 1.618.34.476-.043.903-.267 1.276-.661.533-.565.71-1.238.53-2.02-.236-.992-1.12-2.215-2.656-3.665-1.109-1.05-2.091-1.768-2.947-2.16-1.1-.502-2.012-.37-2.741.4"/><path id="y" d="M960.59 185.774l.477-.35c.558.558 1.097.94 1.623 1.144a2.8 2.8 0 0 0 1.538.138c.436-.074.82-.235 1.156-.482.536-.395.85-.892.941-1.492a1.789 1.789 0 0 0-.332-1.364c-.376-.51-.932-.774-1.668-.789-.347-.005-.967.05-1.858.168-1.342.177-2.26.227-2.745.144-.767-.123-1.385-.506-1.852-1.138-.58-.788-.721-1.62-.427-2.5.268-.788.788-1.468 1.565-2.041.6-.441 1.217-.686 1.853-.727.209-.014.464-.006.761.024l-.194-1.233.294-.217 2.092 2.838-.477.35c-.485-.473-.967-.803-1.444-.991-.815-.32-1.568-.224-2.262.288-.482.353-.764.782-.844 1.282-.076.48.035.918.333 1.321.27.368.65.565 1.138.588.244.015.67-.02 1.285-.106a52.307 52.307 0 0 1 2.547-.294c.653-.047 1.191.003 1.615.156.547.197 1.015.562 1.403 1.088.585.797.797 1.665.63 2.6-.154.91-.654 1.674-1.504 2.3a4.556 4.556 0 0 1-2.306.9c-.226.021-.503.03-.832.021l.215 1.447-.297.218z"/><path id="z" d="M968.806 179.976l.527-.267c.459.641.93 1.106 1.414 1.394.445.265.945.391 1.495.385.444-.003.85-.097 1.22-.285.594-.303.985-.744 1.17-1.318.157-.49.121-.959-.105-1.403-.288-.564-.791-.914-1.515-1.05-.344-.061-.965-.106-1.862-.135-1.355-.044-2.264-.147-2.732-.306a2.782 2.782 0 0 1-1.641-1.423c-.444-.874-.447-1.718-.012-2.539.391-.732 1.015-1.32 1.874-1.758.664-.339 1.311-.477 1.947-.415.209.02.459.068.747.147l.009-1.247.329-.168 1.6 3.141-.53.271c-.402-.547-.823-.95-1.261-1.215-.753-.447-1.512-.476-2.28-.085-.535.274-.882.647-1.04 1.13-.154.458-.115.911.111 1.355.206.406.55.662 1.026.768.239.053.668.088 1.286.103a48.19 48.19 0 0 1 2.562.126c.652.06 1.176.197 1.567.415.506.285.909.72 1.206 1.303.45.882.518 1.77.2 2.668-.297.87-.918 1.544-1.859 2.023-.782.4-1.588.57-2.423.512-.227-.015-.5-.05-.824-.112l-.023 1.462-.327.165z"/><path id="A" d="M990.641 172.718l.18 3.2-8.036 1.861-.144-.617c.485-.124.809-.241.968-.36.176-.126.262-.314.256-.564a3.05 3.05 0 0 0-.089-.562l-1.752-7.564c-.092-.383-.192-.636-.306-.76-.139-.155-.392-.214-.76-.173a7.538 7.538 0 0 0-.608.097l-.144-.614a35.05 35.05 0 0 0 2.526-.477c.72-.167 1.544-.394 2.477-.685l.141.618c-.474.123-.797.24-.968.361-.182.127-.264.315-.253.562 0 .127.03.315.089.562l1.811 7.826c.083.35.192.565.33.647.165.095.441.095.832.003l.868-.2c.615-.15 1.05-.379 1.309-.688.267-.306.476-.8.632-1.482.053-.262.091-.553.115-.87z"/><path id="B" d="M998.538 172.25l-3.757.159-.41 1.226c-.112.356-.165.612-.159.768.012.253.162.403.454.447.139.026.395.041.77.044l.026.632a26.23 26.23 0 0 0-1.78-.008c-.425.017-1.018.07-1.773.156l-.027-.63c.29-.03.505-.065.65-.103.368-.1.663-.359.887-.77.144-.268.274-.577.392-.927l3.388-9.685 4.17 9.873c.221.521.469.844.74.98.233.1.575.153 1.026.156l.027.632c-.89-.05-1.749-.059-2.575-.024-.828.036-1.683.115-2.574.242l-.026-.633c.427-.04.707-.073.84-.103.25-.064.374-.203.366-.414-.003-.074-.056-.286-.157-.639zm-3.52-.562l3.226-.138-1.67-4.391z"/><path id="C" d="M1013.012 176.962l-.394-.062c-.271-.68-.674-1.544-1.215-2.603l-.318-.606-3.894-7.42-1.185 7.503c-.059.388-.062.661-.003.814.07.197.285.347.638.447.18.05.38.097.603.139l-.1.623a36.275 36.275 0 0 0-1.747-.335c-.5-.077-1.082-.15-1.75-.215l.1-.626c.488.061.832.07 1.032.029a.627.627 0 0 0 .447-.426c.045-.118.089-.303.13-.553l1.3-8.256a3.002 3.002 0 0 0-.544-.55c-.203-.144-.468-.253-.794-.327l.1-.626a24.922 24.922 0 0 0 3.258.514l4.35 8.192.874-5.524c.056-.394.056-.668 0-.818-.094-.252-.506-.45-1.238-.582l.097-.623a27.863 27.863 0 0 0 3.5.55l-.1.626c-.483-.065-.827-.073-1.024-.026-.22.05-.373.19-.456.426-.044.115-.088.3-.129.55z"/><path id="D" d="M1027.751 169.322l-1.35 3.677-.506-.185c.083-.71.086-1.312.01-1.812a2.916 2.916 0 0 0-.636-1.43 3.002 3.002 0 0 0-1.306-.908c-1.92-.706-3.473.556-4.659 3.782-.52 1.42-.785 2.635-.797 3.644-.015 1.235.57 2.068 1.753 2.5.48.177 1.106.262 1.885.253l1.024-2.791c.094-.262.138-.45.13-.565-.036-.256-.357-.509-.971-.765l.214-.585a26.1 26.1 0 0 0 4.227 1.55l-.215.588c-.385-.12-.68-.155-.876-.108a.499.499 0 0 0-.336.255 3.957 3.957 0 0 0-.164.41l-.853 2.323c-1.556.447-3.05.409-4.48-.115-1.523-.562-2.526-1.497-3.008-2.818-.474-1.29-.4-2.782.223-4.476.632-1.724 1.559-2.909 2.777-3.556 1.24-.656 2.585-.718 4.035-.185.85.312 1.526.776 2.03 1.391.161.203.332.462.511.776l.997-.976z"/><path id="E" d="M1034.756 182.894l-2.088 2.432-7.08-4.217.324-.544c.435.247.753.382.95.411.212.03.406-.047.57-.232a2.6 2.6 0 0 0 .327-.465l3.944-6.623c.203-.338.306-.591.309-.756.009-.215-.133-.435-.424-.659a5.955 5.955 0 0 0-.512-.344l.324-.544 6.98 4.156-1.115 2.815-.465-.28c.238-.712.341-1.262.309-1.653-.027-.359-.135-.659-.333-.906-.167-.206-.42-.411-.764-.617l-1.78-1.06-2.276 3.83 1.632.974c.27.153.48.22.627.2.211-.033.43-.186.653-.462.079-.1.179-.241.306-.42l.544.323-1.78 2.985-.541-.32c.218-.4.341-.697.374-.889a.663.663 0 0 0-.097-.503 1.439 1.439 0 0 0-.415-.344l-1.641-.976-2.062 3.459c-.177.297-.244.53-.203.697.059.182.256.373.588.57l.765.456c.547.318 1.018.456 1.42.412.4-.035.895-.247 1.483-.635a7.49 7.49 0 0 0 .682-.547z"/><path id="F" d="M1041.006 192.674l-.3-.265c.135-.715.262-1.665.373-2.847l.056-.683.703-8.35-5.026 5.692c-.262.297-.41.523-.441.688-.047.203.053.444.297.717.12.139.264.286.435.442l-.42.473a33.27 33.27 0 0 0-1.295-1.223 31.49 31.49 0 0 0-1.359-1.12l.418-.477c.382.314.668.508.856.579.212.07.415.03.606-.12.1-.074.238-.204.406-.398l5.532-6.264a3.05 3.05 0 0 0-.162-.756c-.094-.23-.259-.462-.494-.7l.42-.474c.439.438.836.815 1.195 1.133.359.317.785.667 1.276 1.05l-.73 9.247 3.7-4.189c.263-.303.41-.532.442-.688.059-.267-.185-.653-.732-1.159l.42-.473c.462.459.894.867 1.294 1.22s.853.73 1.36 1.124l-.421.473c-.374-.314-.656-.505-.847-.573-.215-.077-.418-.038-.612.115a2.694 2.694 0 0 0-.406.397z"/><path id="G" d="M1046.009 192.144l.365.465c-.542.576-.91 1.126-1.098 1.656a2.823 2.823 0 0 0-.088 1.544c.086.432.259.811.518 1.14.412.524.915.824 1.518.895.508.059.961-.068 1.352-.374.5-.39.745-.955.739-1.69-.006-.348-.08-.965-.227-1.854-.217-1.335-.29-2.25-.226-2.738.103-.77.464-1.4 1.082-1.885.768-.603 1.597-.77 2.485-.503.797.241 1.492.744 2.089 1.503.458.585.72 1.194.782 1.83.02.208.02.461 0 .761l1.224-.232.229.288-2.774 2.176-.364-.467c.459-.5.77-.989.947-1.47.294-.827.176-1.577-.356-2.254-.37-.473-.806-.741-1.309-.803a1.695 1.695 0 0 0-1.309.37c-.359.28-.544.666-.556 1.157-.006.244.044.67.147 1.28.189 1.137.312 1.984.371 2.537.068.653.032 1.192-.106 1.618-.182.553-.53 1.03-1.047 1.435-.776.612-1.638.847-2.576.712-.912-.126-1.695-.603-2.345-1.435a4.523 4.523 0 0 1-.97-2.277 7.755 7.755 0 0 1-.05-.832l-1.435.259-.227-.288z"/><path id="H" d="M1060.62 201.306l-7.84 4.273c-.345.189-.562.356-.648.497-.114.177-.103.436.033.78.067.165.153.353.259.559l-.553.303c-.353-.827-.724-1.6-1.115-2.315a26.244 26.244 0 0 0-1.344-2.191l.556-.303c.25.426.453.706.608.835.174.138.38.17.61.094a2.78 2.78 0 0 0 .517-.235l7.838-4.274-.241-.444c-.38-.694-.906-1.088-1.585-1.188-.45-.056-1.036.02-1.753.227l-.283-.518 3.01-1.024 3.952 7.247-2.491 1.974-.282-.512c.647-.573 1.047-1.08 1.208-1.52.206-.562.139-1.162-.2-1.797z"/><path id="I" d="M1059.015 217.512l-3.165.49-2.644-7.802.6-.203c.17.468.32.78.456.927.14.161.338.229.585.197a2.85 2.85 0 0 0 .547-.142l7.303-2.473c.374-.127.615-.25.727-.377.144-.155.182-.411.105-.773a5.871 5.871 0 0 0-.164-.594l.597-.203 2.606 7.694-2.674 1.415-.173-.512c.644-.388 1.079-.741 1.308-1.059.212-.288.324-.591.336-.903.009-.268-.053-.588-.18-.968l-.664-1.958-4.221 1.426.612 1.803c.106.294.22.48.347.559.18.115.447.138.794.073.123-.026.294-.064.506-.117l.203.597-3.291 1.115-.203-.598c.423-.161.711-.305.858-.432a.671.671 0 0 0 .256-.447 1.415 1.415 0 0 0-.094-.53l-.612-1.808-3.814 1.288c-.33.112-.53.244-.606.4-.074.177-.047.45.076.815l.283.844c.208.597.48 1.009.814 1.235.327.235.842.394 1.539.48.264.026.555.035.873.029z"/><path id="J" d="M1058.206 220.847l7.688-1.447c.388-.074.644-.165.77-.274.162-.132.233-.382.207-.75a5.954 5.954 0 0 0-.074-.611l.624-.118c.108.968.232 1.815.367 2.541.138.727.333 1.56.58 2.503l-.62.118c-.1-.48-.207-.806-.319-.983-.123-.188-.305-.279-.555-.276a2.669 2.669 0 0 0-.562.062l-7.691 1.447c-.386.08-.642.17-.768.273-.165.133-.232.383-.209.75.012.18.035.383.074.612l-.624.118a28.35 28.35 0 0 0-.344-2.544 29.56 29.56 0 0 0-.603-2.5l.62-.118c.11.485.215.812.321.982.124.18.31.274.553.28a2.9 2.9 0 0 0 .565-.065"/><path id="K" d="M1057.474 235.22l-.012-.396c.612-.392 1.39-.953 2.326-1.68l.538-.426 6.562-5.212-7.588.238c-.394.012-.665.062-.803.15-.182.106-.288.341-.32.709a6.619 6.619 0 0 0-.024.618l-.632.02c.017-.673.02-1.267.003-1.78a33.23 33.23 0 0 0-.112-1.758l.63-.02c.032.49.087.832.167 1.017a.614.614 0 0 0 .503.359c.123.023.312.032.567.023l8.353-.261a3.11 3.11 0 0 0 .439-.639 2.19 2.19 0 0 0 .173-.838l.632-.02c-.02.62-.02 1.17-.008 1.647.017.479.053 1.029.111 1.65l-7.232 5.805 5.585-.176c.397-.018.668-.068.803-.15.236-.141.347-.582.341-1.326l.633-.021a27.648 27.648 0 0 0 .112 3.541l-.633.018c-.026-.488-.082-.824-.164-1.01-.089-.208-.26-.331-.503-.367a2.57 2.57 0 0 0-.568-.023z"/><path id="L" d="M1000.012 286.588c29.588 0 53.573-23.985 53.573-53.573 0-29.586-23.985-53.574-53.573-53.574-29.586 0-53.57 23.988-53.57 53.574 0 29.588 23.984 53.573 53.57 53.573"/><path id="M" d="M999.997 283.844c-28.082 0-50.85-22.768-50.85-50.85s22.768-50.847 50.85-50.847 50.85 22.765 50.85 50.847-22.768 50.85-50.85 50.85"/><path id="N" d="M1000 285.265c-28.818 0-52.265-23.447-52.265-52.265s23.447-52.265 52.265-52.265 52.265 23.447 52.265 52.265-23.447 52.265-52.265 52.265m.015-103.753c-28.4 0-51.503 23.103-51.503 51.503 0 28.399 23.103 51.503 51.503 51.503 28.399 0 51.503-23.104 51.503-51.503 0-28.4-23.104-51.503-51.503-51.503"/><path id="O" d="M999.988 178.765c-29.9 0-54.223 24.326-54.223 54.226s24.323 54.227 54.223 54.227c29.903 0 54.227-24.327 54.227-54.227 0-29.9-24.324-54.226-54.227-54.226m0 107.117c-29.18 0-52.917-23.731-52.917-52.906 0-29.17 23.738-52.902 52.917-52.902 29.18 0 52.92 23.731 52.92 52.902 0 29.175-23.74 52.906-52.92 52.906"/><path id="P" d="M1000 181.47c28.415 0 51.53 23.115 51.53 51.527 0 28.415-23.115 51.53-51.53 51.53-28.412 0-51.53-23.115-51.53-51.53 0-28.412 23.118-51.526 51.53-51.526m0 1.358c-27.665 0-50.17 22.506-50.17 50.168 0 9.253 2.561 17.9 6.95 25.35l86.458-.03c4.377-7.44 6.933-16.079 6.933-25.32 0-27.662-22.506-50.168-50.171-50.168m.015 100.368c17.991 0 33.758-9.556 42.617-23.832l-85.217.026c8.862 14.262 24.62 23.806 42.6 23.806"/><path id="Q" d="M999.744 209.462v-11.997l16.562-5.515-17.882-6.332v23.844l-20.689 13.094h43.074z"/><path id="R" d="M978.065 244.244v-18.47h43.267v18.594l-20.361 12.144h43.073l-21.144-12.383v-19.923h-46.403v20.047l-20.556 12.259h43.074z"/><clipPath id="c"><use xlink:href="#a"/></clipPath><clipPath id="e"><use xlink:href="#a"/></clipPath></defs><use fill="#16243d" xlink:href="#b" transform="translate(-925 -158)"/><g clip-path="url(#c)" transform="translate(-925 -158)"><use fill="#ad9963" xlink:href="#d"/></g><use fill="#16243d" xlink:href="#b" transform="translate(-925 -158)"/><g clip-path="url(#e)" transform="translate(-925 -158)"><use fill="#ad9963" xlink:href="#d"/></g><use fill="#ad9963" xlink:href="#f" transform="translate(-925 -158)"/><use fill="#ad9963" xlink:href="#g" transform="translate(-925 -158)"/><use fill="#ad9963" xlink:href="#h" transform="translate(-925 -158)"/><use fill="#ad9963" xlink:href="#i" transform="translate(-925 -158)"/><use fill="#ad9963" xlink:href="#j" transform="translate(-925 -158)"/><use fill="#ad9963" xlink:href="#k" transform="translate(-925 -158)"/><use fill="#ad9963" xlink:href="#l" transform="translate(-925 -158)"/><use fill="#ad9963" xlink:href="#m" transform="translate(-925 -158)"/><use fill="#ad9963" xlink:href="#n" transform="translate(-925 -158)"/><use fill="#ad9963" xlink:href="#o" transform="translate(-925 -158)"/><use fill="#ad9963" xlink:href="#p" transform="translate(-925 -158)"/><use fill="#ad9963" xlink:href="#q" transform="translate(-925 -158)"/><use fill="#ad9963" xlink:href="#r" transform="translate(-925 -158)"/><use fill="#ad9963" xlink:href="#s" transform="translate(-925 -158)"/><use fill="#ad9963" xlink:href="#t" transform="translate(-925 -158)"/><use fill="#ad9963" xlink:href="#u" transform="translate(-925 -158)"/><use fill="#ad9963" xlink:href="#v" transform="translate(-925 -158)"/><use fill="#ad9963" xlink:href="#w" transform="translate(-925 -158)"/><use fill="#ad9963" xlink:href="#x" transform="translate(-925 -158)"/><use fill="#ad9963" xlink:href="#y" transform="translate(-925 -158)"/><use fill="#ad9963" xlink:href="#z" transform="translate(-925 -158)"/><use fill="#ad9963" xlink:href="#A" transform="translate(-925 -158)"/><use fill="#ad9963" xlink:href="#B" transform="translate(-925 -158)"/><use fill="#ad9963" xlink:href="#C" transform="translate(-925 -158)"/><use fill="#ad9963" xlink:href="#D" transform="translate(-925 -158)"/><use fill="#ad9963" xlink:href="#E" transform="translate(-925 -158)"/><use fill="#ad9963" xlink:href="#F" transform="translate(-925 -158)"/><use fill="#ad9963" xlink:href="#G" transform="translate(-925 -158)"/><use fill="#ad9963" xlink:href="#H" transform="translate(-925 -158)"/><use fill="#ad9963" xlink:href="#I" transform="translate(-925 -158)"/><use fill="#ad9963" xlink:href="#J" transform="translate(-925 -158)"/><use fill="#ad9963" xlink:href="#K" transform="translate(-925 -158)"/><use fill="#16243d" xlink:href="#L" transform="translate(-925 -158)"/><use fill="#16243d" xlink:href="#M" transform="translate(-925 -158)"/><use fill="#16243d" xlink:href="#N" transform="translate(-925 -158)"/><use fill="#ad9963" xlink:href="#O" transform="translate(-925 -158)"/><use fill="#ad9963" xlink:href="#P" transform="translate(-925 -158)"/><g transform="translate(-925 -158)"><use fill="#ad9963" xlink:href="#Q"/></g><g transform="translate(-925 -158)"><use fill="#ad9963" xlink:href="#R"/></g></svg>