<svg xmlns="http://www.w3.org/2000/svg" width="585" height="199" viewBox="0 0 585 199" fill="none"><path d="M20.2693 16.558L34.1276 8.1194C34.1276 8.1194 46.9391 20.5613 47.2577 30.3192C47.2577 30.3192 54.6988 28.3858 56.0414 20.4021C57.384 12.4183 52.6053 3.36555 52.6053 3.36555L70.3548 1L73.791 23.7912C73.791 23.7912 51.8771 28.9772 43.2299 51.177C43.2299 51.177 32.9443 50.8813 27.5739 53.4061C27.5739 53.4061 36.3577 42.3289 29.804 28.5223C29.804 28.5223 24.7295 19.7879 20.2693 16.5353" fill="#D0AD54"></path><path d="M79.753 29.5686C79.753 29.5686 80.7998 16.6945 88.696 2.02356L103.897 6.91388C103.897 6.91388 95.5455 23.1998 98.39 28.2266C98.39 28.2266 112.544 32.3663 121.646 44.9674H99.5733C95.3635 44.9674 91.1764 45.6725 87.2397 47.1738C83.9856 48.4248 80.4357 50.3809 77.5229 53.4061C71.6519 59.5019 71.1968 62.5043 68.2841 67.7586C62.982 77.3118 55.4726 85.6822 47.8721 89.2305C47.8721 89.2305 39.9759 78.2671 47.8721 58.2964C55.7684 38.3029 67.1008 31.6384 79.7758 29.5686" fill="#D0AD54"></path><path d="M40.3855 58.2281C40.3855 58.2281 32.5575 75.8333 40.3855 93.12C40.3855 93.12 11.5539 109.087 9.30103 131.06C9.30103 131.06 -10.3827 96.8276 10.8712 69.1006C10.8712 69.1006 18.2441 58.0007 40.3855 58.2281Z" fill="#D0AD54"></path><path d="M100.256 75.947C105.012 71.3524 111.452 68.8959 118.097 68.8504L143.697 68.6684V51.1315L96.2964 52.0186C96.2964 52.0186 86.739 51.2907 76.863 66.0299C75.4521 68.1453 74.2233 70.3744 73.0855 72.6489C65.5078 87.6838 44.345 99.3296 44.345 99.3296C13.3971 116.434 14.239 140.204 14.239 140.204C42.4107 191.29 71.0375 198.842 71.0375 198.842C71.0375 198.842 84.2359 195.953 107.037 169.523C129.838 143.092 130.726 119.778 130.726 119.778C130.726 119.778 132.524 104.243 118.643 95.6903C104.784 87.1379 92.2687 98.0786 92.2687 98.0786C91.8818 87.2517 95.7275 80.3597 100.256 75.9925M90.6758 147.983H77.8187V160.743H63.7329V147.983H50.8759V133.994H63.7329V121.234H77.8187V133.994H90.6758V147.983Z" fill="#F0D692"></path><path d="M101.803 85.6822C101.803 85.6822 117.596 82.2703 129.088 95.1672H143.697V78.2899H115.252C111.77 78.2899 108.312 79.3134 105.513 81.3833C104.056 82.4751 102.691 83.8853 101.826 85.6822" fill="#D0AD54"></path><path d="M185.249 106.858C181.494 105.562 178.627 103.811 176.67 101.65C174.713 99.4888 173.734 97.146 173.734 94.644C173.734 92.5741 174.349 91.0047 175.578 89.8901C176.806 88.7756 178.672 88.2297 181.176 88.2297C181.176 92.8471 182.746 96.3499 185.863 98.761C188.981 101.172 193.35 102.378 198.993 102.378C204.637 102.378 208.505 101.581 211.373 99.9665C214.24 98.3743 215.696 95.986 215.696 92.8471C215.696 90.9592 215.15 89.3897 214.08 88.1615C213.011 86.9332 211.213 85.8869 208.665 84.9771C206.116 84.09 202.475 83.1802 197.696 82.2476C192.076 81.1558 187.593 79.9048 184.293 78.4718C180.994 77.0388 178.581 75.2874 177.034 73.2176C175.509 71.1477 174.736 68.6002 174.736 65.575C174.736 62.5498 175.691 59.8658 177.626 57.5685C179.56 55.2712 182.291 53.497 185.841 52.246C189.39 50.995 193.509 50.3809 198.22 50.3809C202.68 50.3809 206.685 50.9495 210.189 52.0413C213.716 53.1559 216.447 54.7253 218.45 56.7724C220.429 58.7968 221.431 61.0941 221.431 63.6416C221.431 65.2111 220.862 66.4393 219.724 67.3492C218.586 68.2363 216.834 68.6912 214.445 68.6912C213.762 64.5742 212.123 61.549 209.529 59.6611C206.935 57.7732 203.158 56.8179 198.197 56.8179C193.236 56.8179 189.755 57.5685 187.183 59.047C184.612 60.5482 183.337 62.6408 183.337 65.3475C183.337 67.2354 183.815 68.8049 184.748 70.0332C185.704 71.2614 187.32 72.3077 189.618 73.1721C191.916 74.0364 195.148 74.878 199.289 75.6968C205.524 76.9024 210.44 78.2216 214.012 79.6773C217.585 81.1331 220.179 82.93 221.772 85.0453C223.365 87.1607 224.161 89.7537 224.161 92.8471C224.161 97.7829 221.84 101.672 217.198 104.516C212.556 107.359 206.344 108.792 198.561 108.792C193.418 108.792 188.981 108.132 185.203 106.836L185.249 106.858Z" fill="#D0AD54"></path><path d="M244.095 107.609C243.14 106.972 242.525 106.062 242.184 104.902L232.035 69.8512C232.649 69.5328 233.423 69.3508 234.379 69.3508C235.562 69.3508 236.563 69.6237 237.405 70.1469C238.224 70.67 238.771 71.3979 238.998 72.3077L245.711 98.1923L244.733 101.422L245.097 101.536L255.018 71.0795C255.177 70.5336 255.496 70.1242 255.974 69.8285C256.452 69.5328 257.021 69.3963 257.658 69.3963C258.272 69.3963 258.818 69.5328 259.319 69.8285C259.82 70.1242 260.138 70.5336 260.298 71.0795L268.854 98.4198L267.989 101.741L268.353 101.854L276.295 72.3305C276.545 71.4207 277.068 70.6928 277.865 70.1696C278.661 69.6465 279.64 69.3735 280.778 69.3735C281.711 69.3735 282.553 69.5328 283.235 69.8739L273.086 104.925C272.768 106.085 272.108 106.995 271.152 107.632C270.196 108.269 268.967 108.587 267.488 108.587L256.952 75.5604L256.588 75.6741L257.385 78.2444L247.714 108.587C246.234 108.587 245.028 108.269 244.073 107.632L244.095 107.609Z" fill="#D0AD54"></path><path d="M292.11 73.627C292.11 72.285 292.611 71.2387 293.612 70.4881C294.613 69.7375 296.047 69.3735 297.89 69.3735V104.311C297.89 105.653 297.389 106.699 296.388 107.45C295.387 108.2 293.953 108.564 292.11 108.564V73.627Z" fill="#D0AD54"></path><path d="M314.798 107.268C312.272 106.404 310.36 105.221 309.04 103.765C307.721 102.309 307.061 100.74 307.061 99.0794C307.061 97.6919 307.47 96.6229 308.289 95.895C309.109 95.1444 310.36 94.7805 312.044 94.7805C312.044 97.8739 313.091 100.239 315.184 101.854C317.278 103.469 320.214 104.288 323.991 104.288C327.768 104.288 330.363 103.742 332.297 102.673C334.231 101.604 335.187 100.012 335.187 97.8966C335.187 96.6229 334.823 95.5766 334.117 94.7577C333.389 93.9389 332.183 93.2338 330.476 92.6196C328.77 92.0283 326.312 91.4141 323.126 90.8C319.349 90.0721 316.345 89.2305 314.138 88.2525C311.93 87.2972 310.292 86.1144 309.268 84.7269C308.244 83.3394 307.721 81.6335 307.721 79.5864C307.721 77.5393 308.358 75.7651 309.655 74.2184C310.952 72.6717 312.795 71.4889 315.162 70.6473C317.551 69.8057 320.305 69.3963 323.468 69.3963C326.471 69.3963 329.134 69.7602 331.5 70.5108C333.867 71.2614 335.71 72.3077 337.03 73.6725C338.373 75.0372 339.033 76.5839 339.033 78.2899C339.033 79.3362 338.646 80.1778 337.895 80.7691C337.144 81.3605 335.961 81.679 334.345 81.679C333.89 78.904 332.797 76.9024 331.045 75.6286C329.293 74.3549 326.767 73.718 323.445 73.718C320.123 73.718 317.779 74.2184 316.049 75.2192C314.32 76.22 313.455 77.6302 313.455 79.4499C313.455 80.7236 313.774 81.77 314.411 82.5888C315.048 83.4076 316.14 84.1128 317.665 84.6814C319.19 85.25 321.374 85.8187 324.15 86.3646C328.337 87.1607 331.637 88.0478 334.026 89.0486C336.416 90.0266 338.168 91.2322 339.237 92.6424C340.307 94.0526 340.83 95.804 340.83 97.8739C340.83 101.195 339.26 103.788 336.143 105.698C333.025 107.609 328.861 108.564 323.65 108.564C320.191 108.564 317.21 108.132 314.684 107.245L314.798 107.268Z" fill="#D0AD54"></path><path d="M354.984 107.268C352.458 106.404 350.547 105.221 349.227 103.765C347.907 102.309 347.247 100.74 347.247 99.0794C347.247 97.6919 347.657 96.6229 348.476 95.895C349.295 95.1444 350.547 94.7805 352.231 94.7805C352.231 97.8739 353.278 100.239 355.371 101.854C357.465 103.469 360.4 104.288 364.178 104.288C367.955 104.288 370.549 103.742 372.484 102.673C374.418 101.604 375.374 100.012 375.374 97.8966C375.374 96.6229 375.009 95.5766 374.304 94.7577C373.576 93.9389 372.37 93.2338 370.663 92.6196C368.956 92.0283 366.499 91.4141 363.313 90.8C359.536 90.0721 356.532 89.2305 354.324 88.2525C352.117 87.2972 350.479 86.1144 349.455 84.7269C348.431 83.3394 347.907 81.6335 347.907 79.5864C347.907 77.5393 348.544 75.7651 349.842 74.2184C351.139 72.6717 352.982 71.4889 355.348 70.6473C357.738 69.8057 360.491 69.3963 363.654 69.3963C366.658 69.3963 369.321 69.7602 371.687 70.5108C374.054 71.2614 375.897 72.3077 377.217 73.6725C378.559 75.0372 379.219 76.5839 379.219 78.2899C379.219 79.3362 378.832 80.1778 378.082 80.7691C377.331 81.3605 376.147 81.679 374.532 81.679C374.076 78.904 372.984 76.9024 371.232 75.6286C369.48 74.3549 366.954 73.718 363.632 73.718C360.309 73.718 357.965 74.2184 356.236 75.2192C354.506 76.22 353.642 77.6302 353.642 79.4499C353.642 80.7236 353.96 81.77 354.598 82.5888C355.235 83.4076 356.327 84.1128 357.852 84.6814C359.376 85.25 361.561 85.8187 364.337 86.3646C368.524 87.1607 371.824 88.0478 374.213 89.0486C376.602 90.0266 378.355 91.2322 379.424 92.6424C380.494 94.0526 381.017 95.804 381.017 97.8739C381.017 101.195 379.447 103.788 376.329 105.698C373.212 107.609 369.047 108.564 363.836 108.564C360.378 108.564 357.396 108.132 354.871 107.245L354.984 107.268Z" fill="#D0AD54"></path><path d="M420.134 106.244C416.106 104.538 412.966 102.15 410.736 99.0794C408.506 96.0087 407.391 92.5286 407.391 88.6164V70.3971C407.391 66.4848 408.506 63.0275 410.736 59.9796C412.966 56.9317 416.061 54.5888 420.043 52.9057C424.025 51.2225 428.577 50.3809 433.719 50.3809C438.862 50.3809 443.413 51.1088 447.396 52.5417C451.378 53.9747 454.473 55.9763 456.703 58.5238C458.933 61.0714 460.048 64.0056 460.048 67.3037C460.048 68.9414 459.433 70.2151 458.205 71.125C456.976 72.0575 455.36 72.5124 453.335 72.5124C452.903 72.5124 452.265 72.4669 451.401 72.3532C451.514 71.6936 451.583 70.67 451.583 69.2598C451.583 66.9397 450.832 64.8471 449.33 63.0047C447.828 61.1623 445.712 59.7294 443.004 58.6831C440.273 57.6595 437.178 57.1364 433.697 57.1364C430.215 57.1364 427.211 57.6823 424.526 58.7968C421.841 59.9113 419.747 61.4808 418.245 63.5279C416.744 65.5523 415.993 67.8496 415.993 70.3971V88.6164C415.993 91.2321 416.744 93.5522 418.245 95.5766C419.747 97.6009 421.864 99.1931 424.572 100.33C427.302 101.468 430.397 102.036 433.879 102.036C437.36 102.036 440.569 101.513 443.322 100.49C446.076 99.4661 448.215 98.0331 449.74 96.2134C451.264 94.3938 452.038 92.3012 452.038 89.9129C452.038 89.0486 451.97 88.025 451.856 86.8195C452.721 86.7057 453.335 86.6603 453.699 86.6603C455.724 86.6603 457.363 87.1834 458.614 88.207C459.866 89.2305 460.503 90.618 460.503 92.3467C460.503 95.5538 459.365 98.397 457.112 100.899C454.86 103.401 451.719 105.334 447.714 106.722C443.709 108.109 439.113 108.792 433.901 108.792C428.69 108.792 424.185 107.927 420.134 106.222V106.244Z" fill="#D0AD54"></path><path d="M491.314 106.381L467.648 51.1315C468.126 50.9268 468.718 50.7448 469.401 50.6083C470.083 50.4719 470.675 50.4036 471.244 50.4036C472.95 50.4036 474.407 50.7676 475.613 51.4954C476.796 52.2233 477.684 53.2468 478.23 54.5433L495.024 96.1225L493.362 100.285L494.091 100.535L512.705 54.5661C513.251 53.2696 514.138 52.246 515.367 51.5182C516.596 50.7903 518.052 50.4264 519.782 50.4264C520.829 50.4264 522.012 50.6766 523.355 51.1542L499.689 106.404C499.393 107.154 498.869 107.768 498.118 108.2C497.39 108.633 496.503 108.86 495.456 108.86C493.431 108.86 492.065 108.041 491.337 106.426L491.314 106.381Z" fill="#D0AD54"></path><path d="M544.631 106.244C540.603 104.538 537.463 102.15 535.233 99.0794C533.003 96.0087 531.888 92.5286 531.888 88.6164V70.3971C531.888 66.4848 533.003 63.0275 535.233 59.9796C537.463 56.9317 540.558 54.5888 544.54 52.9057C548.522 51.2225 553.074 50.3809 558.216 50.3809C563.359 50.3809 567.91 51.1088 571.893 52.5417C575.875 53.9747 578.97 55.9763 581.2 58.5238C583.43 61.0714 584.545 64.0056 584.545 67.3037C584.545 68.9414 583.931 70.2151 582.702 71.125C581.473 72.0575 579.857 72.5124 577.832 72.5124C577.4 72.5124 576.762 72.4669 575.898 72.3532C576.011 71.6936 576.08 70.67 576.08 69.2598C576.08 66.9397 575.329 64.8471 573.827 63.0047C572.325 61.1623 570.209 59.7294 567.501 58.6831C564.77 57.6595 561.675 57.1364 558.194 57.1364C554.712 57.1364 551.708 57.6823 549.023 58.7968C546.338 59.9113 544.244 61.4808 542.742 63.5279C541.241 65.5523 540.49 67.8496 540.49 70.3971V88.6164C540.49 91.2321 541.241 93.5522 542.742 95.5766C544.244 97.6009 546.361 99.1931 549.069 100.33C551.799 101.468 554.894 102.036 558.376 102.036C561.857 102.036 565.066 101.513 567.819 100.49C570.573 99.4661 572.712 98.0331 574.237 96.2134C575.761 94.3938 576.535 92.3012 576.535 89.9129C576.535 89.0486 576.467 88.025 576.353 86.8195C577.218 86.7057 577.832 86.6603 578.196 86.6603C580.221 86.6603 581.86 87.1834 583.111 88.207C584.363 89.2305 585 90.618 585 92.3467C585 95.5538 583.862 98.397 581.609 100.899C579.357 103.401 576.216 105.334 572.211 106.722C568.206 108.109 563.61 108.792 558.398 108.792C553.187 108.792 548.682 107.927 544.631 106.222V106.244Z" fill="#D0AD54"></path><path d="M180.652 154.01C178.627 153.146 177.057 151.963 175.942 150.439C174.827 148.915 174.258 147.164 174.258 145.208V136.087C174.258 134.131 174.827 132.402 175.942 130.878C177.057 129.354 178.604 128.171 180.607 127.33C182.586 126.488 184.885 126.079 187.433 126.079C189.982 126.079 192.28 126.442 194.26 127.148C196.24 127.875 197.81 128.854 198.925 130.127C200.04 131.401 200.609 132.88 200.609 134.517C200.609 135.336 200.313 135.973 199.699 136.428C199.084 136.883 198.288 137.11 197.264 137.11C197.059 137.11 196.718 137.087 196.308 137.019C196.376 136.701 196.399 136.178 196.399 135.473C196.399 134.312 196.012 133.266 195.284 132.334C194.533 131.424 193.486 130.696 192.121 130.173C190.756 129.65 189.208 129.399 187.456 129.399C185.704 129.399 184.225 129.672 182.86 130.241C181.517 130.81 180.47 131.583 179.719 132.607C178.968 133.63 178.604 134.767 178.604 136.041V145.162C178.604 146.459 178.968 147.619 179.719 148.642C180.47 149.666 181.517 150.462 182.882 151.031C184.248 151.599 185.795 151.895 187.547 151.895C189.299 151.895 190.892 151.645 192.28 151.122C193.669 150.598 194.738 149.893 195.489 148.983C196.24 148.074 196.627 147.027 196.627 145.822C196.627 145.39 196.604 144.866 196.536 144.275C196.968 144.23 197.264 144.184 197.446 144.184C198.447 144.184 199.266 144.434 199.904 144.957C200.541 145.481 200.837 146.163 200.837 147.027C200.837 148.62 200.268 150.052 199.13 151.304C197.992 152.555 196.422 153.51 194.419 154.215C192.417 154.897 190.119 155.261 187.524 155.261C184.93 155.261 182.655 154.829 180.652 153.988V154.01Z" fill="#D0AD54"></path><path d="M204.819 154.488C204.478 154.124 204.295 153.692 204.295 153.191C204.295 152.85 204.387 152.486 204.569 152.1L211.919 136.405C212.169 135.859 212.647 135.586 213.33 135.586C213.989 135.586 214.445 135.859 214.718 136.405L222.068 152.1C222.25 152.486 222.341 152.85 222.341 153.191C222.341 153.692 222.159 154.101 221.817 154.465C221.476 154.829 220.975 155.057 220.361 155.17L217.721 149.461H208.892L206.252 155.17C205.638 155.057 205.16 154.829 204.796 154.465L204.819 154.488ZM216.857 147.255L212.897 138.338L212.647 138.429L213.193 139.68L209.802 147.278H216.857V147.255Z" fill="#D0AD54"></path><path d="M225.891 137.019C225.891 136.678 226.027 136.382 226.3 136.155C226.573 135.927 226.937 135.814 227.37 135.814H235.858C237.838 135.814 239.43 136.337 240.614 137.36C241.797 138.384 242.389 139.749 242.389 141.477C242.389 143.615 241.342 145.139 239.226 146.027V146.117C240.159 146.459 240.864 146.982 241.342 147.687C241.843 148.392 242.07 149.234 242.07 150.234V153.055C242.07 153.737 241.82 154.283 241.342 154.647C240.864 155.011 240.136 155.193 239.18 155.193V150.416C239.18 149.347 238.907 148.529 238.361 147.983C237.815 147.437 237.018 147.141 235.949 147.141H228.735V153.055C228.735 153.737 228.485 154.283 228.007 154.647C227.529 155.011 226.801 155.193 225.868 155.193V137.042L225.891 137.019ZM235.79 144.912C236.927 144.912 237.815 144.594 238.475 143.979C239.135 143.365 239.476 142.524 239.476 141.432C239.476 140.34 239.157 139.498 238.52 138.93C237.883 138.338 236.973 138.066 235.79 138.066H228.781V144.912H235.79Z" fill="#D0AD54"></path><path d="M246.826 154.602C246.53 154.374 246.394 154.078 246.394 153.737V137.042C246.394 136.701 246.53 136.405 246.803 136.178C247.076 135.95 247.44 135.836 247.873 135.836H255.086C256.839 135.836 258.363 136.132 259.706 136.701C261.048 137.292 262.072 138.088 262.823 139.135C263.574 140.181 263.938 141.386 263.938 142.728V147.96C263.938 149.302 263.552 150.507 262.823 151.554C262.095 152.6 261.026 153.442 259.683 154.033C258.341 154.624 256.816 154.92 255.086 154.92H247.873C247.463 154.92 247.122 154.806 246.826 154.579V154.602ZM254.768 152.691C256.748 152.691 258.272 152.282 259.387 151.44C260.502 150.621 261.048 149.461 261.048 147.983V142.683C261.048 141.227 260.502 140.09 259.387 139.271C258.272 138.452 256.748 138.043 254.768 138.043H249.284V152.668H254.768V152.691Z" fill="#D0AD54"></path><path d="M268.558 137.702C268.558 137.019 268.808 136.496 269.309 136.132C269.809 135.768 270.515 135.563 271.448 135.563V153.032C271.448 153.715 271.198 154.238 270.697 154.602C270.196 154.966 269.491 155.17 268.558 155.17V137.702Z" fill="#D0AD54"></path><path d="M279.913 154.283C278.57 153.692 277.524 152.873 276.75 151.827C275.976 150.78 275.612 149.62 275.612 148.347V142.342C275.612 141.068 275.999 139.908 276.75 138.884C277.501 137.861 278.57 137.042 279.913 136.451C281.256 135.859 282.78 135.563 284.487 135.563C286.194 135.563 287.741 135.859 289.084 136.451C290.426 137.042 291.473 137.861 292.247 138.884C293.02 139.908 293.384 141.068 293.384 142.342V148.347C293.384 149.62 292.998 150.78 292.247 151.827C291.496 152.873 290.426 153.692 289.084 154.283C287.718 154.875 286.194 155.17 284.487 155.17C282.78 155.17 281.256 154.875 279.913 154.283ZM288.947 151.69C290.017 150.849 290.54 149.734 290.54 148.324V142.41C290.54 141 290.017 139.885 288.947 139.066C287.878 138.247 286.398 137.815 284.487 137.815C282.575 137.815 281.119 138.225 280.05 139.066C278.98 139.885 278.457 141 278.457 142.41V148.324C278.457 149.734 278.98 150.849 280.05 151.69C281.119 152.532 282.598 152.941 284.487 152.941C286.376 152.941 287.878 152.532 288.947 151.69Z" fill="#D0AD54"></path><path d="M306.173 154.078L294.34 126.465C294.59 126.351 294.864 126.261 295.205 126.192C295.546 126.124 295.842 126.101 296.115 126.101C296.98 126.101 297.708 126.283 298.3 126.647C298.891 127.011 299.324 127.512 299.597 128.171L307.994 148.961L307.174 151.031L307.539 151.144L316.846 128.148C317.119 127.489 317.574 126.988 318.165 126.624C318.78 126.261 319.508 126.079 320.373 126.079C320.896 126.079 321.488 126.192 322.17 126.442L310.337 154.056C310.178 154.442 309.928 154.738 309.564 154.943C309.2 155.17 308.745 155.261 308.244 155.261C307.243 155.261 306.537 154.852 306.173 154.033V154.078Z" fill="#D0AD54"></path><path d="M321.26 154.442C320.873 154.056 320.691 153.601 320.691 153.055C320.691 152.691 320.782 152.304 320.987 151.872L328.906 134.972C329.179 134.381 329.68 134.085 330.431 134.085C331.136 134.085 331.637 134.381 331.91 134.972L339.829 151.872C340.034 152.282 340.125 152.668 340.125 153.055C340.125 153.578 339.943 154.056 339.556 154.442C339.169 154.829 338.668 155.079 338.009 155.216L335.164 149.074H325.652L322.808 155.216C322.148 155.102 321.624 154.852 321.26 154.465V154.442ZM334.208 146.686L329.93 137.087L329.657 137.178L330.249 138.52L326.608 146.686H334.186H334.208Z" fill="#D0AD54"></path><path d="M346.679 154.488C345.313 154.01 344.289 153.396 343.584 152.6C342.878 151.804 342.514 150.985 342.514 150.075C342.514 149.325 342.742 148.756 343.174 148.369C343.606 147.96 344.289 147.755 345.199 147.755C345.199 149.416 345.768 150.689 346.883 151.554C348.021 152.418 349.591 152.873 351.617 152.873C353.642 152.873 355.053 152.577 356.099 152.009C357.146 151.44 357.647 150.576 357.647 149.438C357.647 148.756 357.465 148.187 357.078 147.755C356.691 147.323 356.031 146.936 355.121 146.618C354.211 146.299 352.891 145.958 351.161 145.64C349.136 145.253 347.52 144.798 346.314 144.275C345.131 143.752 344.244 143.115 343.698 142.387C343.151 141.637 342.878 140.727 342.878 139.635C342.878 138.543 343.22 137.565 343.925 136.746C344.631 135.905 345.609 135.268 346.883 134.813C348.158 134.358 349.66 134.131 351.366 134.131C352.982 134.131 354.416 134.335 355.69 134.722C356.964 135.109 357.965 135.7 358.671 136.428C359.376 137.156 359.74 137.997 359.74 138.907C359.74 139.476 359.536 139.931 359.126 140.249C358.716 140.568 358.079 140.727 357.214 140.727C356.964 139.248 356.372 138.156 355.44 137.474C354.507 136.792 353.141 136.451 351.343 136.451C349.546 136.451 348.294 136.724 347.361 137.247C346.428 137.793 345.973 138.543 345.973 139.521C345.973 140.204 346.155 140.772 346.496 141.204C346.838 141.637 347.429 142.023 348.249 142.342C349.068 142.66 350.251 142.956 351.753 143.252C354.006 143.684 355.781 144.161 357.078 144.685C358.375 145.208 359.308 145.867 359.877 146.618C360.446 147.369 360.742 148.324 360.742 149.438C360.742 151.213 359.9 152.623 358.216 153.646C356.532 154.67 354.302 155.193 351.48 155.193C349.614 155.193 348.021 154.966 346.656 154.488H346.679Z" fill="#D0AD54"></path><path d="M368.82 154.283C367.364 153.669 366.226 152.805 365.429 151.69C364.633 150.576 364.223 149.325 364.223 147.914V141.341C364.223 139.931 364.633 138.68 365.429 137.588C366.226 136.496 367.364 135.632 368.797 135.04C370.231 134.426 371.869 134.131 373.735 134.131C375.601 134.131 377.24 134.381 378.673 134.904C380.107 135.427 381.222 136.132 382.041 137.065C382.837 137.997 383.247 139.044 383.247 140.249C383.247 140.84 383.019 141.295 382.587 141.637C382.155 141.978 381.563 142.137 380.835 142.137C380.676 142.137 380.448 142.137 380.13 142.069C380.175 141.841 380.198 141.455 380.198 140.954C380.198 140.113 379.925 139.362 379.379 138.702C378.832 138.043 378.081 137.52 377.103 137.156C376.124 136.792 375.009 136.587 373.735 136.587C372.461 136.587 371.391 136.792 370.413 137.178C369.434 137.565 368.683 138.157 368.137 138.884C367.591 139.612 367.318 140.454 367.318 141.364V147.937C367.318 148.87 367.591 149.711 368.137 150.439C368.683 151.167 369.434 151.736 370.413 152.145C371.391 152.555 372.506 152.759 373.781 152.759C375.055 152.759 376.193 152.577 377.194 152.191C378.195 151.827 378.969 151.304 379.515 150.644C380.061 149.984 380.334 149.234 380.334 148.369C380.334 148.051 380.334 147.687 380.266 147.255C380.585 147.209 380.789 147.187 380.926 147.187C381.654 147.187 382.246 147.369 382.701 147.755C383.156 148.119 383.384 148.62 383.384 149.256C383.384 150.416 382.974 151.44 382.155 152.35C381.336 153.26 380.198 153.942 378.764 154.442C377.308 154.943 375.647 155.193 373.781 155.193C371.915 155.193 370.276 154.875 368.82 154.26V154.283Z" fill="#D0AD54"></path><path d="M391.598 154.26C390.188 153.624 389.073 152.759 388.276 151.667C387.48 150.553 387.07 149.325 387.07 147.96V136.405C387.07 135.654 387.343 135.086 387.867 134.699C388.39 134.312 389.164 134.108 390.188 134.108V147.937C390.188 149.37 390.756 150.53 391.894 151.394C393.032 152.282 394.511 152.714 396.354 152.714C398.198 152.714 399.677 152.282 400.792 151.394C401.907 150.507 402.476 149.347 402.476 147.937V136.382C402.476 135.632 402.749 135.063 403.272 134.676C403.796 134.29 404.569 134.085 405.593 134.085V147.914C405.593 149.279 405.206 150.53 404.41 151.622C403.614 152.736 402.521 153.601 401.088 154.215C399.677 154.852 398.084 155.148 396.354 155.148C394.625 155.148 393.032 154.829 391.621 154.215L391.598 154.26Z" fill="#D0AD54"></path><path d="M410.531 154.511C410.213 154.238 410.053 153.897 410.053 153.487V136.382C410.053 134.858 411.1 134.085 413.171 134.085V152.486H423.343C424.116 152.486 424.708 152.691 425.14 153.123C425.55 153.533 425.778 154.147 425.778 154.92H411.692C411.259 154.92 410.873 154.784 410.554 154.488L410.531 154.511Z" fill="#D0AD54"></path><path d="M428.235 154.442C427.848 154.056 427.666 153.601 427.666 153.055C427.666 152.691 427.757 152.304 427.962 151.872L435.881 134.972C436.154 134.381 436.655 134.085 437.406 134.085C438.111 134.085 438.612 134.381 438.885 134.972L446.804 151.872C447.009 152.282 447.1 152.668 447.1 153.055C447.1 153.578 446.918 154.056 446.531 154.442C446.144 154.829 445.643 155.079 444.984 155.216L442.139 149.074H432.627L429.783 155.216C429.123 155.102 428.599 154.852 428.235 154.465V154.442ZM441.183 146.686L436.905 137.087L436.632 137.178L437.224 138.52L433.583 146.686H441.161H441.183Z" fill="#D0AD54"></path><path d="M450.923 135.654C450.923 135.291 451.082 134.972 451.378 134.722C451.674 134.472 452.061 134.358 452.516 134.358H461.664C463.803 134.358 465.509 134.904 466.784 136.018C468.058 137.133 468.695 138.589 468.695 140.431C468.695 142.751 467.557 144.389 465.282 145.344V145.435C466.283 145.799 467.034 146.368 467.557 147.118C468.081 147.869 468.354 148.779 468.354 149.871V152.896C468.354 153.646 468.081 154.215 467.557 154.602C467.034 154.988 466.26 155.193 465.236 155.193V150.052C465.236 148.892 464.94 148.028 464.349 147.414C463.757 146.823 462.892 146.527 461.755 146.527H453.995V152.896C453.995 153.646 453.745 154.215 453.221 154.602C452.698 154.988 451.924 155.193 450.923 155.193V135.654ZM461.55 144.139C462.756 144.139 463.734 143.797 464.44 143.138C465.145 142.478 465.509 141.568 465.509 140.408C465.509 139.248 465.168 138.338 464.485 137.702C463.803 137.065 462.824 136.769 461.527 136.769H453.972V144.139H461.527H461.55Z" fill="#D0AD54"></path><path d="M480.46 154.01C478.435 153.146 476.864 151.963 475.749 150.439C474.634 148.915 474.065 147.164 474.065 145.208V136.087C474.065 134.131 474.634 132.402 475.749 130.878C476.864 129.354 478.412 128.171 480.414 127.33C482.394 126.488 484.692 126.079 487.241 126.079C489.79 126.079 492.088 126.442 494.068 127.148C496.048 127.875 497.618 128.854 498.733 130.127C499.848 131.401 500.417 132.88 500.417 134.517C500.417 135.336 500.121 135.973 499.506 136.428C498.892 136.883 498.096 137.11 497.072 137.11C496.867 137.11 496.525 137.087 496.116 137.019C496.184 136.701 496.207 136.178 496.207 135.473C496.207 134.312 495.82 133.266 495.092 132.334C494.341 131.424 493.294 130.696 491.929 130.173C490.563 129.65 489.016 129.399 487.264 129.399C485.512 129.399 484.032 129.672 482.667 130.241C481.325 130.81 480.278 131.583 479.527 132.607C478.776 133.63 478.412 134.767 478.412 136.041V145.162C478.412 146.459 478.776 147.619 479.527 148.642C480.278 149.666 481.325 150.462 482.69 151.031C484.055 151.599 485.603 151.895 487.355 151.895C489.107 151.895 490.7 151.645 492.088 151.122C493.476 150.598 494.546 149.893 495.297 148.983C496.048 148.074 496.434 147.027 496.434 145.822C496.434 145.39 496.412 144.866 496.343 144.275C496.776 144.23 497.072 144.184 497.254 144.184C498.255 144.184 499.074 144.434 499.711 144.957C500.348 145.481 500.644 146.163 500.644 147.027C500.644 148.62 500.075 150.052 498.938 151.304C497.8 152.555 496.23 153.51 494.227 154.215C492.225 154.897 489.926 155.261 487.332 155.261C484.738 155.261 482.462 154.829 480.46 153.988V154.01Z" fill="#D0AD54"></path><path d="M505.537 154.511C505.218 154.238 505.059 153.897 505.059 153.487V136.382C505.059 134.858 506.106 134.085 508.176 134.085V152.486H518.348C519.122 152.486 519.714 152.691 520.146 153.123C520.556 153.533 520.783 154.147 520.783 154.92H506.697C506.265 154.92 505.878 154.784 505.559 154.488L505.537 154.511Z" fill="#D0AD54"></path><path d="M524.902 136.382C524.902 135.654 525.175 135.086 525.721 134.699C526.267 134.312 527.041 134.108 528.02 134.108V152.918C528.02 153.646 527.746 154.215 527.2 154.602C526.654 154.988 525.88 155.193 524.902 155.193V136.382Z" fill="#D0AD54"></path><path d="M533.322 136.473C533.322 135.723 533.572 135.154 534.095 134.722C534.619 134.312 535.347 134.085 536.257 134.085L549.114 151.417L549.342 151.235L548.386 149.825V134.085C549.41 134.085 550.161 134.29 550.684 134.676C551.208 135.063 551.458 135.632 551.458 136.382V153.009C551.458 153.646 551.208 154.147 550.707 154.556C550.206 154.966 549.569 155.17 548.796 155.17L535.643 137.451L535.415 137.633L536.371 139.044V152.873C536.371 153.624 536.121 154.192 535.597 154.579C535.074 154.966 534.3 155.17 533.299 155.17V136.451L533.322 136.473Z" fill="#D0AD54"></path><path d="M556.76 136.382C556.76 135.654 557.033 135.086 557.579 134.699C558.125 134.312 558.899 134.108 559.878 134.108V152.918C559.878 153.646 559.605 154.215 559.058 154.602C558.512 154.988 557.739 155.193 556.76 155.193V136.382Z" fill="#D0AD54"></path><path d="M569.458 154.283C568.001 153.669 566.864 152.805 566.067 151.69C565.271 150.576 564.861 149.325 564.861 147.914V141.341C564.861 139.931 565.271 138.68 566.067 137.588C566.864 136.496 568.001 135.632 569.435 135.04C570.869 134.426 572.507 134.131 574.373 134.131C576.239 134.131 577.877 134.381 579.311 134.904C580.745 135.427 581.86 136.132 582.679 137.065C583.475 137.997 583.885 139.044 583.885 140.249C583.885 140.84 583.657 141.295 583.225 141.637C582.793 141.978 582.201 142.137 581.473 142.137C581.314 142.137 581.086 142.137 580.767 142.069C580.813 141.841 580.836 141.455 580.836 140.954C580.836 140.113 580.563 139.362 580.017 138.702C579.47 138.043 578.719 137.52 577.741 137.156C576.762 136.792 575.647 136.587 574.373 136.587C573.099 136.587 572.029 136.792 571.051 137.178C570.072 137.565 569.321 138.157 568.775 138.884C568.229 139.612 567.956 140.454 567.956 141.364V147.937C567.956 148.87 568.229 149.711 568.775 150.439C569.321 151.167 570.072 151.736 571.051 152.145C572.029 152.555 573.144 152.759 574.419 152.759C575.693 152.759 576.831 152.577 577.832 152.191C578.833 151.827 579.607 151.304 580.153 150.644C580.699 149.984 580.972 149.234 580.972 148.369C580.972 148.051 580.972 147.687 580.904 147.255C581.223 147.209 581.427 147.187 581.564 147.187C582.292 147.187 582.884 147.369 583.339 147.755C583.794 148.119 584.022 148.62 584.022 149.256C584.022 150.416 583.612 151.44 582.793 152.35C581.974 153.26 580.836 153.942 579.402 154.442C577.946 154.943 576.285 155.193 574.419 155.193C572.553 155.193 570.914 154.875 569.458 154.26V154.283Z" fill="#D0AD54"></path></svg>