<?xml version="1.0" encoding="UTF-8"?>
<svg xmlns="http://www.w3.org/2000/svg" xmlns:xlink="http://www.w3.org/1999/xlink" width="200px" height="px" viewBox="0 0 200 200" version="1.1">
<g id="surface1">
<path style=" stroke:none;fill-rule:nonzero;fill:rgb(81.568629%,67.843139%,32.941177%);fill-opacity:1;" d="M 6.929688 71.65625 L 11.664062 68.773438 C 11.664062 68.773438 16.046875 73.023438 16.15625 76.359375 C 16.15625 76.359375 18.695312 75.695312 19.164062 72.976562 C 19.617188 70.242188 17.984375 67.148438 17.984375 67.148438 L 24.054688 66.34375 L 25.226562 74.132812 C 25.226562 74.132812 17.734375 75.898438 14.78125 83.492188 C 14.78125 83.492188 11.257812 83.382812 9.429688 84.25 C 9.429688 84.25 12.429688 80.460938 10.1875 75.742188 C 10.1875 75.742188 8.453125 72.757812 6.929688 71.648438 "/>
<path style=" stroke:none;fill-rule:nonzero;fill:rgb(81.568629%,67.843139%,32.941177%);fill-opacity:1;" d="M 27.265625 76.101562 C 27.265625 76.101562 27.625 71.703125 30.320312 66.695312 L 35.523438 68.367188 C 35.523438 68.367188 32.664062 73.929688 33.632812 75.648438 C 33.632812 75.648438 38.476562 77.054688 41.585938 81.367188 L 34.039062 81.367188 C 32.601562 81.367188 31.171875 81.601562 29.828125 82.117188 C 28.710938 82.546875 27.5 83.210938 26.507812 84.25 C 24.492188 86.335938 24.335938 87.359375 23.34375 89.15625 C 21.53125 92.414062 18.960938 95.273438 16.367188 96.492188 C 16.367188 96.492188 13.664062 92.742188 16.367188 85.921875 C 19.070312 79.085938 22.945312 76.8125 27.273438 76.101562 "/>
<path style=" stroke:none;fill-rule:nonzero;fill:rgb(81.568629%,67.843139%,32.941177%);fill-opacity:1;" d="M 13.804688 85.898438 C 13.804688 85.898438 11.132812 91.914062 13.804688 97.820312 C 13.804688 97.820312 3.945312 103.273438 3.179688 110.789062 C 3.179688 110.789062 -3.554688 99.085938 3.71875 89.617188 C 3.71875 89.617188 6.242188 85.820312 13.804688 85.898438 Z M 13.804688 85.898438 "/>
<path style=" stroke:none;fill-rule:nonzero;fill:rgb(94.117647%,83.92157%,57.254905%);fill-opacity:1;" d="M 34.273438 91.953125 C 35.898438 90.382812 38.101562 89.539062 40.375 89.523438 L 49.125 89.460938 L 49.125 83.476562 L 32.921875 83.773438 C 32.921875 83.773438 29.65625 83.523438 26.273438 88.5625 C 25.796875 89.289062 25.375 90.046875 24.984375 90.820312 C 22.398438 95.960938 15.164062 99.945312 15.164062 99.945312 C 4.578125 105.789062 4.867188 113.914062 4.867188 113.914062 C 14.5 131.367188 24.289062 133.945312 24.289062 133.945312 C 24.289062 133.945312 28.796875 132.960938 36.59375 123.929688 C 44.390625 114.898438 44.695312 106.929688 44.695312 106.929688 C 44.695312 106.929688 45.304688 101.617188 40.5625 98.695312 C 35.820312 95.773438 31.546875 99.515625 31.546875 99.515625 C 31.414062 95.8125 32.726562 93.460938 34.273438 91.96875 M 31 116.570312 L 26.601562 116.570312 L 26.601562 120.929688 L 21.789062 120.929688 L 21.789062 116.570312 L 17.398438 116.570312 L 17.398438 111.789062 L 21.789062 111.789062 L 21.789062 107.429688 L 26.601562 107.429688 L 26.601562 111.789062 L 31 111.789062 Z M 31 116.570312 "/>
<path style=" stroke:none;fill-rule:nonzero;fill:rgb(81.568629%,67.843139%,32.941177%);fill-opacity:1;" d="M 34.804688 95.273438 C 34.804688 95.273438 40.203125 94.117188 44.132812 98.523438 L 49.125 98.523438 L 49.125 92.75 L 39.398438 92.75 C 38.210938 92.75 37.03125 93.101562 36.070312 93.804688 C 35.570312 94.179688 35.109375 94.664062 34.8125 95.273438 "/>
<path style=" stroke:none;fill-rule:nonzero;fill:rgb(81.568629%,67.843139%,32.941177%);fill-opacity:1;" d="M 63.335938 102.515625 C 62.046875 102.070312 61.070312 101.476562 60.398438 100.734375 C 59.726562 99.992188 59.398438 99.195312 59.398438 98.335938 C 59.398438 97.632812 59.601562 97.101562 60.023438 96.71875 C 60.445312 96.335938 61.085938 96.148438 61.945312 96.148438 C 61.945312 97.726562 62.476562 98.921875 63.539062 99.75 C 64.609375 100.570312 66.101562 100.984375 68.03125 100.984375 C 69.960938 100.984375 71.28125 100.710938 72.265625 100.164062 C 73.242188 99.617188 73.742188 98.796875 73.742188 97.726562 C 73.742188 97.085938 73.554688 96.546875 73.1875 96.125 C 72.820312 95.710938 72.210938 95.351562 71.335938 95.039062 C 70.46875 94.734375 69.226562 94.421875 67.585938 94.101562 C 65.664062 93.726562 64.132812 93.304688 63.007812 92.8125 C 61.882812 92.320312 61.054688 91.726562 60.523438 91.023438 C 60.007812 90.3125 59.742188 89.445312 59.742188 88.40625 C 59.742188 87.375 60.070312 86.460938 60.726562 85.671875 C 61.390625 84.882812 62.320312 84.28125 63.539062 83.851562 C 64.75 83.429688 66.15625 83.210938 67.765625 83.210938 C 69.289062 83.210938 70.664062 83.414062 71.859375 83.78125 C 73.070312 84.164062 74 84.695312 74.679688 85.398438 C 75.359375 86.09375 75.703125 86.875 75.703125 87.742188 C 75.703125 88.28125 75.507812 88.703125 75.117188 89.015625 C 74.726562 89.320312 74.132812 89.476562 73.3125 89.476562 C 73.085938 88.070312 72.523438 87.03125 71.632812 86.382812 C 70.742188 85.742188 69.453125 85.414062 67.757812 85.414062 C 66.0625 85.414062 64.875 85.671875 63.992188 86.179688 C 63.117188 86.6875 62.679688 87.40625 62.679688 88.328125 C 62.679688 88.976562 62.84375 89.507812 63.164062 89.929688 C 63.492188 90.351562 64.039062 90.710938 64.828125 91.007812 C 65.617188 91.296875 66.71875 91.585938 68.132812 91.867188 C 70.265625 92.273438 71.945312 92.726562 73.164062 93.226562 C 74.390625 93.726562 75.273438 94.335938 75.820312 95.0625 C 76.367188 95.78125 76.632812 96.671875 76.632812 97.726562 C 76.632812 99.414062 75.84375 100.742188 74.257812 101.710938 C 72.664062 102.6875 70.546875 103.179688 67.882812 103.179688 C 66.125 103.179688 64.609375 102.945312 63.320312 102.507812 Z M 63.335938 102.515625 "/>
<path style=" stroke:none;fill-rule:nonzero;fill:rgb(81.568629%,67.843139%,32.941177%);fill-opacity:1;" d="M 83.453125 102.773438 C 83.125 102.554688 82.914062 102.242188 82.796875 101.84375 L 79.328125 89.867188 C 79.539062 89.757812 79.804688 89.695312 80.132812 89.695312 C 80.539062 89.695312 80.875 89.789062 81.164062 89.96875 C 81.445312 90.148438 81.632812 90.398438 81.710938 90.710938 L 84.007812 99.554688 L 83.671875 100.65625 L 83.789062 100.695312 L 87.1875 90.289062 C 87.242188 90.101562 87.351562 89.960938 87.507812 89.859375 C 87.679688 89.757812 87.867188 89.710938 88.085938 89.710938 C 88.296875 89.710938 88.484375 89.757812 88.65625 89.859375 C 88.828125 89.960938 88.9375 90.101562 88.992188 90.289062 L 91.914062 99.632812 L 91.617188 100.765625 L 91.742188 100.804688 L 94.460938 90.710938 C 94.546875 90.40625 94.726562 90.15625 94.992188 89.976562 C 95.273438 89.796875 95.601562 89.703125 95.992188 89.703125 C 96.3125 89.703125 96.601562 89.757812 96.835938 89.875 L 93.367188 101.851562 C 93.257812 102.25 93.023438 102.5625 92.703125 102.78125 C 92.375 102.992188 91.953125 103.101562 91.445312 103.101562 L 87.851562 91.820312 L 87.726562 91.859375 L 87.992188 92.734375 L 84.6875 103.101562 C 84.179688 103.101562 83.773438 102.992188 83.445312 102.78125 Z M 83.453125 102.773438 "/>
<path style=" stroke:none;fill-rule:nonzero;fill:rgb(81.568629%,67.843139%,32.941177%);fill-opacity:1;" d="M 99.867188 91.164062 C 99.867188 90.695312 100.039062 90.34375 100.382812 90.085938 C 100.726562 89.828125 101.210938 89.703125 101.84375 89.703125 L 101.84375 101.648438 C 101.84375 102.101562 101.671875 102.460938 101.328125 102.71875 C 100.992188 102.976562 100.492188 103.101562 99.867188 103.101562 Z M 99.867188 91.164062 "/>
<path style=" stroke:none;fill-rule:nonzero;fill:rgb(81.568629%,67.843139%,32.941177%);fill-opacity:1;" d="M 107.625 102.65625 C 106.757812 102.359375 106.101562 101.953125 105.65625 101.460938 C 105.203125 100.960938 104.976562 100.421875 104.976562 99.851562 C 104.976562 99.382812 105.117188 99.015625 105.398438 98.765625 C 105.679688 98.507812 106.101562 98.382812 106.679688 98.382812 C 106.679688 99.445312 107.039062 100.25 107.757812 100.804688 C 108.46875 101.351562 109.476562 101.632812 110.765625 101.632812 C 112.054688 101.632812 112.945312 101.445312 113.601562 101.085938 C 114.265625 100.71875 114.59375 100.179688 114.59375 99.453125 C 114.59375 99.015625 114.46875 98.664062 114.226562 98.382812 C 113.976562 98.101562 113.570312 97.859375 112.984375 97.648438 C 112.398438 97.445312 111.554688 97.234375 110.46875 97.023438 C 109.179688 96.773438 108.148438 96.492188 107.398438 96.15625 C 106.640625 95.828125 106.085938 95.429688 105.734375 94.953125 C 105.382812 94.476562 105.203125 93.898438 105.203125 93.195312 C 105.203125 92.492188 105.421875 91.890625 105.867188 91.359375 C 106.304688 90.835938 106.9375 90.429688 107.75 90.140625 C 108.5625 89.851562 109.507812 89.710938 110.585938 89.710938 C 111.617188 89.710938 112.523438 89.835938 113.335938 90.09375 C 114.140625 90.351562 114.773438 90.710938 115.226562 91.179688 C 115.679688 91.640625 115.90625 92.171875 115.90625 92.75 C 115.90625 93.109375 115.773438 93.398438 115.523438 93.601562 C 115.257812 93.804688 114.859375 93.914062 114.304688 93.914062 C 114.148438 92.960938 113.773438 92.273438 113.179688 91.84375 C 112.578125 91.40625 111.710938 91.1875 110.578125 91.1875 C 109.445312 91.1875 108.640625 91.359375 108.054688 91.703125 C 107.460938 92.046875 107.164062 92.523438 107.164062 93.148438 C 107.164062 93.585938 107.273438 93.945312 107.492188 94.21875 C 107.710938 94.5 108.085938 94.742188 108.601562 94.9375 C 109.125 95.132812 109.867188 95.320312 110.820312 95.507812 C 112.25 95.78125 113.382812 96.085938 114.195312 96.429688 C 115.015625 96.757812 115.617188 97.179688 115.976562 97.65625 C 116.34375 98.140625 116.523438 98.742188 116.523438 99.445312 C 116.523438 100.578125 115.984375 101.460938 114.921875 102.117188 C 113.851562 102.773438 112.429688 103.101562 110.648438 103.101562 C 109.46875 103.101562 108.445312 102.945312 107.585938 102.648438 Z M 107.625 102.65625 "/>
<path style=" stroke:none;fill-rule:nonzero;fill:rgb(81.568629%,67.843139%,32.941177%);fill-opacity:1;" d="M 121.367188 102.65625 C 120.5 102.359375 119.84375 101.953125 119.398438 101.460938 C 118.945312 100.960938 118.71875 100.421875 118.71875 99.851562 C 118.71875 99.382812 118.859375 99.015625 119.132812 98.765625 C 119.414062 98.507812 119.84375 98.382812 120.421875 98.382812 C 120.421875 99.445312 120.78125 100.25 121.492188 100.804688 C 122.210938 101.351562 123.210938 101.632812 124.507812 101.632812 C 125.796875 101.632812 126.679688 101.445312 127.34375 101.085938 C 128.007812 100.71875 128.335938 100.179688 128.335938 99.453125 C 128.335938 99.015625 128.210938 98.664062 127.96875 98.382812 C 127.71875 98.101562 127.304688 97.859375 126.726562 97.648438 C 126.140625 97.445312 125.296875 97.234375 124.210938 97.023438 C 122.914062 96.773438 121.890625 96.492188 121.132812 96.15625 C 120.382812 95.828125 119.820312 95.429688 119.476562 94.953125 C 119.117188 94.476562 118.945312 93.898438 118.945312 93.195312 C 118.945312 92.492188 119.164062 91.890625 119.601562 91.359375 C 120.046875 90.835938 120.679688 90.429688 121.484375 90.140625 C 122.304688 89.851562 123.242188 89.710938 124.328125 89.710938 C 125.351562 89.710938 126.265625 89.835938 127.070312 90.09375 C 127.882812 90.351562 128.507812 90.710938 128.960938 91.179688 C 129.421875 91.640625 129.648438 92.171875 129.648438 92.75 C 129.648438 93.109375 129.515625 93.398438 129.257812 93.601562 C 129 93.804688 128.601562 93.914062 128.046875 93.914062 C 127.890625 92.960938 127.515625 92.273438 126.914062 91.84375 C 126.320312 91.40625 125.453125 91.1875 124.320312 91.1875 C 123.179688 91.1875 122.382812 91.359375 121.789062 91.703125 C 121.195312 92.046875 120.898438 92.523438 120.898438 93.148438 C 120.898438 93.585938 121.007812 93.945312 121.226562 94.21875 C 121.445312 94.5 121.820312 94.742188 122.34375 94.9375 C 122.867188 95.132812 123.609375 95.320312 124.554688 95.507812 C 125.992188 95.78125 127.117188 96.085938 127.9375 96.429688 C 128.757812 96.757812 129.351562 97.179688 129.71875 97.65625 C 130.085938 98.140625 130.257812 98.742188 130.257812 99.445312 C 130.257812 100.578125 129.726562 101.460938 128.664062 102.117188 C 127.59375 102.773438 126.171875 103.101562 124.390625 103.101562 C 123.210938 103.101562 122.1875 102.945312 121.320312 102.648438 Z M 121.367188 102.65625 "/>
<path style=" stroke:none;fill-rule:nonzero;fill:rgb(81.568629%,67.843139%,32.941177%);fill-opacity:1;" d="M 143.632812 102.304688 C 142.257812 101.726562 141.1875 100.90625 140.421875 99.851562 C 139.664062 98.804688 139.28125 97.617188 139.28125 96.28125 L 139.28125 90.054688 C 139.28125 88.71875 139.664062 87.539062 140.421875 86.492188 C 141.1875 85.453125 142.242188 84.648438 143.601562 84.078125 C 144.960938 83.507812 146.523438 83.210938 148.28125 83.210938 C 150.039062 83.210938 151.59375 83.460938 152.960938 83.953125 C 154.320312 84.445312 155.375 85.125 156.132812 86 C 156.898438 86.867188 157.28125 87.867188 157.28125 89 C 157.28125 89.554688 157.070312 89.992188 156.648438 90.304688 C 156.226562 90.625 155.679688 90.773438 154.984375 90.773438 C 154.835938 90.773438 154.617188 90.757812 154.320312 90.726562 C 154.367188 90.5 154.382812 90.148438 154.382812 89.664062 C 154.382812 88.875 154.132812 88.15625 153.617188 87.53125 C 153.101562 86.898438 152.382812 86.414062 151.453125 86.054688 C 150.523438 85.703125 149.460938 85.523438 148.273438 85.523438 C 147.085938 85.523438 146.054688 85.710938 145.132812 86.09375 C 144.21875 86.476562 143.507812 87.007812 142.992188 87.710938 C 142.476562 88.398438 142.21875 89.179688 142.21875 90.054688 L 142.21875 96.28125 C 142.21875 97.179688 142.476562 97.96875 142.992188 98.664062 C 143.507812 99.351562 144.226562 99.898438 145.148438 100.28125 C 146.085938 100.671875 147.148438 100.867188 148.335938 100.867188 C 149.523438 100.867188 150.617188 100.6875 151.5625 100.335938 C 152.507812 99.992188 153.234375 99.5 153.757812 98.875 C 154.273438 98.257812 154.539062 97.539062 154.539062 96.726562 C 154.539062 96.429688 154.523438 96.078125 154.476562 95.664062 C 154.773438 95.632812 154.984375 95.617188 155.109375 95.617188 C 155.804688 95.617188 156.367188 95.789062 156.789062 96.140625 C 157.21875 96.492188 157.4375 96.960938 157.4375 97.554688 C 157.4375 98.648438 157.046875 99.625 156.273438 100.476562 C 155.507812 101.335938 154.429688 101.992188 153.0625 102.46875 C 151.695312 102.945312 150.125 103.179688 148.34375 103.179688 C 146.5625 103.179688 145.023438 102.882812 143.632812 102.296875 Z M 143.632812 102.304688 "/>
<path style=" stroke:none;fill-rule:nonzero;fill:rgb(81.568629%,67.843139%,32.941177%);fill-opacity:1;" d="M 167.96875 102.351562 L 159.882812 83.476562 C 160.039062 83.398438 160.242188 83.335938 160.476562 83.289062 C 160.710938 83.242188 160.914062 83.226562 161.109375 83.226562 C 161.695312 83.226562 162.195312 83.351562 162.601562 83.601562 C 163.007812 83.84375 163.3125 84.195312 163.5 84.632812 L 169.242188 98.84375 L 168.671875 100.273438 L 168.921875 100.351562 L 175.28125 84.648438 C 175.46875 84.203125 175.773438 83.851562 176.195312 83.601562 C 176.617188 83.351562 177.109375 83.226562 177.703125 83.226562 C 178.0625 83.226562 178.460938 83.320312 178.929688 83.476562 L 170.835938 102.359375 C 170.734375 102.617188 170.554688 102.820312 170.296875 102.976562 C 170.046875 103.117188 169.742188 103.195312 169.382812 103.195312 C 168.695312 103.195312 168.226562 102.914062 167.976562 102.367188 Z M 167.96875 102.351562 "/>
<path style=" stroke:none;fill-rule:nonzero;fill:rgb(81.568629%,67.843139%,32.941177%);fill-opacity:1;" d="M 186.195312 102.304688 C 184.820312 101.726562 183.75 100.90625 182.984375 99.851562 C 182.226562 98.804688 181.84375 97.617188 181.84375 96.28125 L 181.84375 90.054688 C 181.84375 88.71875 182.226562 87.539062 182.984375 86.492188 C 183.75 85.453125 184.804688 84.648438 186.164062 84.078125 C 187.53125 83.507812 189.085938 83.210938 190.84375 83.210938 C 192.601562 83.210938 194.15625 83.460938 195.523438 83.953125 C 196.882812 84.445312 197.9375 85.125 198.703125 86 C 199.460938 86.867188 199.84375 87.867188 199.84375 89 C 199.84375 89.554688 199.632812 89.992188 199.210938 90.304688 C 198.789062 90.625 198.242188 90.773438 197.546875 90.773438 C 197.398438 90.773438 197.179688 90.757812 196.890625 90.726562 C 196.929688 90.5 196.945312 90.148438 196.945312 89.664062 C 196.945312 88.875 196.695312 88.15625 196.179688 87.53125 C 195.664062 86.898438 194.945312 86.414062 194.015625 86.054688 C 193.085938 85.703125 192.023438 85.523438 190.835938 85.523438 C 189.648438 85.523438 188.617188 85.710938 187.695312 86.09375 C 186.78125 86.476562 186.070312 87.007812 185.554688 87.710938 C 185.039062 88.398438 184.78125 89.179688 184.78125 90.054688 L 184.78125 96.28125 C 184.78125 97.179688 185.039062 97.96875 185.554688 98.664062 C 186.070312 99.351562 186.789062 99.898438 187.710938 100.28125 C 188.648438 100.671875 189.710938 100.867188 190.898438 100.867188 C 192.085938 100.867188 193.1875 100.6875 194.125 100.335938 C 195.070312 99.992188 195.796875 99.5 196.320312 98.875 C 196.84375 98.257812 197.101562 97.539062 197.101562 96.726562 C 197.101562 96.429688 197.085938 96.078125 197.039062 95.664062 C 197.335938 95.632812 197.546875 95.617188 197.671875 95.617188 C 198.367188 95.617188 198.929688 95.789062 199.351562 96.140625 C 199.78125 96.492188 200 96.960938 200 97.554688 C 200 98.648438 199.609375 99.625 198.835938 100.476562 C 198.070312 101.335938 196.992188 101.992188 195.632812 102.46875 C 194.257812 102.945312 192.6875 103.179688 190.90625 103.179688 C 189.125 103.179688 187.585938 102.882812 186.195312 102.296875 Z M 186.195312 102.304688 "/>
<path style=" stroke:none;fill-rule:nonzero;fill:rgb(81.568629%,67.843139%,32.941177%);fill-opacity:1;" d="M 61.757812 118.625 C 61.070312 118.335938 60.53125 117.929688 60.148438 117.40625 C 59.773438 116.882812 59.570312 116.289062 59.570312 115.617188 L 59.570312 112.5 C 59.570312 111.835938 59.773438 111.242188 60.148438 110.726562 C 60.53125 110.203125 61.0625 109.796875 61.742188 109.507812 C 62.421875 109.226562 63.210938 109.085938 64.078125 109.085938 C 64.953125 109.085938 65.734375 109.210938 66.414062 109.445312 C 67.085938 109.695312 67.625 110.03125 68.007812 110.460938 C 68.390625 110.898438 68.585938 111.40625 68.585938 111.960938 C 68.585938 112.242188 68.484375 112.460938 68.273438 112.617188 C 68.0625 112.773438 67.789062 112.851562 67.445312 112.851562 C 67.367188 112.851562 67.257812 112.84375 67.117188 112.820312 C 67.132812 112.710938 67.148438 112.53125 67.148438 112.289062 C 67.148438 111.898438 67.007812 111.539062 66.765625 111.21875 C 66.507812 110.90625 66.148438 110.664062 65.679688 110.476562 C 65.210938 110.304688 64.6875 110.21875 64.085938 110.21875 C 63.492188 110.21875 62.984375 110.3125 62.515625 110.507812 C 62.054688 110.695312 61.695312 110.960938 61.445312 111.3125 C 61.1875 111.664062 61.0625 112.054688 61.0625 112.484375 L 61.0625 115.601562 C 61.0625 116.046875 61.1875 116.445312 61.445312 116.789062 C 61.695312 117.140625 62.054688 117.414062 62.523438 117.609375 C 62.992188 117.804688 63.523438 117.90625 64.117188 117.90625 C 64.71875 117.90625 65.257812 117.820312 65.734375 117.640625 C 66.210938 117.460938 66.578125 117.21875 66.835938 116.90625 C 67.085938 116.601562 67.226562 116.242188 67.226562 115.828125 C 67.226562 115.679688 67.210938 115.5 67.195312 115.304688 C 67.335938 115.289062 67.445312 115.273438 67.507812 115.273438 C 67.84375 115.273438 68.125 115.351562 68.34375 115.53125 C 68.5625 115.710938 68.664062 115.945312 68.664062 116.242188 C 68.664062 116.789062 68.46875 117.273438 68.078125 117.703125 C 67.6875 118.132812 67.148438 118.453125 66.46875 118.695312 C 65.78125 118.929688 65 119.054688 64.109375 119.054688 C 63.226562 119.054688 62.445312 118.90625 61.757812 118.617188 Z M 61.757812 118.625 "/>
<path style=" stroke:none;fill-rule:nonzero;fill:rgb(81.568629%,67.843139%,32.941177%);fill-opacity:1;" d="M 70.023438 118.789062 C 69.90625 118.664062 69.84375 118.515625 69.84375 118.351562 C 69.84375 118.226562 69.875 118.101562 69.9375 117.976562 L 72.453125 112.609375 C 72.539062 112.421875 72.695312 112.335938 72.929688 112.335938 C 73.15625 112.335938 73.3125 112.421875 73.40625 112.609375 L 75.921875 117.976562 C 75.984375 118.101562 76.015625 118.226562 76.015625 118.351562 C 76.015625 118.515625 75.953125 118.65625 75.835938 118.78125 C 75.71875 118.90625 75.546875 118.984375 75.335938 119.023438 L 74.429688 117.070312 L 71.414062 117.070312 L 70.515625 119.023438 C 70.304688 118.984375 70.140625 118.90625 70.015625 118.78125 Z M 74.140625 116.320312 L 72.789062 113.273438 L 72.695312 113.304688 L 72.882812 113.726562 L 71.726562 116.328125 L 74.140625 116.328125 Z M 74.140625 116.320312 "/>
<path style=" stroke:none;fill-rule:nonzero;fill:rgb(81.568629%,67.843139%,32.941177%);fill-opacity:1;" d="M 77.226562 112.820312 C 77.226562 112.703125 77.273438 112.601562 77.367188 112.523438 C 77.460938 112.445312 77.585938 112.40625 77.734375 112.40625 L 80.632812 112.40625 C 81.3125 112.40625 81.851562 112.585938 82.257812 112.9375 C 82.664062 113.289062 82.867188 113.757812 82.867188 114.34375 C 82.867188 115.070312 82.507812 115.59375 81.789062 115.898438 L 81.789062 115.929688 C 82.101562 116.046875 82.351562 116.226562 82.507812 116.460938 C 82.679688 116.710938 82.757812 116.992188 82.757812 117.335938 L 82.757812 118.304688 C 82.757812 118.53125 82.671875 118.71875 82.507812 118.84375 C 82.351562 118.96875 82.101562 119.03125 81.773438 119.03125 L 81.773438 117.398438 C 81.773438 117.03125 81.679688 116.757812 81.492188 116.570312 C 81.304688 116.382812 81.03125 116.28125 80.664062 116.28125 L 78.195312 116.28125 L 78.195312 118.304688 C 78.195312 118.53125 78.117188 118.71875 77.953125 118.84375 C 77.789062 118.96875 77.539062 119.03125 77.21875 119.03125 L 77.21875 112.828125 Z M 80.609375 115.515625 C 81 115.515625 81.304688 115.414062 81.53125 115.195312 C 81.757812 114.992188 81.867188 114.703125 81.867188 114.328125 C 81.867188 113.953125 81.765625 113.664062 81.546875 113.476562 C 81.328125 113.273438 81.015625 113.179688 80.609375 113.179688 L 78.210938 113.179688 L 78.210938 115.515625 Z M 80.609375 115.515625 "/>
<path style=" stroke:none;fill-rule:nonzero;fill:rgb(81.568629%,67.843139%,32.941177%);fill-opacity:1;" d="M 84.382812 118.828125 C 84.28125 118.75 84.242188 118.648438 84.242188 118.53125 L 84.242188 112.828125 C 84.242188 112.710938 84.28125 112.609375 84.375 112.53125 C 84.46875 112.453125 84.59375 112.414062 84.742188 112.414062 L 87.210938 112.414062 C 87.804688 112.414062 88.328125 112.515625 88.789062 112.710938 C 89.242188 112.914062 89.601562 113.1875 89.851562 113.539062 C 90.109375 113.898438 90.234375 114.3125 90.234375 114.773438 L 90.234375 116.554688 C 90.234375 117.015625 90.101562 117.429688 89.851562 117.789062 C 89.601562 118.148438 89.242188 118.429688 88.78125 118.632812 C 88.320312 118.835938 87.804688 118.9375 87.210938 118.9375 L 84.742188 118.9375 C 84.601562 118.9375 84.484375 118.898438 84.382812 118.820312 Z M 87.101562 118.179688 C 87.773438 118.179688 88.296875 118.039062 88.679688 117.75 C 89.0625 117.46875 89.242188 117.070312 89.242188 116.570312 L 89.242188 114.757812 C 89.242188 114.257812 89.0625 113.867188 88.679688 113.585938 C 88.296875 113.3125 87.773438 113.171875 87.101562 113.171875 L 85.226562 113.171875 L 85.226562 118.164062 L 87.101562 118.164062 Z M 87.101562 118.179688 "/>
<path style=" stroke:none;fill-rule:nonzero;fill:rgb(81.568629%,67.843139%,32.941177%);fill-opacity:1;" d="M 91.8125 113.054688 C 91.8125 112.820312 91.898438 112.640625 92.070312 112.515625 C 92.242188 112.390625 92.484375 112.320312 92.804688 112.320312 L 92.804688 118.289062 C 92.804688 118.523438 92.71875 118.703125 92.546875 118.828125 C 92.375 118.953125 92.132812 119.023438 91.8125 119.023438 Z M 91.8125 113.054688 "/>
<path style=" stroke:none;fill-rule:nonzero;fill:rgb(81.568629%,67.843139%,32.941177%);fill-opacity:1;" d="M 95.695312 118.71875 C 95.242188 118.515625 94.882812 118.242188 94.617188 117.882812 C 94.351562 117.523438 94.226562 117.125 94.226562 116.695312 L 94.226562 114.640625 C 94.226562 114.203125 94.359375 113.804688 94.617188 113.460938 C 94.867188 113.109375 95.242188 112.828125 95.695312 112.625 C 96.15625 112.421875 96.679688 112.320312 97.257812 112.320312 C 97.84375 112.320312 98.375 112.421875 98.835938 112.625 C 99.289062 112.828125 99.648438 113.109375 99.914062 113.460938 C 100.179688 113.804688 100.304688 114.203125 100.304688 114.640625 L 100.304688 116.695312 C 100.304688 117.125 100.171875 117.523438 99.914062 117.882812 C 99.65625 118.242188 99.289062 118.515625 98.835938 118.71875 C 98.367188 118.921875 97.84375 119.023438 97.257812 119.023438 C 96.679688 119.023438 96.15625 118.921875 95.695312 118.71875 Z M 98.789062 117.835938 C 99.148438 117.546875 99.328125 117.164062 99.328125 116.679688 L 99.328125 114.664062 C 99.328125 114.179688 99.148438 113.804688 98.789062 113.523438 C 98.421875 113.242188 97.914062 113.09375 97.257812 113.09375 C 96.609375 113.09375 96.109375 113.234375 95.742188 113.523438 C 95.382812 113.804688 95.195312 114.179688 95.195312 114.664062 L 95.195312 116.679688 C 95.195312 117.164062 95.382812 117.546875 95.742188 117.835938 C 96.109375 118.117188 96.617188 118.257812 97.257812 118.257812 C 97.90625 118.257812 98.421875 118.117188 98.789062 117.835938 Z M 98.789062 117.835938 "/>
<path style=" stroke:none;fill-rule:nonzero;fill:rgb(81.568629%,67.843139%,32.941177%);fill-opacity:1;" d="M 104.679688 118.648438 L 100.632812 109.210938 C 100.710938 109.179688 100.804688 109.148438 100.929688 109.117188 C 101.039062 109.101562 101.140625 109.085938 101.234375 109.085938 C 101.53125 109.085938 101.78125 109.148438 101.984375 109.273438 C 102.1875 109.398438 102.335938 109.570312 102.429688 109.796875 L 105.296875 116.898438 L 105.015625 117.609375 L 105.140625 117.648438 L 108.320312 109.789062 C 108.414062 109.5625 108.570312 109.390625 108.773438 109.273438 C 108.984375 109.148438 109.234375 109.085938 109.53125 109.085938 C 109.710938 109.085938 109.914062 109.117188 110.148438 109.210938 L 106.101562 118.640625 C 106.039062 118.773438 105.960938 118.875 105.835938 118.945312 C 105.710938 119.023438 105.554688 119.054688 105.382812 119.054688 C 105.039062 119.054688 104.796875 118.914062 104.679688 118.632812 Z M 104.679688 118.648438 "/>
<path style=" stroke:none;fill-rule:nonzero;fill:rgb(81.568629%,67.843139%,32.941177%);fill-opacity:1;" d="M 109.835938 118.773438 C 109.695312 118.640625 109.632812 118.484375 109.632812 118.304688 C 109.632812 118.179688 109.664062 118.039062 109.742188 117.898438 L 112.445312 112.117188 C 112.539062 111.914062 112.710938 111.820312 112.96875 111.820312 C 113.210938 111.820312 113.382812 111.914062 113.476562 112.117188 L 116.179688 117.898438 C 116.25 118.039062 116.28125 118.164062 116.28125 118.304688 C 116.28125 118.476562 116.21875 118.640625 116.085938 118.773438 C 115.953125 118.90625 115.789062 118.992188 115.554688 119.039062 L 114.585938 116.9375 L 111.335938 116.9375 L 110.359375 119.039062 C 110.132812 119 109.960938 118.914062 109.835938 118.78125 Z M 114.257812 116.125 L 112.796875 112.84375 L 112.703125 112.875 L 112.90625 113.335938 L 111.664062 116.125 Z M 114.257812 116.125 "/>
<path style=" stroke:none;fill-rule:nonzero;fill:rgb(81.568629%,67.843139%,32.941177%);fill-opacity:1;" d="M 118.523438 118.789062 C 118.054688 118.625 117.703125 118.414062 117.460938 118.148438 C 117.226562 117.875 117.101562 117.59375 117.101562 117.28125 C 117.101562 117.023438 117.179688 116.835938 117.320312 116.695312 C 117.476562 116.554688 117.703125 116.492188 118.015625 116.492188 C 118.015625 117.054688 118.210938 117.492188 118.59375 117.789062 C 118.976562 118.085938 119.523438 118.242188 120.210938 118.242188 C 120.898438 118.242188 121.382812 118.132812 121.742188 117.945312 C 122.101562 117.75 122.273438 117.453125 122.273438 117.0625 C 122.273438 116.835938 122.210938 116.632812 122.078125 116.492188 C 121.945312 116.34375 121.71875 116.210938 121.414062 116.101562 C 121.101562 115.992188 120.648438 115.875 120.054688 115.765625 C 119.367188 115.632812 118.8125 115.476562 118.398438 115.304688 C 117.992188 115.117188 117.695312 114.898438 117.507812 114.65625 C 117.320312 114.398438 117.226562 114.085938 117.226562 113.710938 C 117.226562 113.34375 117.335938 113.007812 117.585938 112.726562 C 117.820312 112.4375 118.15625 112.226562 118.59375 112.070312 C 119.023438 111.914062 119.539062 111.835938 120.125 111.835938 C 120.679688 111.835938 121.164062 111.898438 121.601562 112.039062 C 122.039062 112.164062 122.382812 112.367188 122.625 112.617188 C 122.867188 112.867188 122.992188 113.15625 122.992188 113.460938 C 122.992188 113.664062 122.914062 113.820312 122.773438 113.921875 C 122.632812 114.03125 122.421875 114.085938 122.125 114.085938 C 122.039062 113.585938 121.835938 113.210938 121.515625 112.976562 C 121.195312 112.742188 120.734375 112.625 120.117188 112.625 C 119.507812 112.625 119.070312 112.71875 118.757812 112.898438 C 118.4375 113.085938 118.28125 113.34375 118.28125 113.679688 C 118.28125 113.914062 118.34375 114.101562 118.460938 114.25 C 118.578125 114.398438 118.78125 114.53125 119.054688 114.640625 C 119.335938 114.75 119.742188 114.851562 120.257812 114.945312 C 121.023438 115.101562 121.632812 115.257812 122.078125 115.4375 C 122.523438 115.617188 122.835938 115.84375 123.039062 116.101562 C 123.226562 116.359375 123.328125 116.679688 123.328125 117.0625 C 123.328125 117.671875 123.039062 118.148438 122.46875 118.5 C 121.890625 118.851562 121.132812 119.03125 120.164062 119.03125 C 119.523438 119.03125 118.976562 118.953125 118.515625 118.789062 Z M 118.523438 118.789062 "/>
<path style=" stroke:none;fill-rule:nonzero;fill:rgb(81.568629%,67.843139%,32.941177%);fill-opacity:1;" d="M 126.09375 118.71875 C 125.59375 118.507812 125.203125 118.210938 124.929688 117.835938 C 124.664062 117.453125 124.523438 117.023438 124.523438 116.539062 L 124.523438 114.296875 C 124.523438 113.820312 124.664062 113.390625 124.929688 113.015625 C 125.203125 112.640625 125.59375 112.351562 126.085938 112.148438 C 126.570312 111.929688 127.132812 111.835938 127.773438 111.835938 C 128.414062 111.835938 128.96875 111.914062 129.460938 112.101562 C 129.953125 112.273438 130.335938 112.515625 130.617188 112.835938 C 130.882812 113.15625 131.023438 113.507812 131.023438 113.921875 C 131.023438 114.125 130.945312 114.28125 130.796875 114.398438 C 130.648438 114.515625 130.445312 114.570312 130.195312 114.570312 C 130.148438 114.570312 130.070312 114.570312 129.960938 114.546875 C 129.976562 114.46875 129.984375 114.335938 129.984375 114.164062 C 129.984375 113.882812 129.890625 113.617188 129.703125 113.398438 C 129.515625 113.171875 129.257812 112.992188 128.921875 112.867188 C 128.585938 112.742188 128.210938 112.671875 127.773438 112.671875 C 127.335938 112.671875 126.96875 112.742188 126.632812 112.875 C 126.304688 113.007812 126.046875 113.210938 125.859375 113.460938 C 125.671875 113.710938 125.578125 113.992188 125.578125 114.304688 L 125.578125 116.554688 C 125.578125 116.867188 125.671875 117.15625 125.859375 117.40625 C 126.046875 117.65625 126.304688 117.851562 126.632812 117.992188 C 126.96875 118.132812 127.351562 118.195312 127.789062 118.195312 C 128.226562 118.195312 128.617188 118.132812 128.953125 118.007812 C 129.296875 117.882812 129.5625 117.703125 129.75 117.476562 C 129.9375 117.25 130.03125 116.992188 130.03125 116.695312 C 130.03125 116.585938 130.03125 116.460938 130.007812 116.320312 C 130.117188 116.304688 130.179688 116.296875 130.226562 116.296875 C 130.476562 116.296875 130.679688 116.359375 130.835938 116.492188 C 130.992188 116.617188 131.070312 116.789062 131.070312 117 C 131.070312 117.398438 130.929688 117.75 130.648438 118.054688 C 130.367188 118.367188 129.984375 118.601562 129.492188 118.773438 C 128.992188 118.945312 128.429688 119.03125 127.789062 119.03125 C 127.148438 119.03125 126.585938 118.921875 126.09375 118.710938 Z M 126.09375 118.71875 "/>
<path style=" stroke:none;fill-rule:nonzero;fill:rgb(81.568629%,67.843139%,32.941177%);fill-opacity:1;" d="M 133.882812 118.710938 C 133.398438 118.492188 133.015625 118.195312 132.742188 117.828125 C 132.476562 117.445312 132.335938 117.023438 132.335938 116.554688 L 132.335938 112.609375 C 132.335938 112.351562 132.429688 112.164062 132.601562 112.023438 C 132.78125 111.898438 133.046875 111.828125 133.398438 111.828125 L 133.398438 116.554688 C 133.398438 117.039062 133.59375 117.4375 133.976562 117.734375 C 134.367188 118.039062 134.875 118.179688 135.507812 118.179688 C 136.132812 118.179688 136.640625 118.039062 137.023438 117.734375 C 137.40625 117.429688 137.601562 117.03125 137.601562 116.554688 L 137.601562 112.601562 C 137.601562 112.351562 137.695312 112.148438 137.867188 112.023438 C 138.054688 111.890625 138.3125 111.820312 138.664062 111.820312 L 138.664062 116.539062 C 138.664062 117.007812 138.53125 117.4375 138.257812 117.8125 C 137.992188 118.195312 137.617188 118.484375 137.125 118.695312 C 136.640625 118.914062 136.101562 119.015625 135.507812 119.015625 C 134.914062 119.015625 134.367188 118.90625 133.882812 118.695312 Z M 133.882812 118.710938 "/>
<path style=" stroke:none;fill-rule:nonzero;fill:rgb(81.568629%,67.843139%,32.941177%);fill-opacity:1;" d="M 140.351562 118.796875 C 140.242188 118.703125 140.1875 118.585938 140.1875 118.445312 L 140.1875 112.601562 C 140.1875 112.085938 140.546875 111.820312 141.257812 111.820312 L 141.257812 118.101562 L 144.734375 118.101562 C 144.992188 118.101562 145.195312 118.179688 145.351562 118.320312 C 145.492188 118.460938 145.570312 118.671875 145.570312 118.9375 L 140.75 118.9375 C 140.601562 118.9375 140.46875 118.890625 140.359375 118.789062 Z M 140.351562 118.796875 "/>
<path style=" stroke:none;fill-rule:nonzero;fill:rgb(81.568629%,67.843139%,32.941177%);fill-opacity:1;" d="M 146.40625 118.773438 C 146.273438 118.640625 146.210938 118.484375 146.210938 118.304688 C 146.210938 118.179688 146.242188 118.039062 146.3125 117.898438 L 149.023438 112.117188 C 149.117188 111.914062 149.28125 111.820312 149.539062 111.820312 C 149.78125 111.820312 149.953125 111.914062 150.046875 112.117188 L 152.757812 117.898438 C 152.820312 118.039062 152.851562 118.164062 152.851562 118.304688 C 152.851562 118.476562 152.789062 118.640625 152.664062 118.773438 C 152.523438 118.90625 152.351562 118.992188 152.132812 119.039062 L 151.15625 116.9375 L 147.90625 116.9375 L 146.929688 119.039062 C 146.710938 119 146.53125 118.914062 146.40625 118.78125 Z M 150.835938 116.125 L 149.367188 112.84375 L 149.273438 112.875 L 149.476562 113.335938 L 148.234375 116.125 Z M 150.835938 116.125 "/>
<path style=" stroke:none;fill-rule:nonzero;fill:rgb(81.568629%,67.843139%,32.941177%);fill-opacity:1;" d="M 154.164062 112.351562 C 154.164062 112.226562 154.210938 112.117188 154.320312 112.039062 C 154.414062 111.945312 154.554688 111.914062 154.710938 111.914062 L 157.835938 111.914062 C 158.570312 111.914062 159.148438 112.101562 159.585938 112.476562 C 160.023438 112.859375 160.242188 113.359375 160.242188 113.984375 C 160.242188 114.78125 159.851562 115.335938 159.070312 115.664062 L 159.070312 115.695312 C 159.414062 115.820312 159.671875 116.015625 159.851562 116.273438 C 160.023438 116.523438 160.117188 116.835938 160.117188 117.210938 L 160.117188 118.242188 C 160.117188 118.5 160.023438 118.695312 159.851562 118.828125 C 159.671875 118.960938 159.40625 119.03125 159.054688 119.03125 L 159.054688 117.273438 C 159.054688 116.882812 158.953125 116.585938 158.75 116.375 C 158.546875 116.171875 158.257812 116.070312 157.867188 116.070312 L 155.210938 116.070312 L 155.210938 118.242188 C 155.210938 118.5 155.125 118.695312 154.945312 118.828125 C 154.773438 118.960938 154.507812 119.03125 154.164062 119.03125 Z M 157.796875 115.257812 C 158.210938 115.257812 158.539062 115.132812 158.78125 114.914062 C 159.023438 114.6875 159.148438 114.375 159.148438 113.976562 C 159.148438 113.585938 159.03125 113.273438 158.796875 113.054688 C 158.570312 112.835938 158.226562 112.734375 157.789062 112.734375 L 155.203125 112.734375 L 155.203125 115.257812 Z M 157.796875 115.257812 "/>
<path style=" stroke:none;fill-rule:nonzero;fill:rgb(81.568629%,67.843139%,32.941177%);fill-opacity:1;" d="M 164.257812 118.625 C 163.570312 118.335938 163.03125 117.929688 162.648438 117.40625 C 162.265625 116.882812 162.070312 116.289062 162.070312 115.617188 L 162.070312 112.5 C 162.070312 111.835938 162.265625 111.242188 162.648438 110.726562 C 163.03125 110.203125 163.554688 109.796875 164.242188 109.507812 C 164.921875 109.226562 165.710938 109.085938 166.578125 109.085938 C 167.445312 109.085938 168.234375 109.210938 168.914062 109.445312 C 169.585938 109.695312 170.125 110.03125 170.507812 110.460938 C 170.890625 110.898438 171.085938 111.40625 171.085938 111.960938 C 171.085938 112.242188 170.976562 112.460938 170.773438 112.617188 C 170.5625 112.773438 170.289062 112.851562 169.9375 112.851562 C 169.867188 112.851562 169.75 112.84375 169.617188 112.820312 C 169.632812 112.710938 169.648438 112.53125 169.648438 112.289062 C 169.648438 111.898438 169.507812 111.539062 169.257812 111.21875 C 169.007812 110.90625 168.648438 110.664062 168.179688 110.476562 C 167.710938 110.304688 167.1875 110.21875 166.585938 110.21875 C 165.992188 110.21875 165.476562 110.3125 165.015625 110.507812 C 164.554688 110.695312 164.195312 110.960938 163.945312 111.3125 C 163.679688 111.664062 163.554688 112.054688 163.554688 112.484375 L 163.554688 115.601562 C 163.554688 116.046875 163.679688 116.445312 163.945312 116.789062 C 164.195312 117.140625 164.554688 117.414062 165.023438 117.609375 C 165.492188 117.804688 166.015625 117.90625 166.617188 117.90625 C 167.210938 117.90625 167.757812 117.820312 168.234375 117.640625 C 168.710938 117.460938 169.078125 117.21875 169.335938 116.90625 C 169.585938 116.601562 169.71875 116.242188 169.71875 115.828125 C 169.71875 115.679688 169.710938 115.5 169.6875 115.304688 C 169.835938 115.289062 169.9375 115.273438 170 115.273438 C 170.34375 115.273438 170.625 115.351562 170.84375 115.53125 C 171.054688 115.710938 171.164062 115.945312 171.164062 116.242188 C 171.164062 116.789062 170.960938 117.273438 170.578125 117.703125 C 170.1875 118.132812 169.648438 118.453125 168.96875 118.695312 C 168.28125 118.929688 167.492188 119.054688 166.609375 119.054688 C 165.726562 119.054688 164.945312 118.90625 164.257812 118.617188 Z M 164.257812 118.625 "/>
<path style=" stroke:none;fill-rule:nonzero;fill:rgb(81.568629%,67.843139%,32.941177%);fill-opacity:1;" d="M 172.835938 118.796875 C 172.726562 118.703125 172.671875 118.585938 172.671875 118.445312 L 172.671875 112.601562 C 172.671875 112.085938 173.023438 111.820312 173.734375 111.820312 L 173.734375 118.101562 L 177.210938 118.101562 C 177.476562 118.101562 177.679688 118.179688 177.828125 118.320312 C 177.96875 118.460938 178.046875 118.671875 178.046875 118.9375 L 173.226562 118.9375 C 173.085938 118.9375 172.945312 118.890625 172.835938 118.789062 Z M 172.835938 118.796875 "/>
<path style=" stroke:none;fill-rule:nonzero;fill:rgb(81.568629%,67.843139%,32.941177%);fill-opacity:1;" d="M 179.453125 112.601562 C 179.453125 112.351562 179.546875 112.164062 179.734375 112.023438 C 179.921875 111.898438 180.1875 111.828125 180.523438 111.828125 L 180.523438 118.257812 C 180.523438 118.5 180.429688 118.695312 180.242188 118.828125 C 180.054688 118.960938 179.789062 119.03125 179.453125 119.03125 Z M 179.453125 112.601562 "/>
<path style=" stroke:none;fill-rule:nonzero;fill:rgb(81.568629%,67.843139%,32.941177%);fill-opacity:1;" d="M 182.335938 112.632812 C 182.335938 112.382812 182.414062 112.179688 182.601562 112.039062 C 182.773438 111.898438 183.023438 111.820312 183.335938 111.820312 L 187.726562 117.742188 L 187.804688 117.679688 L 187.484375 117.195312 L 187.484375 111.820312 C 187.835938 111.820312 188.085938 111.890625 188.265625 112.023438 C 188.445312 112.148438 188.53125 112.351562 188.53125 112.601562 L 188.53125 118.289062 C 188.53125 118.5 188.445312 118.671875 188.273438 118.8125 C 188.101562 118.953125 187.882812 119.023438 187.625 119.023438 L 183.125 112.96875 L 183.046875 113.03125 L 183.375 113.507812 L 183.375 118.242188 C 183.375 118.492188 183.289062 118.6875 183.109375 118.820312 C 182.929688 118.953125 182.664062 119.023438 182.320312 119.023438 L 182.320312 112.625 Z M 182.335938 112.632812 "/>
<path style=" stroke:none;fill-rule:nonzero;fill:rgb(81.568629%,67.843139%,32.941177%);fill-opacity:1;" d="M 190.34375 112.601562 C 190.34375 112.351562 190.4375 112.164062 190.625 112.023438 C 190.8125 111.898438 191.078125 111.828125 191.414062 111.828125 L 191.414062 118.257812 C 191.414062 118.5 191.320312 118.695312 191.132812 118.828125 C 190.945312 118.960938 190.679688 119.03125 190.34375 119.03125 Z M 190.34375 112.601562 "/>
<path style=" stroke:none;fill-rule:nonzero;fill:rgb(81.568629%,67.843139%,32.941177%);fill-opacity:1;" d="M 194.6875 118.71875 C 194.1875 118.507812 193.804688 118.210938 193.523438 117.835938 C 193.257812 117.453125 193.117188 117.023438 193.117188 116.539062 L 193.117188 114.296875 C 193.117188 113.820312 193.257812 113.390625 193.523438 113.015625 C 193.804688 112.640625 194.1875 112.351562 194.679688 112.148438 C 195.164062 111.929688 195.726562 111.835938 196.367188 111.835938 C 197.007812 111.835938 197.5625 111.914062 198.054688 112.101562 C 198.546875 112.273438 198.929688 112.515625 199.210938 112.835938 C 199.476562 113.15625 199.617188 113.507812 199.617188 113.921875 C 199.617188 114.125 199.539062 114.28125 199.390625 114.398438 C 199.242188 114.515625 199.039062 114.570312 198.789062 114.570312 C 198.742188 114.570312 198.664062 114.570312 198.554688 114.546875 C 198.570312 114.46875 198.578125 114.335938 198.578125 114.164062 C 198.578125 113.882812 198.484375 113.617188 198.296875 113.398438 C 198.109375 113.171875 197.851562 112.992188 197.523438 112.867188 C 197.179688 112.742188 196.804688 112.671875 196.367188 112.671875 C 195.929688 112.671875 195.570312 112.742188 195.226562 112.875 C 194.898438 113.007812 194.640625 113.210938 194.453125 113.460938 C 194.265625 113.710938 194.171875 113.992188 194.171875 114.304688 L 194.171875 116.554688 C 194.171875 116.867188 194.265625 117.15625 194.453125 117.40625 C 194.640625 117.65625 194.898438 117.851562 195.226562 117.992188 C 195.570312 118.132812 195.945312 118.195312 196.382812 118.195312 C 196.820312 118.195312 197.210938 118.132812 197.546875 118.007812 C 197.890625 117.882812 198.15625 117.703125 198.34375 117.476562 C 198.53125 117.25 198.625 116.992188 198.625 116.695312 C 198.625 116.585938 198.625 116.460938 198.601562 116.320312 C 198.710938 116.304688 198.773438 116.296875 198.820312 116.296875 C 199.070312 116.296875 199.273438 116.359375 199.429688 116.492188 C 199.585938 116.617188 199.664062 116.789062 199.664062 117 C 199.664062 117.398438 199.523438 117.75 199.242188 118.054688 C 198.960938 118.367188 198.578125 118.601562 198.085938 118.773438 C 197.585938 118.945312 197.023438 119.03125 196.382812 119.03125 C 195.742188 119.03125 195.179688 118.921875 194.6875 118.710938 Z M 194.6875 118.71875 "/>
</g>
</svg>
