<svg xmlns="http://www.w3.org/2000/svg" version="1.0" preserveAspectRatio="xMidYMid meet" viewBox="107.16 94 280.34 55.88">

<g transform="translate(0.000000,260.000000) scale(0.100000,-0.100000)" fill="#000000" stroke="none">
<path d="M2350 1620 l0 -40 40 0 40 0 0 40 0 40 -40 0 -40 0 0 -40z"/>
<path d="M3640 1409 c0 -122 5 -229 11 -255 11 -43 13 -44 50 -44 44 0 46 6 24 70 -11 32 -15 90 -15 241 l0 199 -35 0 -35 0 0 -211z"/>
<path d="M1074 1577 c-2 -7 -3 -114 -2 -237 l3 -225 135 0 c130 0 137 1 183 28 73 43 101 94 106 189 2 58 -1 92 -14 124 -20 52 -79 106 -134 122 -54 17 -270 16 -277 -1z m247 -68 c80 -27 124 -117 100 -205 -23 -87 -71 -115 -195 -118 l-71 -1 -3 155 c-1 85 0 160 2 167 7 17 119 18 167 2z"/>
<path d="M1665 1491 c-147 -66 -154 -291 -13 -360 51 -24 159 -28 218 -8 32 11 35 16 38 55 l3 43 -32 -16 c-43 -23 -128 -30 -172 -16 -34 12 -77 52 -77 72 0 5 66 9 146 9 l146 0 -4 64 c-5 78 -34 127 -94 156 -50 25 -107 25 -159 1z m152 -86 c13 -14 23 -35 23 -46 0 -18 -8 -19 -99 -19 -55 0 -102 4 -105 8 -8 13 32 72 57 82 38 17 99 4 124 -25z"/>
<path d="M2084 1492 c-139 -65 -160 -256 -38 -349 31 -23 49 -28 109 -31 96 -5 135 13 135 63 0 39 -8 42 -52 19 -40 -21 -120 -14 -149 12 -80 71 -51 195 52 225 37 12 60 7 141 -29 5 -2 8 12 8 32 0 27 -6 40 -26 53 -39 25 -130 28 -180 5z"/>
<path d="M2623 1490 c-38 -17 -44 -17 -51 -4 -6 10 -19 14 -38 12 l-29 -3 0 -190 0 -190 38 -3 37 -3 0 108 c0 169 23 218 102 218 30 0 45 -6 59 -24 17 -20 19 -41 19 -162 l0 -139 39 0 38 0 5 130 c4 111 8 135 25 158 27 37 63 48 101 33 44 -18 52 -48 52 -191 l0 -130 40 0 40 0 0 145 c0 158 -7 185 -55 223 -51 41 -151 37 -207 -8 -25 -19 -26 -19 -43 0 -18 20 -73 40 -110 40 -11 0 -39 -9 -62 -20z"/>
<path d="M3296 1500 c-87 -27 -152 -120 -144 -208 10 -99 75 -174 163 -188 55 -8 95 1 140 32 l36 24 9 -25 c8 -20 16 -25 46 -25 35 0 36 1 29 28 -4 15 -9 102 -12 195 l-5 167 -34 0 c-30 0 -34 -3 -34 -27 0 -25 -1 -25 -19 -9 -42 38 -117 53 -175 36z m125 -87 c32 -19 59 -68 59 -107 0 -112 -122 -168 -204 -95 -60 52 -61 126 -1 186 27 27 41 33 75 33 23 0 55 -8 71 -17z"/>
<path d="M2350 1305 l0 -195 40 0 40 0 0 195 0 195 -40 0 -40 0 0 -195z"/>
<path d="M3797 1194 c-4 -4 -7 -25 -7 -46 l0 -39 43 3 c42 3 42 3 42 43 0 39 -1 40 -35 43 -20 2 -39 0 -43 -4z"/>
</g>
</svg>