<?xml version="1.0" encoding="UTF-8"?>
<svg xmlns="http://www.w3.org/2000/svg" xmlns:xlink="http://www.w3.org/1999/xlink" width="200px" height="px" viewBox="0 0 200 200" version="1.1">
<g id="surface1">
<path style=" stroke:none;fill-rule:nonzero;fill:rgb(0%,0%,0%);fill-opacity:1;" d="M 12.664062 85.335938 L 0.0234375 85.335938 L 0.0234375 118.710938 L 12.664062 118.710938 C 24.554688 118.710938 30.539062 111.570312 30.539062 101.984375 C 30.539062 92.398438 24.554688 85.335938 12.664062 85.335938 M 12.664062 113.648438 L 5.507812 113.648438 L 5.507812 90.359375 L 12.664062 90.359375 C 20.1875 90.359375 25.007812 93.96875 25.007812 101.945312 C 25.007812 109.96875 20.1875 113.648438 12.664062 113.648438 M 60.070312 101.835938 C 58.984375 95.0625 54.09375 91.015625 47.164062 91.015625 C 39.757812 91.015625 33.695312 97.25 33.664062 105.046875 C 33.617188 113.0625 39.492188 119.078125 48.859375 119.078125 C 52.171875 119.078125 57.289062 118.023438 59.546875 116.195312 L 59.546875 110.992188 C 57.140625 112.632812 53.265625 114.007812 48.898438 114.007812 C 43.367188 114.007812 39.835938 111.539062 39.34375 107.304688 L 60.070312 107.304688 Z M 39.414062 102.710938 C 40.242188 98.601562 43.070312 95.867188 47.242188 95.867188 C 51.460938 95.867188 54.398438 98.632812 54.804688 102.710938 Z M 63.195312 105.046875 C 63.164062 112.851562 69.148438 119.078125 77.648438 119.078125 C 80.804688 119.078125 83.859375 118.132812 86.039062 116.5625 L 86.039062 111.101562 C 84.34375 112.523438 81.375 114.007812 77.835938 114.007812 C 71.773438 114.007812 68.617188 110.039062 68.617188 105.046875 C 68.617188 100.054688 72.304688 96.085938 77.945312 96.085938 C 81.375 96.085938 84.34375 97.578125 86.039062 99 L 86.039062 93.460938 C 83.742188 91.851562 80.804688 91.015625 77.757812 91.015625 C 69.671875 91.015625 63.164062 97.289062 63.195312 105.046875 M 96.3125 91.78125 L 90.820312 91.78125 L 90.820312 118.710938 L 96.3125 118.710938 Z M 101.914062 118.679688 L 107.601562 118.679688 L 107.601562 104.0625 C 107.601562 98.742188 110.6875 95.976562 114.5625 95.976562 C 117.875 95.976562 120.398438 98.195312 120.398438 103.078125 L 120.398438 118.710938 L 126.078125 118.710938 L 126.078125 104.0625 C 126.078125 98.523438 129.195312 95.976562 132.851562 95.976562 C 136.5 95.976562 138.796875 98.195312 138.796875 103.078125 L 138.796875 118.710938 L 144.476562 118.710938 L 144.476562 101.617188 C 144.476562 94.992188 140.117188 91.164062 133.867188 91.164062 C 129.648438 91.164062 125.664062 92.914062 124.085938 95.867188 C 122.804688 92.875 118.960938 91.164062 115.320312 91.164062 C 112.226562 91.164062 108.539062 92.398438 106.921875 94.992188 L 106.921875 91.78125 L 101.914062 91.78125 Z M 177.515625 112.632812 L 177.515625 91.78125 L 172.289062 91.78125 L 172.289062 95.460938 C 169.875 92.546875 166.1875 91.234375 162.351562 91.234375 C 154.976562 91.234375 148.273438 96.882812 148.273438 105.304688 C 148.273438 113.71875 154.976562 119.335938 162.351562 119.335938 C 166.226562 119.335938 169.992188 117.945312 172.4375 114.8125 L 173.570312 118.679688 L 179.210938 118.679688 Z M 162.914062 114.265625 C 157.945312 114.265625 153.960938 110.445312 153.960938 105.304688 C 153.960938 100.164062 157.945312 96.265625 162.914062 96.265625 C 167.882812 96.265625 171.835938 100.085938 171.835938 105.304688 C 171.835938 110.515625 167.921875 114.265625 162.914062 114.265625 M 182.898438 112.085938 L 185.007812 118.679688 L 190.648438 118.679688 L 188.390625 111.101562 L 188.390625 83.476562 L 182.898438 83.476562 Z M 194.1875 118.679688 L 199.976562 118.679688 L 199.976562 112.882812 L 194.1875 112.882812 Z M 96.460938 80.664062 L 90.703125 80.664062 L 90.703125 86.28125 L 96.5 86.28125 L 96.5 80.664062 Z M 96.460938 80.664062 "/>
</g>
</svg>
