<svg xmlns="http://www.w3.org/2000/svg" xml:space="preserve" fill="none" viewBox="0 4.4 531.4 106.1"><path fill="currentColor" d="M33.6 17.2H0v91.6h33.6c31.6 0 47.5-19.6 47.5-45.9S65.2 17.2 33.6 17.2m0 77.7h-19V31h19c20 0 32.8 9.9 32.8 31.8 0 22-12.8 32.1-32.8 32.1m126-32.4c-2.9-18.6-15.9-29.7-34.3-29.7-19.7 0-35.8 17.1-35.9 38.5-.1 22 15.5 38.5 40.4 38.5 8.8 0 22.4-2.9 28.4-7.9V87.6c-6.4 4.5-16.7 8.3-28.3 8.3-14.7 0-24.1-6.8-25.4-18.4h55.1zm-54.9 2.4c2.2-11.3 9.7-18.8 20.8-18.8 11.2 0 19 7.6 20.1 18.8zm63.2 6.4c-.1 21.4 15.8 38.5 38.4 38.5 8.4 0 16.5-2.6 22.3-6.9v-15c-4.5 3.9-12.4 8-21.8 8-16.1 0-24.5-10.9-24.5-24.6s9.8-24.6 24.8-24.6c9.1 0 17 4.1 21.5 8V39.5c-6.1-4.4-13.9-6.7-22-6.7-21.5 0-38.8 17.2-38.7 38.5m88-36.4h-14.6v73.9h14.6zm14.9 73.8h15.1V68.6c0-14.6 8.2-22.2 18.5-22.2 8.8 0 15.5 6.1 15.5 19.5v42.9H335V68.6c0-15.2 8.3-22.2 18-22.2s15.8 6.1 15.8 19.5v42.9h15.1V61.9c0-18.2-11.6-28.7-28.2-28.7-11.2 0-21.8 4.8-26 12.9-3.4-8.2-13.6-12.9-23.3-12.9-8.2 0-18 3.4-22.3 10.5v-8.8h-13.3zm200.9-16.6V34.9h-13.9V45c-6.4-8-16.2-11.6-26.4-11.6-19.6 0-37.4 15.5-37.4 38.6s17.8 38.5 37.4 38.5c10.3 0 20.3-3.8 26.8-12.4l3 10.6h15zm-38.8 4.5c-13.2 0-23.8-10.5-23.8-24.6s10.6-24.8 23.8-24.8 23.7 10.5 23.7 24.8-10.4 24.6-23.7 24.6m53.1-6 5.6 18.1h15l-6-20.8V12.1H486zm30 18.1h15.4V92.8H516zM256.3 4.4H241v15.4h15.4V4.4z"/></svg>