<?xml version="1.0" encoding="UTF-8"?>
<svg xmlns="http://www.w3.org/2000/svg" xmlns:xlink="http://www.w3.org/1999/xlink" width="200px" height="px" viewBox="0 0 200 200" version="1.1">
<g id="surface1">
<path style=" stroke:none;fill-rule:nonzero;fill:rgb(0%,0%,0%);fill-opacity:1;" d="M 0.0859375 83.3125 L 0.0859375 99.273438 L 1.578125 99.273438 L 1.632812 85.101562 L 1.703125 70.96875 L 8.429688 85.132812 L 15.148438 99.289062 L 16.023438 99.21875 L 16.921875 99.148438 L 23.570312 85.15625 L 30.1875 71.164062 L 30.265625 85.226562 L 30.3125 99.273438 L 35.8125 99.273438 L 35.8125 67.359375 L 30.390625 67.359375 L 24.320312 80.148438 C 18.898438 91.539062 18.195312 92.882812 17.96875 92.367188 C 17.820312 92.054688 15.101562 86.335938 11.929688 79.632812 L 6.179688 67.476562 L 0.0859375 67.335938 Z M 0.0859375 83.3125 "/>
<path style=" stroke:none;fill-rule:nonzero;fill:rgb(0%,0%,0%);fill-opacity:1;" d="M 42.304688 67.578125 C 42.304688 67.726562 44.835938 71.359375 47.929688 75.703125 L 53.554688 83.585938 L 53.554688 99.273438 L 59.046875 99.273438 L 59.046875 81.695312 L 65.046875 74.695312 C 68.320312 70.867188 71.015625 67.648438 71.039062 67.53125 C 71.039062 67.429688 70.640625 67.359375 70.164062 67.359375 C 69.34375 67.359375 69.070312 67.648438 63.773438 73.867188 C 60.726562 77.421875 58.125 80.296875 58.023438 80.21875 C 57.898438 80.148438 55.773438 77.226562 53.273438 73.742188 L 48.726562 67.359375 L 45.53125 67.359375 C 43.679688 67.359375 42.304688 67.460938 42.304688 67.578125 Z M 42.304688 67.578125 "/>
<path style=" stroke:none;fill-rule:nonzero;fill:rgb(0%,0%,0%);fill-opacity:1;" d="M 86.109375 67.851562 C 81.335938 69.078125 79.210938 71.429688 78.859375 75.851562 C 78.5625 79.632812 79.757812 81.078125 85.90625 84.296875 C 89.03125 85.945312 91.476562 87.484375 92.203125 88.25 C 93.554688 89.695312 93.953125 92.570312 93.054688 94.53125 C 92.226562 96.273438 89.460938 97.796875 87.03125 97.796875 C 84.632812 97.796875 82.039062 96.398438 80.882812 94.484375 L 80.210938 93.351562 L 79.632812 93.898438 C 79.3125 94.1875 79.039062 94.601562 79.039062 94.828125 C 79.039062 95.023438 79.6875 95.804688 80.484375 96.59375 C 82.359375 98.359375 84.085938 99.046875 87.109375 99.21875 C 89.726562 99.34375 91.804688 99 94.007812 98.015625 C 96.375 96.960938 97.148438 96.273438 98.078125 94.429688 C 98.851562 92.867188 98.898438 92.640625 98.898438 90.0625 C 98.898438 87.828125 98.804688 87.164062 98.375 86.257812 C 97.328125 84.054688 94.882812 82.179688 88.90625 79.09375 C 85.007812 77.078125 84.289062 76.367188 84.289062 74.648438 C 84.289062 71.289062 86.882812 68.976562 90.65625 68.976562 C 92.828125 68.976562 93.929688 69.320312 95.554688 70.601562 L 96.828125 71.578125 L 97.875 70.546875 L 97.273438 69.9375 C 95.132812 67.679688 90.28125 66.773438 86.109375 67.851562 Z M 86.109375 67.851562 "/>
<path style=" stroke:none;fill-rule:nonzero;fill:rgb(0%,0%,0%);fill-opacity:1;" d="M 115.59375 67.726562 C 113.445312 68.195312 110.867188 69.492188 109.867188 70.648438 C 108.59375 72.09375 107.96875 73.984375 107.945312 76.320312 C 107.898438 79.976562 108.773438 80.929688 115.445312 84.570312 C 121.585938 87.929688 122.539062 88.914062 122.539062 91.953125 C 122.539062 93.773438 122.3125 94.460938 121.382812 95.5625 C 118.5625 98.828125 112.21875 98.3125 110.070312 94.632812 L 109.34375 93.382812 L 108.648438 94.117188 L 107.945312 94.828125 L 108.617188 95.6875 C 109.492188 96.835938 110.59375 97.625 112.390625 98.460938 C 113.765625 99.101562 114.140625 99.148438 116.890625 99.148438 C 119.289062 99.148438 120.242188 99.046875 121.632812 98.609375 C 126.335938 97.15625 128.179688 94.507812 127.960938 89.476562 C 127.882812 87.4375 127.757812 86.945312 127.132812 85.789062 C 125.984375 83.726562 123.0625 81.59375 117.835938 79.039062 C 114.992188 77.648438 113.867188 76.710938 113.515625 75.429688 C 113.015625 73.59375 113.640625 71.851562 115.320312 70.453125 C 117.9375 68.242188 122.0625 68.390625 124.859375 70.796875 L 125.789062 71.601562 L 126.335938 71.085938 L 126.859375 70.546875 L 126.234375 69.914062 C 124.1875 67.75 119.765625 66.84375 115.59375 67.726562 Z M 115.59375 67.726562 "/>
<path style=" stroke:none;fill-rule:nonzero;fill:rgb(0%,0%,0%);fill-opacity:1;" d="M 150.398438 67.554688 C 150.117188 67.992188 135.703125 98.4375 135.578125 98.828125 C 135.476562 99.171875 135.601562 99.273438 136.203125 99.273438 C 136.929688 99.273438 136.976562 99.195312 142.875 86.75 C 146.148438 79.851562 148.898438 74.15625 148.992188 74.109375 C 149.070312 74.054688 151.84375 79.703125 155.148438 86.648438 L 161.117188 99.273438 L 167.210938 99.273438 L 166.085938 96.867188 C 165.460938 95.5625 162.0625 88.367188 158.539062 80.929688 L 152.117188 67.359375 L 151.320312 67.359375 C 150.898438 67.359375 150.476562 67.460938 150.398438 67.554688 Z M 150.398438 67.554688 "/>
<path style=" stroke:none;fill-rule:nonzero;fill:rgb(0%,0%,0%);fill-opacity:1;" d="M 174.90625 67.53125 C 174.804688 67.601562 174.734375 74.796875 174.734375 83.484375 L 174.734375 99.273438 L 180.226562 99.273438 L 180.226562 84.398438 L 182.929688 81.789062 L 186.226562 87.265625 C 188.054688 90.289062 190.421875 94.1875 191.476562 95.960938 L 193.398438 99.148438 L 196.59375 99.21875 C 199.09375 99.273438 199.742188 99.21875 199.648438 98.976562 C 199.59375 98.804688 196.695312 93.96875 193.25 88.226562 L 186.976562 77.789062 L 192.273438 72.585938 L 197.59375 67.359375 L 196.59375 67.359375 C 195.617188 67.359375 195.421875 67.53125 188.101562 74.726562 C 183.976562 78.773438 180.53125 82.085938 180.429688 82.085938 C 180.304688 82.085938 180.226562 78.773438 180.226562 74.726562 L 180.226562 67.359375 L 177.65625 67.359375 C 176.234375 67.359375 174.984375 67.429688 174.90625 67.53125 Z M 174.90625 67.53125 "/>
<path style=" stroke:none;fill-rule:nonzero;fill:rgb(0%,0%,0%);fill-opacity:1;" d="M 74.289062 114.492188 L 74.289062 117.1875 L 73.414062 117.1875 C 72.617188 117.1875 72.539062 117.242188 72.539062 117.929688 C 72.539062 118.617188 72.617188 118.664062 73.414062 118.664062 L 74.289062 118.664062 L 74.289062 132.164062 L 75.539062 132.164062 L 75.539062 118.664062 L 76.914062 118.664062 C 78.257812 118.664062 78.289062 118.664062 78.289062 117.929688 C 78.289062 117.1875 78.257812 117.1875 76.914062 117.1875 L 75.539062 117.1875 L 75.539062 111.789062 L 74.289062 111.789062 Z M 74.289062 114.492188 "/>
<path style=" stroke:none;fill-rule:nonzero;fill:rgb(0%,0%,0%);fill-opacity:1;" d="M 89.03125 121.976562 L 89.03125 132.164062 L 90.203125 132.164062 L 90.328125 127.179688 C 90.429688 122.226562 90.429688 122.148438 91.179688 120.726562 C 91.757812 119.546875 92.132812 119.179688 93.03125 118.710938 C 94.382812 118.046875 95.328125 118.023438 96.703125 118.632812 C 98.5 119.445312 98.625 119.890625 98.726562 126.445312 L 98.828125 132.164062 L 100.023438 132.164062 L 100.023438 126.320312 C 100.023438 121.164062 99.945312 120.382812 99.554688 119.492188 C 98.851562 117.976562 97.554688 117.117188 95.773438 116.992188 C 93.898438 116.867188 92.703125 117.265625 91.351562 118.492188 L 90.28125 119.476562 L 90.28125 111.789062 L 89.03125 111.789062 Z M 89.03125 121.976562 "/>
<path style=" stroke:none;fill-rule:nonzero;fill:rgb(0%,0%,0%);fill-opacity:1;" d="M 137.757812 114.492188 L 137.757812 117.1875 L 137.007812 117.1875 C 136.328125 117.1875 136.257812 117.265625 136.257812 117.929688 C 136.257812 118.585938 136.328125 118.664062 137.007812 118.664062 L 137.757812 118.664062 L 137.757812 132.164062 L 139.257812 132.164062 L 139.257812 118.664062 L 140.625 118.664062 C 141.976562 118.664062 142 118.664062 142 117.929688 C 142 117.1875 141.976562 117.1875 140.625 117.1875 L 139.257812 117.1875 L 139.257812 111.789062 L 137.757812 111.789062 Z M 137.757812 114.492188 "/>
<path style=" stroke:none;fill-rule:nonzero;fill:rgb(0%,0%,0%);fill-opacity:1;" d="M 152.398438 112.398438 C 151.921875 112.898438 151.867188 113.507812 152.320312 114.101562 C 152.742188 114.664062 153.945312 114.539062 154.398438 113.875 C 155.148438 112.742188 153.398438 111.445312 152.398438 112.398438 Z M 152.398438 112.398438 "/>
<path style=" stroke:none;fill-rule:nonzero;fill:rgb(0%,0%,0%);fill-opacity:1;" d="M 4.953125 117.4375 C 3.257812 118.101562 2.078125 119.101562 1.203125 120.648438 C 0.507812 121.882812 0.460938 122.148438 0.460938 124.554688 C 0.460938 126.742188 0.554688 127.328125 1.054688 128.40625 C 3.15625 133 9.125 134.054688 12.898438 130.492188 L 13.820312 129.609375 L 13.820312 130.882812 C 13.820312 132.085938 13.875 132.164062 14.445312 132.164062 L 15.070312 132.164062 L 15.070312 117.1875 L 14.445312 117.1875 C 13.875 117.1875 13.820312 117.265625 13.820312 118.414062 C 13.820312 119.078125 13.726562 119.648438 13.625 119.648438 C 13.523438 119.648438 13.070312 119.273438 12.648438 118.804688 C 11.445312 117.585938 10.226562 117.09375 8.078125 117.015625 C 6.679688 116.96875 5.898438 117.070312 4.953125 117.4375 Z M 9.554688 118.539062 C 13.320312 119.648438 14.875 124.085938 12.921875 128.132812 C 11.804688 130.46875 9.398438 131.648438 6.726562 131.15625 C 3.453125 130.570312 1.578125 127.773438 1.882812 123.960938 C 2.03125 122.101562 2.757812 120.695312 4.101562 119.570312 C 5.703125 118.21875 7.351562 117.898438 9.554688 118.539062 Z M 9.554688 118.539062 "/>
<path style=" stroke:none;fill-rule:nonzero;fill:rgb(0%,0%,0%);fill-opacity:1;" d="M 31.914062 117.4375 C 30.210938 118.101562 28.460938 119.867188 27.789062 121.585938 C 27.015625 123.59375 27.195312 126.835938 28.164062 128.703125 C 30.515625 133.171875 36.382812 134.03125 40.054688 130.421875 C 41.429688 129.070312 41.585938 128.632812 40.78125 128.210938 C 40.335938 127.992188 40.179688 128.015625 40.007812 128.304688 C 38.429688 131.085938 35.1875 132.015625 32.1875 130.570312 C 30.164062 129.609375 28.867188 127.648438 28.820312 125.585938 L 28.820312 124.796875 L 41.882812 124.796875 L 41.734375 123.546875 C 41.429688 121.023438 39.734375 118.539062 37.609375 117.53125 C 36.234375 116.867188 33.492188 116.820312 31.914062 117.4375 Z M 36.335938 118.5625 C 38.0625 119.078125 39.585938 120.554688 40.054688 122.195312 C 40.234375 122.8125 40.335938 123.398438 40.257812 123.445312 C 40.179688 123.523438 37.609375 123.546875 34.507812 123.523438 L 28.890625 123.445312 L 29.210938 122.320312 C 29.6875 120.695312 31.3125 119.007812 32.757812 118.5625 C 34.3125 118.101562 34.710938 118.101562 36.335938 118.5625 Z M 36.335938 118.5625 "/>
<path style=" stroke:none;fill-rule:nonzero;fill:rgb(0%,0%,0%);fill-opacity:1;" d="M 55.929688 117.289062 C 53.726562 118.242188 53.078125 120.726562 54.453125 122.757812 C 54.703125 123.132812 55.804688 123.820312 57.25 124.476562 C 60.296875 125.882812 61.046875 126.515625 61.046875 127.820312 C 61.046875 129.023438 60.445312 130.296875 59.625 130.835938 C 58.726562 131.398438 56.820312 131.382812 55.773438 130.789062 C 55.304688 130.523438 54.648438 129.882812 54.328125 129.390625 C 53.328125 127.890625 52.078125 128.359375 52.898438 129.929688 C 54.203125 132.382812 57.398438 133.320312 60.125 132.039062 C 61.617188 131.351562 62.367188 130.179688 62.492188 128.359375 C 62.648438 125.953125 61.695312 124.703125 58.851562 123.59375 C 55.601562 122.34375 54.898438 121.609375 55.320312 120.039062 C 55.898438 118 58.273438 117.601562 60.070312 119.304688 C 60.617188 119.820312 60.742188 119.867188 61.195312 119.546875 C 61.671875 119.203125 61.671875 119.179688 61.148438 118.492188 C 60.101562 117.09375 57.671875 116.523438 55.929688 117.289062 Z M 55.929688 117.289062 "/>
<path style=" stroke:none;fill-rule:nonzero;fill:rgb(0%,0%,0%);fill-opacity:1;" d="M 116.515625 117.164062 C 114.34375 117.828125 112.640625 119.273438 111.71875 121.242188 C 110.914062 122.960938 110.898438 126.59375 111.695312 128.289062 C 112.515625 130.054688 114.09375 131.570312 115.710938 132.1875 C 118.992188 133.390625 123.164062 132.070312 124.8125 129.265625 C 125.234375 128.554688 125.234375 128.554688 124.585938 128.210938 C 124.039062 127.914062 123.914062 127.914062 123.8125 128.210938 C 123.585938 128.875 121.992188 130.398438 121.117188 130.8125 C 119.890625 131.382812 117.617188 131.351562 116.242188 130.765625 C 114.21875 129.882812 112.914062 128.164062 112.617188 125.929688 L 112.445312 124.796875 L 125.6875 124.796875 L 125.484375 123.546875 C 125.164062 121.609375 124.8125 120.726562 123.757812 119.421875 C 122.4375 117.804688 120.664062 116.945312 118.664062 116.96875 C 117.8125 116.96875 116.867188 117.070312 116.515625 117.164062 Z M 120.992188 118.90625 C 122.617188 119.71875 124.007812 121.65625 124.007812 123.085938 C 124.007812 123.570312 123.882812 123.570312 118.390625 123.570312 C 112.039062 123.570312 112.320312 123.695312 113.289062 121.609375 C 114.070312 119.890625 115.140625 118.976562 117.015625 118.390625 C 117.914062 118.101562 119.9375 118.367188 120.992188 118.90625 Z M 120.992188 118.90625 "/>
<path style=" stroke:none;fill-rule:nonzero;fill:rgb(0%,0%,0%);fill-opacity:1;" d="M 170.882812 117.554688 C 168.3125 118.585938 166.710938 120.578125 166.257812 123.273438 C 165.664062 126.984375 167.257812 130.296875 170.484375 131.945312 C 171.429688 132.429688 171.984375 132.53125 173.859375 132.53125 C 175.960938 132.53125 176.210938 132.484375 177.726562 131.648438 C 179.304688 130.789062 179.351562 130.742188 179.429688 129.679688 L 179.507812 128.601562 L 178.679688 129.367188 C 176.15625 131.726562 172.585938 131.898438 169.789062 129.78125 C 167.382812 127.992188 166.992188 123.375 168.984375 120.648438 C 170.984375 117.945312 174.882812 117.460938 178.007812 119.523438 L 179.257812 120.351562 L 179.179688 119.445312 C 179.101562 118.585938 179.007812 118.492188 177.507812 117.726562 C 175.429688 116.695312 173.132812 116.648438 170.882812 117.554688 Z M 170.882812 117.554688 "/>
<path style=" stroke:none;fill-rule:nonzero;fill:rgb(0%,0%,0%);fill-opacity:1;" d="M 192.976562 117.507812 C 190.671875 118.710938 190.296875 121.484375 192.226562 123.203125 C 192.523438 123.476562 193.921875 124.234375 195.296875 124.921875 C 198.171875 126.296875 198.617188 126.835938 198.34375 128.507812 C 197.773438 131.796875 193.023438 132.335938 191.5 129.265625 C 191.101562 128.476562 190.625 128.304688 190.023438 128.703125 C 189.75 128.875 189.773438 129.09375 190.171875 129.851562 C 191.125 131.695312 192.773438 132.65625 194.898438 132.65625 C 197.320312 132.632812 199.539062 130.960938 199.84375 128.875 C 200.242188 126.320312 199.09375 124.820312 195.695312 123.429688 C 193.070312 122.367188 192.351562 121.65625 192.570312 120.40625 C 192.726562 119.421875 193.523438 118.515625 194.367188 118.320312 C 195.296875 118.070312 196.921875 118.617188 197.367188 119.273438 C 197.695312 119.765625 197.84375 119.820312 198.34375 119.59375 C 198.898438 119.351562 198.914062 119.273438 198.617188 118.6875 C 197.742188 117.070312 194.945312 116.476562 192.976562 117.507812 Z M 192.976562 117.507812 "/>
<path style=" stroke:none;fill-rule:nonzero;fill:rgb(0%,0%,0%);fill-opacity:1;" d="M 152.492188 124.679688 L 152.492188 132.164062 L 153.992188 132.164062 L 153.992188 117.1875 L 152.492188 117.1875 Z M 152.492188 124.679688 "/>
</g>
</svg>
