<svg xmlns="http://www.w3.org/2000/svg" version="1.0" preserveAspectRatio="xMidYMid meet" viewBox="100 367.9 799.8 266.15">

<g transform="translate(0.000000,1000.000000) scale(0.100000,-0.100000)" fill="#000000" stroke="none">
<path d="M1000 5670 l0 -650 30 0 30 0 2 577 3 576 269 -577 269 -577 35 3 36 3 266 570 265 570 3 -573 2 -572 110 0 110 0 0 650 0 650 -108 0 -109 0 -243 -521 c-217 -464 -245 -519 -254 -498 -6 13 -115 246 -242 519 l-230 495 -122 3 -122 3 0 -651z"/>
<path d="M2690 6311 c0 -6 101 -154 225 -331 l225 -321 0 -320 0 -319 110 0 110 0 0 358 0 358 240 285 c131 156 239 287 240 292 0 4 -16 7 -35 7 -33 0 -44 -12 -256 -265 -122 -145 -226 -262 -230 -259 -5 3 -90 122 -190 264 l-182 260 -128 0 c-74 0 -129 -4 -129 -9z"/>
<path d="M4443 6300 c-191 -50 -276 -146 -290 -326 -12 -154 36 -213 282 -344 125 -67 223 -130 252 -161 54 -59 70 -176 34 -256 -33 -71 -144 -133 -241 -133 -96 0 -200 57 -246 135 l-27 46 -23 -22 c-13 -12 -24 -29 -24 -38 0 -8 26 -40 58 -72 75 -72 144 -100 265 -107 105 -5 188 9 276 49 95 43 126 71 163 146 31 64 33 73 33 178 0 91 -4 118 -21 155 -42 90 -140 166 -379 292 -156 82 -185 111 -185 181 0 137 104 231 255 231 87 0 131 -14 196 -66 l51 -40 21 21 21 21 -24 25 c-86 92 -280 129 -447 85z"/>
<path d="M5623 6305 c-86 -19 -189 -72 -229 -119 -51 -59 -76 -136 -77 -231 -2 -149 33 -188 300 -336 246 -137 284 -177 284 -301 0 -74 -9 -102 -46 -147 -113 -133 -367 -112 -453 38 l-29 51 -28 -30 -28 -29 27 -35 c35 -47 79 -79 151 -113 55 -26 70 -28 180 -28 96 0 134 4 190 22 188 59 262 167 253 372 -3 83 -8 103 -33 150 -46 84 -163 171 -372 275 -114 57 -159 95 -173 147 -20 75 5 146 72 203 105 90 270 84 382 -14 l37 -33 22 21 21 22 -25 26 c-82 88 -259 125 -426 89z"/>
<path d="M7016 6312 c-11 -18 -588 -1258 -593 -1274 -4 -14 1 -18 25 -18 29 0 31 3 267 510 131 281 241 513 245 515 3 2 114 -228 246 -511 l239 -514 122 0 122 0 -45 98 c-25 53 -161 346 -302 649 l-257 553 -32 0 c-17 0 -34 -4 -37 -8z"/>
<path d="M7997 6313 c-4 -3 -7 -296 -7 -650 l0 -643 110 0 110 0 0 303 0 303 54 53 54 53 132 -223 c73 -123 168 -282 210 -354 l77 -130 128 -3 c100 -2 126 0 122 10 -2 7 -118 204 -256 438 l-251 425 212 212 213 213 -40 0 c-39 0 -47 -7 -340 -300 -165 -165 -303 -300 -307 -300 -5 0 -8 135 -8 300 l0 300 -103 0 c-57 0 -107 -3 -110 -7z"/>
<path d="M3970 4400 l0 -110 -35 0 c-32 0 -35 -2 -35 -30 0 -28 3 -30 35 -30 l35 0 0 -275 0 -275 25 0 25 0 0 275 0 275 55 0 c54 0 55 0 55 30 0 30 -1 30 -55 30 l-55 0 0 110 0 110 -25 0 -25 0 0 -110z"/>
<path d="M4560 4095 l0 -415 24 0 23 0 5 203 c4 202 4 205 34 263 23 48 38 63 74 82 54 27 92 28 147 3 72 -33 77 -51 81 -318 l4 -233 24 0 24 0 0 238 c0 210 -3 242 -19 278 -28 62 -80 97 -151 102 -75 5 -123 -11 -177 -61 l-43 -40 0 157 0 156 -25 0 -25 0 0 -415z"/>
<path d="M6510 4400 l0 -110 -30 0 c-27 0 -30 -3 -30 -30 0 -27 3 -30 30 -30 l30 0 0 -275 0 -275 30 0 30 0 0 275 0 275 55 0 c54 0 55 0 55 30 0 30 -1 30 -55 30 l-55 0 0 110 0 110 -30 0 -30 0 0 -110z"/>
<path d="M7096 4485 c-19 -20 -21 -45 -3 -69 17 -23 65 -18 83 9 30 46 -40 99 -80 60z"/>
<path d="M1195 4280 c-68 -27 -115 -68 -150 -131 -28 -50 -30 -61 -30 -159 0 -89 4 -113 24 -157 84 -187 323 -230 474 -85 l37 36 0 -52 c0 -49 2 -52 25 -52 l25 0 0 305 0 305 -25 0 c-23 0 -25 -3 -25 -50 0 -27 -4 -50 -8 -50 -4 0 -22 15 -39 34 -48 50 -97 70 -183 73 -56 2 -87 -2 -125 -17z m184 -45 c151 -45 213 -226 135 -391 -45 -95 -141 -143 -248 -123 -131 24 -206 138 -194 293 6 76 35 133 89 179 64 55 130 68 218 42z"/>
<path d="M2274 4280 c-68 -27 -138 -99 -165 -169 -31 -82 -24 -214 15 -290 94 -182 329 -217 476 -70 55 55 61 73 29 90 -18 9 -24 8 -31 -4 -63 -113 -193 -151 -313 -92 -81 39 -133 119 -135 203 l0 32 261 0 262 0 -6 51 c-12 103 -80 204 -165 245 -55 27 -165 29 -228 4z m177 -46 c69 -21 130 -81 149 -148 7 -25 11 -49 8 -51 -3 -3 -106 -4 -230 -3 l-225 3 13 46 c19 66 84 135 142 153 62 19 78 19 143 0z"/>
<path d="M3235 4286 c-88 -39 -114 -140 -59 -223 10 -15 54 -43 112 -70 122 -57 152 -83 152 -136 0 -49 -24 -101 -57 -123 -36 -23 -112 -22 -154 2 -19 11 -45 37 -58 57 -40 61 -90 42 -57 -22 52 -100 180 -138 289 -86 60 28 90 76 95 150 6 98 -32 149 -146 194 -130 51 -158 81 -141 145 23 83 118 99 190 30 22 -21 27 -23 45 -10 19 14 19 15 -2 43 -42 57 -139 80 -209 49z"/>
<path d="M5660 4291 c-87 -27 -155 -86 -192 -166 -32 -70 -33 -218 -1 -287 33 -72 96 -134 161 -159 131 -49 298 5 364 119 17 29 17 29 -9 43 -22 12 -27 12 -31 0 -9 -27 -73 -89 -108 -106 -49 -23 -140 -22 -195 2 -81 36 -133 106 -145 197 l-7 46 265 0 265 0 -8 51 c-13 79 -27 115 -69 168 -53 66 -124 101 -204 100 -34 0 -72 -4 -86 -8z m179 -71 c65 -33 121 -112 121 -170 0 -20 -5 -20 -225 -20 -254 0 -243 -5 -204 80 31 70 74 107 149 131 36 12 117 1 159 -21z"/>
<path d="M7836 4275 c-103 -42 -167 -123 -185 -233 -24 -151 40 -286 169 -353 38 -20 60 -24 135 -24 84 0 94 2 155 36 63 35 65 37 68 80 l3 44 -33 -31 c-101 -96 -244 -103 -356 -17 -96 73 -112 261 -32 372 80 110 236 130 361 46 l50 -34 -3 37 c-3 35 -7 39 -67 70 -83 42 -175 44 -265 7z"/>
<path d="M8720 4277 c-92 -49 -107 -162 -30 -232 12 -11 68 -42 123 -70 115 -56 133 -78 122 -146 -23 -134 -213 -156 -274 -31 -16 32 -35 39 -59 23 -11 -7 -10 -16 6 -47 38 -75 104 -114 189 -114 97 1 186 69 198 154 16 104 -30 165 -166 222 -105 43 -134 72 -125 123 6 40 38 77 72 85 37 10 102 -12 120 -39 13 -20 19 -22 39 -13 22 10 23 13 11 37 -35 66 -147 90 -226 48z"/>
<path d="M7100 3985 l0 -305 30 0 30 0 0 305 0 305 -30 0 -30 0 0 -305z"/>
</g>
</svg>