<?xml version="1.0" encoding="UTF-8"?>
<svg xmlns="http://www.w3.org/2000/svg" xmlns:xlink="http://www.w3.org/1999/xlink" width="150px" height="150px" viewBox="0 0 113 113" version="1.1">
<defs>
<clipPath id="clip1">
  <path d="M 0 0.558594 L 112.257812 0.558594 L 112.257812 112.453125 L 0 112.453125 Z M 0 0.558594 "/>
</clipPath>
<clipPath id="clip2">
  <path d="M 0 0.558594 L 112.257812 0.558594 L 112.257812 112.453125 L 0 112.453125 Z M 0 0.558594 "/>
</clipPath>
</defs>
<g id="surface1">
<path style=" stroke:none;fill-rule:nonzero;fill:rgb(8.627451%,14.117648%,23.921569%);fill-opacity:1;" d="M 56.128906 111.953125 C 86.738281 111.953125 111.582031 87.109375 111.582031 56.5 C 111.582031 25.890625 86.738281 1.046875 56.128906 1.046875 C 25.519531 1.046875 0.671875 25.890625 0.671875 56.5 C 0.671875 87.109375 25.519531 111.953125 56.128906 111.953125 Z M 56.128906 111.953125 "/>
<g clip-path="url(#clip1)" clip-rule="nonzero">
<path style=" stroke:none;fill-rule:nonzero;fill:rgb(67.843139%,60.000002%,38.82353%);fill-opacity:1;" d="M 56.128906 112.628906 C 25.148438 112.628906 0 87.480469 0 56.5 C 0 25.519531 25.148438 0.371094 56.128906 0.371094 C 87.109375 0.371094 112.257812 25.519531 112.257812 56.5 C 112.257812 87.480469 87.109375 112.628906 56.128906 112.628906 Z M 56.128906 1.71875 C 25.890625 1.71875 1.347656 26.34375 1.347656 56.5 C 1.347656 86.726562 25.890625 111.28125 56.128906 111.28125 C 86.285156 111.28125 110.910156 86.726562 110.910156 56.5 C 110.910156 26.34375 86.285156 1.71875 56.128906 1.71875 Z M 56.128906 1.71875 "/>
</g>
<path style=" stroke:none;fill-rule:nonzero;fill:rgb(8.627451%,14.117648%,23.921569%);fill-opacity:1;" d="M 56.128906 111.953125 C 86.738281 111.953125 111.582031 87.109375 111.582031 56.5 C 111.582031 25.890625 86.738281 1.046875 56.128906 1.046875 C 25.519531 1.046875 0.671875 25.890625 0.671875 56.5 C 0.671875 87.109375 25.519531 111.953125 56.128906 111.953125 Z M 56.128906 111.953125 "/>
<g clip-path="url(#clip2)" clip-rule="nonzero">
<path style=" stroke:none;fill-rule:nonzero;fill:rgb(67.843139%,60.000002%,38.82353%);fill-opacity:1;" d="M 56.128906 112.628906 C 25.148438 112.628906 0 87.480469 0 56.5 C 0 25.519531 25.148438 0.371094 56.128906 0.371094 C 87.109375 0.371094 112.257812 25.519531 112.257812 56.5 C 112.257812 87.480469 87.109375 112.628906 56.128906 112.628906 Z M 56.128906 1.71875 C 25.890625 1.71875 1.347656 26.34375 1.347656 56.5 C 1.347656 86.726562 25.890625 111.28125 56.128906 111.28125 C 86.285156 111.28125 110.910156 86.726562 110.910156 56.5 C 110.910156 26.34375 86.285156 1.71875 56.128906 1.71875 Z M 56.128906 1.71875 "/>
</g>
<path style=" stroke:none;fill-rule:nonzero;fill:rgb(67.843139%,60.000002%,38.82353%);fill-opacity:1;" d="M 24.394531 88.003906 L 24.765625 87.78125 L 26.785156 89.570312 C 27.191406 89.976562 27.460938 90.300781 27.609375 90.546875 C 27.914062 90.953125 27.984375 91.394531 27.84375 91.894531 C 27.785156 92.300781 27.566406 92.71875 27.167969 93.171875 C 27.066406 93.3125 26.9375 93.4375 26.785156 93.542969 C 26.636719 93.695312 26.496094 93.820312 26.34375 93.914062 C 26.195312 94.019531 26.019531 94.113281 25.824219 94.21875 C 25.671875 94.308594 25.496094 94.390625 25.289062 94.4375 C 24.542969 94.738281 23.800781 94.808594 23.046875 94.660156 C 22.347656 94.519531 21.652344 94.113281 20.957031 93.460938 L 18.933594 91.671875 L 19.304688 91.441406 C 19.503906 91.648438 19.652344 91.765625 19.757812 91.824219 C 19.804688 91.824219 19.851562 91.824219 19.910156 91.824219 C 19.910156 91.871094 19.933594 91.894531 19.980469 91.894531 C 20.027344 91.894531 20.050781 91.871094 20.050781 91.824219 C 20.105469 91.824219 20.152344 91.824219 20.199219 91.824219 C 20.199219 91.824219 20.234375 91.789062 20.28125 91.742188 C 20.28125 91.742188 20.304688 91.742188 20.351562 91.742188 C 20.351562 91.695312 20.386719 91.671875 20.433594 91.671875 C 20.433594 91.671875 20.457031 91.648438 20.503906 91.589844 L 24.394531 88.976562 C 24.542969 88.875 24.671875 88.804688 24.765625 88.757812 C 24.871094 88.605469 24.847656 88.457031 24.695312 88.304688 C 24.695312 88.304688 24.671875 88.28125 24.625 88.222656 C 24.625 88.222656 24.589844 88.199219 24.542969 88.152344 C 24.542969 88.105469 24.519531 88.082031 24.476562 88.082031 C 24.476562 88.027344 24.441406 88.003906 24.394531 88.003906 Z M 26.042969 89.429688 L 21.398438 92.566406 C 21.257812 92.671875 21.152344 92.742188 21.105469 92.789062 C 21 92.894531 21.046875 93.042969 21.257812 93.242188 C 21.546875 93.496094 21.828125 93.695312 22.082031 93.84375 C 22.324219 93.9375 22.605469 93.960938 22.894531 93.914062 C 23.5 93.867188 24.21875 93.589844 25.066406 93.089844 C 25.171875 93.042969 25.289062 92.972656 25.4375 92.871094 C 25.589844 92.765625 25.71875 92.671875 25.824219 92.566406 C 25.960938 92.464844 26.089844 92.371094 26.195312 92.265625 C 26.296875 92.113281 26.390625 92 26.496094 91.894531 C 26.9375 91.394531 27.113281 90.976562 27.019531 90.628906 C 26.960938 90.417969 26.761719 90.152344 26.414062 89.804688 Z M 26.042969 89.429688 "/>
<path style=" stroke:none;fill-rule:nonzero;fill:rgb(67.843139%,60.000002%,38.82353%);fill-opacity:1;" d="M 28.738281 97.65625 L 29.039062 97.957031 C 28.980469 98.003906 28.910156 98.0625 28.808594 98.109375 C 28.714844 98.15625 28.609375 98.179688 28.515625 98.179688 C 28.414062 98.234375 28.308594 98.28125 28.214844 98.328125 C 28.109375 98.328125 28.007812 98.351562 27.914062 98.398438 C 27.308594 98.457031 26.761719 98.304688 26.261719 97.957031 C 25.824219 97.65625 25.566406 97.308594 25.519531 96.910156 C 25.371094 96.457031 25.472656 96.039062 25.824219 95.632812 C 25.867188 95.542969 25.9375 95.4375 26.042969 95.332031 C 26.089844 95.238281 26.171875 95.132812 26.261719 95.042969 C 26.367188 94.984375 26.460938 94.914062 26.566406 94.808594 C 26.671875 94.714844 26.761719 94.636719 26.867188 94.589844 C 27.460938 94.195312 28.0625 94.019531 28.65625 94.066406 C 28.808594 94.066406 28.933594 94.066406 29.039062 94.066406 C 29.191406 94.113281 29.308594 94.136719 29.410156 94.136719 C 29.5625 94.195312 29.679688 94.238281 29.785156 94.285156 C 29.886719 94.34375 29.980469 94.414062 30.085938 94.519531 C 30.386719 94.714844 30.609375 94.960938 30.757812 95.261719 C 30.851562 95.609375 30.804688 95.9375 30.609375 96.238281 C 30.257812 96.738281 29.632812 96.910156 28.738281 96.761719 C 28.191406 96.65625 27.609375 96.4375 27.019531 96.085938 C 26.960938 96.085938 26.914062 96.109375 26.867188 96.15625 C 26.867188 96.203125 26.84375 96.238281 26.785156 96.238281 C 26.738281 96.285156 26.714844 96.332031 26.714844 96.390625 C 26.671875 96.4375 26.636719 96.480469 26.636719 96.539062 C 26.496094 96.738281 26.414062 96.933594 26.414062 97.132812 C 26.414062 97.433594 26.542969 97.65625 26.785156 97.804688 C 27.136719 98.0625 27.542969 98.109375 27.984375 97.957031 C 28.039062 97.957031 28.109375 97.957031 28.214844 97.957031 C 28.261719 97.910156 28.308594 97.875 28.367188 97.875 C 28.414062 97.828125 28.460938 97.804688 28.515625 97.804688 C 28.609375 97.761719 28.679688 97.703125 28.738281 97.65625 Z M 27.308594 95.785156 C 27.667969 96.085938 28.0625 96.203125 28.515625 96.15625 C 28.5625 96.15625 28.609375 96.15625 28.65625 96.15625 C 28.761719 96.15625 28.832031 96.15625 28.890625 96.15625 C 28.933594 96.109375 29.015625 96.085938 29.109375 96.085938 C 29.15625 96.039062 29.214844 95.984375 29.261719 95.9375 C 29.503906 95.832031 29.714844 95.679688 29.863281 95.484375 C 29.863281 95.4375 29.886719 95.390625 29.933594 95.332031 C 29.933594 95.332031 29.933594 95.308594 29.933594 95.261719 C 29.980469 95.214844 30.003906 95.191406 30.003906 95.191406 C 30.003906 95.132812 30.003906 95.089844 30.003906 95.042969 C 30.0625 94.890625 30.003906 94.761719 29.863281 94.660156 C 29.5625 94.460938 29.085938 94.566406 28.4375 94.960938 C 28.34375 95.019531 28.238281 95.066406 28.132812 95.113281 C 28.039062 95.214844 27.9375 95.285156 27.84375 95.332031 C 27.738281 95.4375 27.632812 95.507812 27.542969 95.566406 C 27.4375 95.65625 27.367188 95.738281 27.308594 95.785156 Z M 27.308594 95.785156 "/>
<path style=" stroke:none;fill-rule:nonzero;fill:rgb(67.843139%,60.000002%,38.82353%);fill-opacity:1;" d="M 31.582031 96.085938 L 31.734375 95.9375 C 32.28125 96.179688 32.804688 96.390625 33.304688 96.539062 C 33.257812 96.632812 33.222656 96.691406 33.222656 96.691406 C 33.070312 96.933594 32.90625 97.179688 32.699219 97.433594 C 33 97.285156 33.257812 97.179688 33.453125 97.132812 C 33.800781 97.027344 34.152344 97.0625 34.5 97.214844 C 34.695312 97.308594 34.824219 97.457031 34.871094 97.65625 C 34.929688 97.851562 34.894531 98.027344 34.800781 98.179688 C 34.742188 98.234375 34.71875 98.28125 34.71875 98.328125 C 34.671875 98.375 34.628906 98.433594 34.570312 98.480469 C 34.523438 98.480469 34.476562 98.503906 34.417969 98.550781 C 34.417969 98.550781 34.394531 98.585938 34.347656 98.632812 C 34.300781 98.632812 34.253906 98.632812 34.199219 98.632812 C 34.152344 98.632812 34.105469 98.632812 34.046875 98.632812 C 34 98.632812 33.976562 98.632812 33.976562 98.632812 C 33.917969 98.585938 33.871094 98.550781 33.824219 98.550781 C 33.675781 98.457031 33.582031 98.328125 33.523438 98.179688 C 33.523438 98.132812 33.523438 98.109375 33.523438 98.109375 C 33.523438 98.109375 33.546875 98.085938 33.605469 98.027344 C 33.605469 98.027344 33.605469 98.003906 33.605469 97.957031 C 33.605469 97.957031 33.605469 97.933594 33.605469 97.875 C 33.699219 97.78125 33.824219 97.738281 33.976562 97.738281 C 34.023438 97.585938 33.976562 97.480469 33.824219 97.433594 C 33.628906 97.332031 33.324219 97.410156 32.929688 97.65625 C 32.675781 97.804688 32.304688 98.15625 31.804688 98.699219 L 30.15625 100.351562 L 29.109375 99.746094 L 31.652344 97.0625 C 31.851562 96.855469 31.980469 96.714844 32.023438 96.609375 C 32.082031 96.503906 32.023438 96.4375 31.875 96.390625 C 31.875 96.332031 31.851562 96.308594 31.804688 96.308594 C 31.804688 96.261719 31.78125 96.238281 31.734375 96.238281 C 31.675781 96.238281 31.652344 96.203125 31.652344 96.15625 C 31.605469 96.15625 31.582031 96.132812 31.582031 96.085938 Z M 31.582031 96.085938 "/>
<path style=" stroke:none;fill-rule:nonzero;fill:rgb(67.843139%,60.000002%,38.82353%);fill-opacity:1;" d="M 41.386719 102.742188 L 41.757812 102.824219 C 41.410156 103.371094 41.027344 103.765625 40.632812 104.019531 C 39.890625 104.519531 39.066406 104.613281 38.171875 104.3125 C 37.414062 104.019531 36.914062 103.566406 36.671875 102.976562 C 36.417969 102.417969 36.449219 101.800781 36.742188 101.105469 C 36.789062 100.953125 36.847656 100.804688 36.890625 100.652344 C 36.996094 100.5 37.089844 100.351562 37.195312 100.199219 C 37.289062 100.046875 37.390625 99.898438 37.496094 99.746094 C 37.589844 99.605469 37.695312 99.457031 37.785156 99.304688 C 38.390625 98.652344 39.085938 98.203125 39.890625 97.957031 C 40.539062 97.804688 41.214844 97.851562 41.910156 98.109375 C 42.210938 98.203125 42.457031 98.328125 42.652344 98.480469 C 42.757812 98.585938 42.933594 98.734375 43.175781 98.933594 C 43.28125 99.074219 43.375 99.152344 43.480469 99.152344 C 43.523438 99.199219 43.675781 99.199219 43.929688 99.152344 L 42.804688 100.871094 L 42.503906 100.804688 C 42.652344 100.398438 42.734375 100.105469 42.734375 99.898438 C 42.734375 99.851562 42.734375 99.78125 42.734375 99.675781 C 42.734375 99.628906 42.734375 99.582031 42.734375 99.527344 C 42.675781 99.433594 42.652344 99.351562 42.652344 99.304688 C 42.652344 99.257812 42.628906 99.199219 42.585938 99.152344 C 42.433594 98.851562 42.210938 98.652344 41.910156 98.550781 C 41.15625 98.304688 40.355469 98.550781 39.515625 99.304688 C 39.167969 99.605469 38.832031 99.980469 38.542969 100.429688 C 38.496094 100.523438 38.4375 100.628906 38.390625 100.722656 C 38.34375 100.828125 38.285156 100.929688 38.238281 101.023438 C 38.191406 101.128906 38.136719 101.222656 38.089844 101.324219 C 38.042969 101.417969 37.996094 101.523438 37.9375 101.628906 C 37.738281 102.117188 37.71875 102.570312 37.867188 102.976562 C 38.019531 103.324219 38.285156 103.566406 38.691406 103.71875 C 39.34375 103.972656 39.957031 103.917969 40.5625 103.566406 C 40.863281 103.371094 41.132812 103.089844 41.386719 102.742188 Z M 41.386719 102.742188 "/>
<path style=" stroke:none;fill-rule:nonzero;fill:rgb(67.843139%,60.000002%,38.82353%);fill-opacity:1;" d="M 45.871094 101.324219 C 46.371094 101.417969 46.742188 101.675781 47 102.070312 C 47.242188 102.476562 47.324219 102.941406 47.21875 103.5 C 47.125 103.847656 46.976562 104.195312 46.765625 104.542969 C 46.71875 104.648438 46.671875 104.71875 46.625 104.765625 C 46.566406 104.867188 46.5 104.9375 46.394531 104.984375 C 46.347656 105.089844 46.300781 105.171875 46.242188 105.21875 C 46.148438 105.265625 46.070312 105.34375 46.023438 105.4375 C 45.324219 105.984375 44.546875 106.167969 43.699219 105.960938 C 43.199219 105.808594 42.828125 105.589844 42.585938 105.285156 C 42.28125 104.84375 42.210938 104.3125 42.351562 103.71875 C 42.503906 103.21875 42.734375 102.765625 43.027344 102.371094 C 43.433594 101.871094 43.875 101.546875 44.371094 101.394531 C 44.523438 101.347656 44.652344 101.300781 44.746094 101.246094 C 44.894531 101.246094 45.023438 101.246094 45.128906 101.246094 C 45.277344 101.246094 45.394531 101.246094 45.5 101.246094 C 45.652344 101.246094 45.777344 101.269531 45.871094 101.324219 Z M 45.800781 101.546875 C 45.742188 101.546875 45.695312 101.546875 45.652344 101.546875 C 45.546875 101.546875 45.476562 101.546875 45.417969 101.546875 C 45.371094 101.546875 45.324219 101.570312 45.277344 101.628906 C 45.277344 101.628906 45.253906 101.628906 45.199219 101.628906 C 45 101.777344 44.78125 102 44.523438 102.300781 C 44.28125 102.59375 44.046875 103 43.851562 103.5 C 43.804688 103.589844 43.757812 103.695312 43.699219 103.789062 C 43.652344 103.894531 43.605469 103.996094 43.558594 104.089844 C 43.5 104.195312 43.480469 104.289062 43.480469 104.394531 C 43.433594 104.496094 43.410156 104.589844 43.410156 104.695312 C 43.257812 105.242188 43.375 105.566406 43.78125 105.660156 C 44.082031 105.714844 44.351562 105.636719 44.605469 105.4375 C 44.894531 105.195312 45.222656 104.742188 45.570312 104.089844 C 45.871094 103.542969 46.070312 103.046875 46.171875 102.59375 C 46.324219 102 46.195312 101.652344 45.800781 101.546875 Z M 45.800781 101.546875 "/>
<path style=" stroke:none;fill-rule:nonzero;fill:rgb(67.843139%,60.000002%,38.82353%);fill-opacity:1;" d="M 48.414062 102.371094 L 48.496094 102.152344 C 48.695312 102.152344 48.867188 102.152344 49.019531 102.152344 C 49.214844 102.152344 49.390625 102.152344 49.542969 102.152344 C 49.738281 102.152344 49.914062 102.117188 50.066406 102.070312 C 50.261719 102.070312 50.4375 102.046875 50.585938 102 L 49.320312 105.367188 C 49.261719 105.613281 49.214844 105.808594 49.171875 105.960938 C 49.171875 105.960938 49.171875 105.984375 49.171875 106.042969 C 49.171875 106.042969 49.171875 106.066406 49.171875 106.113281 C 49.171875 106.113281 49.195312 106.136719 49.238281 106.191406 C 49.238281 106.191406 49.238281 106.214844 49.238281 106.261719 C 49.285156 106.414062 49.414062 106.484375 49.613281 106.484375 C 50.019531 106.542969 50.367188 106.332031 50.65625 105.890625 C 50.761719 105.695312 50.914062 105.367188 51.109375 104.914062 L 52.085938 102.371094 C 52.480469 102.417969 52.910156 102.453125 53.351562 102.453125 L 52.308594 105.285156 C 52.0625 105.832031 51.933594 106.191406 51.933594 106.332031 C 51.933594 106.4375 51.957031 106.542969 52.003906 106.632812 C 52.003906 106.691406 52.039062 106.714844 52.085938 106.714844 C 52.132812 106.714844 52.15625 106.714844 52.15625 106.714844 C 52.308594 106.761719 52.457031 106.691406 52.609375 106.484375 C 52.65625 106.4375 52.738281 106.332031 52.828125 106.191406 L 53.0625 106.332031 C 52.65625 107.03125 52.191406 107.332031 51.632812 107.238281 C 51.285156 107.179688 51.039062 107.0625 50.890625 106.867188 C 50.785156 106.714844 50.738281 106.542969 50.738281 106.332031 C 50.691406 106.390625 50.632812 106.414062 50.585938 106.414062 C 50.542969 106.460938 50.484375 106.507812 50.4375 106.566406 C 50.390625 106.609375 50.34375 106.65625 50.285156 106.714844 C 50.238281 106.714844 50.167969 106.738281 50.066406 106.785156 C 50.019531 106.832031 49.9375 106.867188 49.84375 106.867188 C 49.738281 106.914062 49.667969 106.9375 49.613281 106.9375 C 49.519531 106.9375 49.414062 106.9375 49.320312 106.9375 C 49.214844 106.984375 49.113281 106.984375 49.019531 106.9375 C 48.613281 106.890625 48.324219 106.738281 48.125 106.484375 C 48.066406 106.4375 48.042969 106.390625 48.042969 106.332031 C 47.996094 106.285156 47.972656 106.214844 47.972656 106.113281 C 47.972656 106.066406 47.972656 106.019531 47.972656 105.960938 C 47.972656 105.914062 47.972656 105.832031 47.972656 105.738281 C 47.972656 105.589844 48.019531 105.390625 48.125 105.136719 L 48.867188 103.195312 C 48.960938 102.941406 49.019531 102.765625 49.019531 102.671875 C 49.019531 102.570312 48.9375 102.5 48.796875 102.453125 C 48.742188 102.453125 48.71875 102.453125 48.71875 102.453125 C 48.671875 102.453125 48.613281 102.453125 48.566406 102.453125 C 48.566406 102.453125 48.542969 102.417969 48.496094 102.371094 C 48.496094 102.371094 48.460938 102.371094 48.414062 102.371094 Z M 48.414062 102.371094 "/>
<path style=" stroke:none;fill-rule:nonzero;fill:rgb(67.843139%,60.000002%,38.82353%);fill-opacity:1;" d="M 54.328125 102.976562 L 54.410156 102.742188 C 55.046875 102.648438 55.628906 102.546875 56.128906 102.453125 C 56.128906 102.546875 56.128906 102.648438 56.128906 102.742188 C 56.128906 102.894531 56.128906 103.066406 56.128906 103.265625 C 56.523438 102.71875 57.070312 102.453125 57.765625 102.453125 C 58.171875 102.394531 58.476562 102.5 58.671875 102.742188 C 58.824219 102.894531 58.894531 103.089844 58.894531 103.347656 C 58.894531 103.589844 58.871094 103.894531 58.824219 104.242188 L 58.441406 105.660156 C 58.347656 106.167969 58.300781 106.460938 58.300781 106.566406 C 58.300781 106.761719 58.371094 106.867188 58.519531 106.867188 C 58.519531 106.867188 58.542969 106.867188 58.589844 106.867188 C 58.648438 106.867188 58.671875 106.832031 58.671875 106.785156 C 58.71875 106.785156 58.742188 106.785156 58.742188 106.785156 C 58.800781 106.738281 58.824219 106.714844 58.824219 106.714844 C 58.871094 106.609375 58.949219 106.4375 59.042969 106.191406 L 59.347656 106.261719 C 59.148438 107.0625 58.71875 107.460938 58.066406 107.460938 C 57.765625 107.460938 57.523438 107.390625 57.324219 107.238281 C 57.277344 107.179688 57.242188 107.132812 57.242188 107.085938 C 57.195312 107.03125 57.152344 106.960938 57.09375 106.867188 C 57.09375 106.808594 57.09375 106.761719 57.09375 106.714844 C 57.046875 106.65625 57.023438 106.589844 57.023438 106.484375 C 57.023438 106.285156 57.09375 105.960938 57.242188 105.519531 L 57.546875 104.089844 C 57.59375 104.042969 57.625 103.996094 57.625 103.941406 C 57.625 103.894531 57.625 103.847656 57.625 103.789062 C 57.625 103.742188 57.625 103.695312 57.625 103.636719 C 57.625 103.589844 57.648438 103.542969 57.695312 103.5 C 57.648438 103.300781 57.59375 103.171875 57.546875 103.113281 C 57.5 103.066406 57.453125 103.046875 57.394531 103.046875 C 57.394531 103 57.371094 102.976562 57.324219 102.976562 C 57.277344 102.976562 57.242188 102.976562 57.242188 102.976562 C 57.195312 102.976562 57.152344 102.976562 57.09375 102.976562 C 56.847656 102.976562 56.628906 103.089844 56.429688 103.347656 C 56.277344 103.542969 56.152344 103.789062 56.046875 104.089844 L 55.304688 107.390625 L 54.027344 107.390625 L 54.851562 103.71875 C 54.898438 103.464844 54.933594 103.300781 54.933594 103.195312 C 54.933594 103.089844 54.851562 103.046875 54.699219 103.046875 C 54.699219 103.046875 54.675781 103.046875 54.628906 103.046875 C 54.582031 103 54.558594 102.976562 54.558594 102.976562 C 54.503906 102.976562 54.457031 102.976562 54.410156 102.976562 C 54.410156 102.976562 54.375 102.976562 54.328125 102.976562 Z M 54.328125 102.976562 "/>
<path style=" stroke:none;fill-rule:nonzero;fill:rgb(67.843139%,60.000002%,38.82353%);fill-opacity:1;" d="M 62.867188 106.191406 L 62.785156 106.632812 C 62.4375 106.9375 62.0625 107.085938 61.667969 107.085938 C 61.367188 107.132812 61.113281 107.085938 60.914062 106.9375 C 60.714844 106.738281 60.589844 106.484375 60.542969 106.191406 C 60.542969 105.984375 60.566406 105.660156 60.613281 105.21875 L 60.996094 102.671875 L 60.320312 102.742188 L 60.390625 102.371094 C 60.785156 102.324219 61.144531 102.117188 61.4375 101.777344 C 61.738281 101.476562 61.960938 101.105469 62.109375 100.652344 L 62.480469 100.570312 L 62.261719 102.152344 L 63.238281 102.070312 L 63.15625 102.453125 L 62.191406 102.523438 L 61.890625 105.136719 C 61.84375 105.636719 61.820312 105.960938 61.820312 106.113281 C 61.820312 106.261719 61.867188 106.355469 61.960938 106.414062 C 62.007812 106.460938 62.039062 106.484375 62.039062 106.484375 C 62.085938 106.484375 62.109375 106.484375 62.109375 106.484375 C 62.109375 106.484375 62.132812 106.484375 62.191406 106.484375 C 62.191406 106.484375 62.214844 106.484375 62.261719 106.484375 C 62.414062 106.484375 62.609375 106.390625 62.867188 106.191406 Z M 62.867188 106.191406 "/>
<path style=" stroke:none;fill-rule:nonzero;fill:rgb(67.843139%,60.000002%,38.82353%);fill-opacity:1;" d="M 63.527344 102.371094 L 63.527344 102.152344 C 63.679688 102.09375 63.828125 102.046875 63.980469 102 C 64.085938 102 64.203125 101.976562 64.351562 101.917969 C 64.503906 101.871094 64.632812 101.824219 64.734375 101.777344 C 64.875 101.722656 65.003906 101.652344 65.105469 101.546875 C 65.152344 101.652344 65.175781 101.722656 65.175781 101.777344 C 65.234375 102.023438 65.257812 102.324219 65.257812 102.671875 C 65.351562 102.371094 65.457031 102.117188 65.558594 101.917969 C 65.804688 101.628906 66.105469 101.417969 66.453125 101.324219 C 66.699219 101.324219 66.90625 101.371094 67.046875 101.476562 C 67.199219 101.570312 67.304688 101.722656 67.347656 101.917969 C 67.347656 101.976562 67.347656 102.023438 67.347656 102.070312 C 67.347656 102.117188 67.347656 102.175781 67.347656 102.21875 C 67.347656 102.265625 67.324219 102.324219 67.28125 102.371094 C 67.28125 102.417969 67.257812 102.476562 67.199219 102.523438 C 67.199219 102.570312 67.175781 102.59375 67.128906 102.59375 C 67.128906 102.648438 67.105469 102.671875 67.046875 102.671875 C 67 102.71875 66.976562 102.742188 66.976562 102.742188 C 66.929688 102.742188 66.871094 102.765625 66.828125 102.824219 C 66.628906 102.824219 66.476562 102.765625 66.375 102.671875 C 66.375 102.671875 66.351562 102.648438 66.304688 102.59375 C 66.304688 102.546875 66.304688 102.523438 66.304688 102.523438 C 66.257812 102.476562 66.234375 102.453125 66.234375 102.453125 C 66.234375 102.300781 66.28125 102.175781 66.375 102.070312 C 66.328125 101.976562 66.257812 101.917969 66.152344 101.917969 C 65.910156 101.976562 65.699219 102.21875 65.558594 102.671875 C 65.457031 102.976562 65.386719 103.5 65.328125 104.242188 L 65.257812 106.566406 L 63.980469 106.785156 L 64.203125 103.046875 C 64.203125 102.789062 64.203125 102.617188 64.203125 102.523438 C 64.15625 102.417969 64.0625 102.371094 63.910156 102.371094 C 63.910156 102.371094 63.886719 102.371094 63.828125 102.371094 C 63.785156 102.371094 63.761719 102.371094 63.761719 102.371094 C 63.714844 102.371094 63.65625 102.371094 63.609375 102.371094 C 63.609375 102.371094 63.585938 102.371094 63.527344 102.371094 Z M 63.527344 102.371094 "/>
<path style=" stroke:none;fill-rule:nonzero;fill:rgb(67.843139%,60.000002%,38.82353%);fill-opacity:1;" d="M 69.972656 105.285156 L 68.253906 101.917969 C 68.105469 101.675781 67.976562 101.523438 67.871094 101.476562 C 67.777344 101.417969 67.628906 101.417969 67.429688 101.476562 L 67.429688 101.175781 C 67.523438 101.175781 67.628906 101.152344 67.722656 101.105469 C 67.824219 101.105469 67.917969 101.070312 68.023438 101.023438 C 68.128906 101.023438 68.21875 101 68.324219 100.953125 C 68.429688 100.894531 68.523438 100.871094 68.628906 100.871094 C 68.71875 100.828125 68.824219 100.804688 68.917969 100.804688 C 69.023438 100.746094 69.148438 100.699219 69.300781 100.652344 C 69.394531 100.652344 69.5 100.628906 69.589844 100.570312 C 69.695312 100.523438 69.800781 100.476562 69.894531 100.429688 L 69.894531 100.722656 C 69.695312 100.828125 69.566406 100.894531 69.519531 100.953125 C 69.417969 101 69.371094 101.070312 69.371094 101.175781 C 69.371094 101.222656 69.394531 101.300781 69.441406 101.394531 L 70.496094 103.636719 L 71.242188 101.175781 C 71.296875 101.070312 71.320312 101 71.320312 100.953125 C 71.414062 100.746094 71.4375 100.59375 71.390625 100.5 C 71.34375 100.351562 71.21875 100.304688 71.019531 100.351562 C 71.019531 100.351562 70.996094 100.375 70.9375 100.429688 C 70.9375 100.429688 70.914062 100.429688 70.867188 100.429688 L 70.789062 100.199219 C 70.847656 100.152344 70.890625 100.128906 70.9375 100.128906 C 70.996094 100.070312 71.042969 100.046875 71.089844 100.046875 C 71.148438 100 71.171875 99.980469 71.171875 99.980469 C 71.21875 99.921875 71.265625 99.898438 71.320312 99.898438 C 71.519531 99.804688 71.695312 99.675781 71.84375 99.527344 C 71.84375 99.527344 71.867188 99.546875 71.914062 99.605469 C 71.914062 99.605469 71.914062 99.628906 71.914062 99.675781 C 71.914062 99.675781 71.9375 99.699219 71.996094 99.746094 C 71.996094 99.746094 71.996094 99.78125 71.996094 99.828125 C 71.996094 99.828125 71.996094 99.851562 71.996094 99.898438 C 71.996094 99.957031 71.996094 100 71.996094 100.046875 C 71.996094 100.046875 71.996094 100.070312 71.996094 100.128906 C 71.996094 100.175781 71.996094 100.222656 71.996094 100.28125 C 71.996094 100.328125 71.867188 100.675781 71.613281 101.324219 L 70.113281 105.960938 C 70.019531 106.214844 69.917969 106.460938 69.824219 106.714844 C 69.71875 107.007812 69.625 107.214844 69.519531 107.308594 C 69.324219 107.65625 68.976562 107.914062 68.476562 108.0625 C 68.429688 108.0625 68.347656 108.085938 68.253906 108.132812 L 68.023438 107.390625 C 68.277344 107.4375 68.476562 107.4375 68.628906 107.390625 C 68.976562 107.285156 69.21875 107.0625 69.371094 106.714844 C 69.566406 106.355469 69.71875 106.019531 69.824219 105.660156 Z M 69.972656 105.285156 "/>
<path style=" stroke:none;fill-rule:nonzero;fill:rgb(67.843139%,60.000002%,38.82353%);fill-opacity:1;" d="M 79.929688 98.851562 L 80.21875 98.699219 C 80.371094 99.304688 80.394531 99.851562 80.300781 100.351562 C 80.148438 101.246094 79.652344 101.894531 78.800781 102.300781 C 78.105469 102.648438 77.457031 102.695312 76.851562 102.453125 C 76.304688 102.242188 75.851562 101.800781 75.503906 101.105469 C 75.410156 100.953125 75.328125 100.804688 75.28125 100.652344 C 75.238281 100.5 75.179688 100.328125 75.132812 100.128906 C 75.085938 99.980469 75.0625 99.828125 75.0625 99.675781 C 75.003906 99.480469 74.980469 99.304688 74.980469 99.152344 C 74.886719 98.203125 75.027344 97.386719 75.433594 96.691406 C 75.78125 96.085938 76.257812 95.632812 76.851562 95.332031 C 76.957031 95.285156 77.027344 95.261719 77.082031 95.261719 C 77.128906 95.214844 77.199219 95.15625 77.304688 95.113281 C 77.351562 95.113281 77.433594 95.113281 77.523438 95.113281 C 77.582031 95.066406 77.628906 95.042969 77.675781 95.042969 C 77.78125 95.042969 77.851562 95.042969 77.898438 95.042969 C 77.953125 95.042969 78 95.042969 78.046875 95.042969 C 78.105469 95.042969 78.152344 95.042969 78.199219 95.042969 C 78.257812 94.984375 78.304688 94.960938 78.347656 94.960938 C 78.546875 94.960938 78.675781 94.960938 78.722656 94.960938 C 78.824219 94.914062 78.929688 94.785156 79.023438 94.589844 L 79.546875 96.609375 L 79.253906 96.761719 C 79.046875 96.355469 78.894531 96.085938 78.800781 95.9375 C 78.746094 95.890625 78.699219 95.832031 78.652344 95.785156 C 78.605469 95.785156 78.546875 95.761719 78.5 95.714844 C 78.40625 95.65625 78.328125 95.632812 78.28125 95.632812 C 78.222656 95.585938 78.175781 95.566406 78.128906 95.566406 C 77.828125 95.460938 77.523438 95.484375 77.222656 95.632812 C 76.527344 95.984375 76.152344 96.738281 76.109375 97.875 C 76.109375 97.980469 76.109375 98.109375 76.109375 98.257812 C 76.109375 98.351562 76.132812 98.457031 76.175781 98.550781 C 76.175781 98.699219 76.175781 98.828125 76.175781 98.933594 C 76.234375 99.074219 76.257812 99.199219 76.257812 99.304688 C 76.351562 99.804688 76.503906 100.222656 76.699219 100.570312 C 76.957031 101.070312 77.257812 101.394531 77.605469 101.546875 C 77.953125 101.699219 78.328125 101.675781 78.722656 101.476562 C 79.371094 101.175781 79.777344 100.699219 79.929688 100.046875 C 79.976562 99.699219 79.976562 99.304688 79.929688 98.851562 Z M 79.929688 98.851562 "/>
<path style=" stroke:none;fill-rule:nonzero;fill:rgb(67.843139%,60.000002%,38.82353%);fill-opacity:1;" d="M 81.042969 92.789062 L 82.695312 98.027344 C 82.84375 98.527344 82.960938 98.828125 83.066406 98.933594 C 83.171875 99.074219 83.261719 99.105469 83.367188 99.003906 C 83.460938 98.957031 83.519531 98.851562 83.519531 98.699219 C 83.566406 98.609375 83.566406 98.433594 83.519531 98.179688 L 83.738281 98.109375 C 83.984375 98.851562 83.84375 99.398438 83.285156 99.746094 C 83.042969 99.898438 82.796875 99.957031 82.542969 99.898438 C 82.496094 99.898438 82.4375 99.875 82.390625 99.828125 C 82.34375 99.828125 82.265625 99.804688 82.171875 99.746094 C 82.125 99.699219 82.066406 99.652344 82.019531 99.605469 C 82.019531 99.546875 81.996094 99.503906 81.9375 99.457031 C 81.847656 99.304688 81.71875 99.003906 81.566406 98.550781 L 80.371094 94.808594 C 80.265625 94.566406 80.21875 94.414062 80.21875 94.367188 C 80.125 94.261719 80.023438 94.238281 79.929688 94.285156 C 79.871094 94.285156 79.824219 94.308594 79.777344 94.367188 C 79.777344 94.367188 79.742188 94.367188 79.695312 94.367188 C 79.695312 94.367188 79.675781 94.390625 79.628906 94.4375 C 79.570312 94.4375 79.546875 94.4375 79.546875 94.4375 L 79.476562 94.21875 C 80.023438 93.820312 80.546875 93.347656 81.042969 92.789062 Z M 81.042969 92.789062 "/>
<path style=" stroke:none;fill-rule:nonzero;fill:rgb(67.843139%,60.000002%,38.82353%);fill-opacity:1;" d="M 82.84375 94.738281 L 82.761719 94.4375 C 83.261719 93.984375 83.738281 93.496094 84.191406 92.9375 L 85.609375 96.238281 C 85.714844 96.480469 85.808594 96.65625 85.910156 96.761719 C 85.910156 96.761719 85.910156 96.785156 85.910156 96.832031 C 85.957031 96.832031 85.980469 96.832031 85.980469 96.832031 C 85.980469 96.878906 86.003906 96.910156 86.0625 96.910156 C 86.0625 96.910156 86.085938 96.910156 86.132812 96.910156 C 86.285156 96.957031 86.433594 96.933594 86.585938 96.832031 C 86.886719 96.632812 86.980469 96.261719 86.886719 95.714844 C 86.828125 95.460938 86.703125 95.113281 86.503906 94.660156 L 85.457031 92.195312 C 85.808594 91.941406 86.132812 91.648438 86.433594 91.300781 L 87.628906 94.136719 C 87.886719 94.691406 88.050781 95.042969 88.152344 95.191406 C 88.152344 95.191406 88.175781 95.191406 88.234375 95.191406 C 88.234375 95.238281 88.234375 95.261719 88.234375 95.261719 C 88.28125 95.261719 88.304688 95.261719 88.304688 95.261719 C 88.304688 95.261719 88.328125 95.285156 88.375 95.332031 C 88.433594 95.332031 88.480469 95.308594 88.523438 95.261719 C 88.675781 95.15625 88.757812 94.984375 88.757812 94.738281 C 88.757812 94.738281 88.757812 94.714844 88.757812 94.660156 C 88.699219 94.660156 88.675781 94.636719 88.675781 94.589844 C 88.675781 94.542969 88.675781 94.519531 88.675781 94.519531 C 88.675781 94.460938 88.675781 94.4375 88.675781 94.4375 L 88.976562 94.367188 C 89.175781 95.113281 89.023438 95.65625 88.523438 96.015625 C 88.28125 96.203125 88.003906 96.285156 87.710938 96.238281 C 87.609375 96.179688 87.457031 96.085938 87.257812 95.9375 C 87.257812 95.984375 87.257812 96.0625 87.257812 96.15625 C 87.257812 96.203125 87.257812 96.261719 87.257812 96.308594 C 87.210938 96.414062 87.175781 96.480469 87.175781 96.539062 C 87.175781 96.585938 87.15625 96.65625 87.109375 96.761719 C 87.003906 97.0625 86.804688 97.332031 86.503906 97.585938 C 86.15625 97.828125 85.808594 97.933594 85.457031 97.875 C 85.410156 97.875 85.367188 97.851562 85.308594 97.804688 C 85.261719 97.804688 85.214844 97.78125 85.15625 97.738281 C 85.109375 97.679688 85.0625 97.65625 85.015625 97.65625 C 84.960938 97.609375 84.914062 97.5625 84.867188 97.503906 C 84.808594 97.457031 84.785156 97.410156 84.785156 97.351562 C 84.738281 97.308594 84.714844 97.261719 84.714844 97.214844 C 84.65625 97.15625 84.632812 97.109375 84.632812 97.0625 C 84.585938 97.003906 84.5625 96.957031 84.5625 96.910156 L 83.738281 94.960938 C 83.636719 94.761719 83.566406 94.613281 83.519531 94.519531 C 83.414062 94.414062 83.320312 94.414062 83.214844 94.519531 C 83.171875 94.519531 83.113281 94.542969 83.066406 94.589844 C 83.066406 94.589844 83.042969 94.589844 82.996094 94.589844 C 82.996094 94.636719 82.960938 94.660156 82.914062 94.660156 C 82.914062 94.660156 82.890625 94.691406 82.84375 94.738281 Z M 82.84375 94.738281 "/>
<path style=" stroke:none;fill-rule:nonzero;fill:rgb(67.843139%,60.000002%,38.82353%);fill-opacity:1;" d="M 87.5625 87.480469 L 88.828125 89.722656 C 88.875 89.222656 89.046875 88.851562 89.351562 88.605469 C 89.699219 88.257812 90.105469 88.105469 90.546875 88.152344 C 90.894531 88.199219 91.21875 88.398438 91.523438 88.757812 C 91.871094 89.105469 92.148438 89.5 92.347656 89.953125 C 92.589844 90.59375 92.648438 91.242188 92.496094 91.894531 C 92.496094 92 92.472656 92.089844 92.417969 92.195312 C 92.371094 92.347656 92.324219 92.464844 92.277344 92.566406 C 92.21875 92.671875 92.171875 92.765625 92.125 92.871094 C 92.023438 92.972656 91.917969 93.066406 91.824219 93.171875 C 91.429688 93.566406 90.976562 93.742188 90.476562 93.695312 C 90.128906 93.636719 89.804688 93.460938 89.5 93.171875 C 89.304688 92.972656 89 92.464844 88.605469 91.671875 L 87.328125 89.5 C 87.234375 89.304688 87.132812 89.175781 87.039062 89.128906 C 86.980469 89.023438 86.886719 89.023438 86.738281 89.128906 C 86.679688 89.175781 86.585938 89.28125 86.433594 89.429688 L 86.285156 89.128906 C 86.433594 89.023438 86.5625 88.898438 86.65625 88.757812 C 86.757812 88.605469 86.851562 88.457031 86.957031 88.304688 C 87.0625 88.152344 87.15625 88.027344 87.257812 87.933594 C 87.351562 87.78125 87.457031 87.628906 87.5625 87.480469 Z M 89.351562 88.898438 C 89.046875 89.257812 89.105469 89.871094 89.5 90.777344 C 89.699219 91.171875 89.929688 91.570312 90.175781 91.976562 C 90.417969 92.324219 90.628906 92.589844 90.777344 92.789062 C 90.917969 92.9375 91.070312 93.042969 91.21875 93.089844 C 91.371094 93.089844 91.523438 93.042969 91.671875 92.9375 C 91.871094 92.742188 91.917969 92.441406 91.824219 92.042969 C 91.765625 91.589844 91.546875 91.046875 91.152344 90.394531 C 90.847656 89.847656 90.546875 89.429688 90.246094 89.128906 C 89.894531 88.78125 89.605469 88.699219 89.351562 88.898438 Z M 89.351562 88.898438 "/>
<path style=" stroke:none;fill-rule:nonzero;fill:rgb(67.843139%,60.000002%,38.82353%);fill-opacity:1;" d="M 10.175781 58.441406 L 10.175781 58 C 10.722656 57.953125 11.199219 57.824219 11.605469 57.625 C 11.894531 57.371094 12.148438 57.070312 12.347656 56.722656 C 12.5 56.429688 12.570312 56.128906 12.570312 55.828125 C 12.625 55.328125 12.476562 54.910156 12.128906 54.558594 C 12.070312 54.503906 12 54.457031 11.894531 54.410156 C 11.847656 54.351562 11.777344 54.304688 11.675781 54.257812 C 11.628906 54.257812 11.546875 54.234375 11.453125 54.175781 C 11.347656 54.175781 11.246094 54.175781 11.152344 54.175781 C 10.699219 54.175781 10.304688 54.386719 9.953125 54.78125 C 9.804688 54.976562 9.558594 55.375 9.199219 55.976562 C 8.699219 56.871094 8.304688 57.453125 8.003906 57.695312 C 7.910156 57.800781 7.804688 57.871094 7.703125 57.917969 C 7.609375 58.023438 7.480469 58.089844 7.328125 58.148438 C 7.179688 58.195312 7.0625 58.21875 6.957031 58.21875 C 6.808594 58.277344 6.65625 58.300781 6.503906 58.300781 C 5.808594 58.242188 5.261719 57.953125 4.867188 57.394531 C 4.519531 56.847656 4.34375 56.222656 4.34375 55.523438 C 4.34375 54.976562 4.460938 54.503906 4.714844 54.105469 C 4.808594 53.957031 4.9375 53.804688 5.085938 53.652344 L 4.261719 53.210938 L 4.261719 52.910156 L 6.957031 52.980469 L 6.957031 53.433594 C 6.410156 53.480469 5.980469 53.609375 5.691406 53.804688 C 5.132812 54.152344 4.84375 54.652344 4.785156 55.304688 C 4.785156 55.757812 4.914062 56.105469 5.167969 56.347656 C 5.414062 56.652344 5.738281 56.800781 6.132812 56.800781 C 6.480469 56.800781 6.785156 56.652344 7.027344 56.347656 C 7.132812 56.246094 7.304688 56 7.5625 55.605469 C 7.957031 54.851562 8.28125 54.304688 8.527344 53.957031 C 8.78125 53.503906 9.058594 53.210938 9.351562 53.0625 C 9.699219 52.804688 10.128906 52.679688 10.628906 52.679688 C 11.371094 52.679688 11.976562 52.957031 12.417969 53.503906 C 12.917969 54.003906 13.171875 54.652344 13.171875 55.453125 C 13.171875 55.605469 13.148438 55.757812 13.089844 55.90625 C 13.089844 56.046875 13.066406 56.199219 13.019531 56.347656 C 12.976562 56.5 12.917969 56.652344 12.871094 56.800781 C 12.765625 56.953125 12.695312 57.09375 12.648438 57.242188 C 12.546875 57.347656 12.417969 57.5 12.277344 57.695312 L 13.242188 58.21875 L 13.171875 58.519531 Z M 10.175781 58.441406 "/>
<path style=" stroke:none;fill-rule:nonzero;fill:rgb(67.843139%,60.000002%,38.82353%);fill-opacity:1;" d="M 11.371094 44.757812 L 11.453125 44.304688 C 12.148438 44.453125 12.71875 44.722656 13.171875 45.128906 C 13.277344 45.222656 13.347656 45.324219 13.394531 45.417969 C 13.496094 45.523438 13.589844 45.652344 13.695312 45.800781 C 13.742188 45.894531 13.800781 46.023438 13.847656 46.171875 C 13.894531 46.324219 13.949219 46.453125 13.996094 46.546875 C 14.089844 47 14.089844 47.496094 13.996094 48.042969 C 13.996094 48.148438 13.972656 48.265625 13.914062 48.414062 C 13.871094 48.519531 13.824219 48.648438 13.765625 48.796875 C 13.71875 48.890625 13.671875 48.996094 13.613281 49.089844 C 13.519531 49.238281 13.441406 49.367188 13.394531 49.472656 C 13.300781 49.566406 13.195312 49.667969 13.089844 49.761719 C 13.042969 49.867188 12.941406 49.9375 12.800781 49.996094 C 12.695312 50.089844 12.601562 50.167969 12.5 50.214844 C 12.394531 50.308594 12.300781 50.390625 12.195312 50.4375 C 11.300781 50.84375 10.257812 50.9375 9.058594 50.738281 C 7.910156 50.484375 6.980469 50.066406 6.285156 49.472656 C 6.191406 49.367188 6.085938 49.261719 5.980469 49.171875 C 5.890625 49.019531 5.785156 48.890625 5.691406 48.796875 C 5.632812 48.695312 5.5625 48.566406 5.460938 48.414062 C 5.414062 48.265625 5.367188 48.148438 5.320312 48.042969 C 5.167969 47.441406 5.132812 46.847656 5.238281 46.242188 C 5.390625 45.605469 5.65625 45.082031 6.0625 44.675781 C 6.109375 44.628906 6.15625 44.570312 6.214844 44.523438 C 6.261719 44.476562 6.308594 44.453125 6.367188 44.453125 C 6.410156 44.40625 6.457031 44.351562 6.503906 44.304688 C 6.5625 44.304688 6.609375 44.28125 6.65625 44.234375 L 5.761719 43.628906 L 5.84375 43.328125 L 8.675781 43.929688 L 8.605469 44.304688 C 8.0625 44.351562 7.585938 44.429688 7.179688 44.523438 C 7.132812 44.570312 7.0625 44.628906 6.957031 44.675781 C 6.863281 44.722656 6.785156 44.78125 6.738281 44.824219 C 6.632812 44.871094 6.5625 44.929688 6.503906 44.976562 C 6.457031 45.023438 6.390625 45.105469 6.285156 45.199219 C 6.238281 45.253906 6.191406 45.324219 6.132812 45.417969 C 6.085938 45.476562 6.0625 45.523438 6.0625 45.570312 C 6.015625 45.675781 5.957031 45.777344 5.914062 45.871094 C 5.914062 45.929688 5.914062 46 5.914062 46.09375 C 5.714844 46.894531 5.957031 47.519531 6.65625 47.972656 C 7.304688 48.414062 8.15625 48.742188 9.199219 48.9375 C 10.199219 49.136719 11.046875 49.171875 11.753906 49.019531 C 12.546875 48.820312 13.019531 48.289062 13.171875 47.441406 C 13.171875 47.347656 13.195312 47.242188 13.242188 47.148438 C 13.242188 47.042969 13.242188 46.953125 13.242188 46.847656 C 13.242188 46.742188 13.21875 46.671875 13.171875 46.625 C 13.171875 46.523438 13.148438 46.429688 13.089844 46.324219 C 13.089844 46.21875 13.066406 46.128906 13.019531 46.023438 C 13.019531 45.976562 13 45.894531 12.941406 45.800781 C 12.894531 45.695312 12.824219 45.628906 12.71875 45.570312 C 12.671875 45.476562 12.625 45.394531 12.570312 45.347656 C 12.277344 45.046875 11.871094 44.847656 11.371094 44.757812 Z M 11.371094 44.757812 "/>
<path style=" stroke:none;fill-rule:nonzero;fill:rgb(67.843139%,60.000002%,38.82353%);fill-opacity:1;" d="M 11.300781 39.65625 L 12.5 36.890625 L 10.175781 35.917969 C 9.875 35.824219 9.675781 35.777344 9.582031 35.777344 C 9.433594 35.824219 9.28125 35.941406 9.128906 36.148438 C 9.082031 36.300781 9.003906 36.449219 8.910156 36.589844 L 8.457031 36.371094 C 8.804688 35.777344 9.082031 35.195312 9.28125 34.652344 C 9.523438 34.105469 9.757812 33.523438 9.953125 32.929688 L 10.40625 33.082031 C 10.257812 33.429688 10.175781 33.675781 10.175781 33.824219 C 10.175781 33.976562 10.257812 34.105469 10.40625 34.199219 C 10.5 34.300781 10.628906 34.371094 10.78125 34.417969 L 16.167969 36.671875 C 16.460938 36.765625 16.667969 36.824219 16.761719 36.824219 C 16.914062 36.765625 17.0625 36.648438 17.214844 36.449219 C 17.261719 36.300781 17.332031 36.148438 17.433594 35.996094 L 17.886719 36.148438 C 17.785156 36.300781 17.714844 36.449219 17.667969 36.589844 C 17.5625 36.742188 17.480469 36.867188 17.433594 36.972656 C 17.390625 37.125 17.332031 37.265625 17.285156 37.414062 C 17.191406 37.566406 17.109375 37.71875 17.0625 37.867188 C 17.015625 38.019531 16.960938 38.171875 16.914062 38.320312 C 16.867188 38.472656 16.808594 38.613281 16.761719 38.761719 C 16.667969 38.914062 16.585938 39.066406 16.542969 39.214844 C 16.484375 39.367188 16.4375 39.515625 16.390625 39.65625 L 16.019531 39.515625 C 16.113281 39.167969 16.167969 38.914062 16.167969 38.761719 C 16.167969 38.714844 16.167969 38.667969 16.167969 38.613281 C 16.167969 38.566406 16.144531 38.542969 16.089844 38.542969 C 16.089844 38.496094 16.066406 38.4375 16.019531 38.390625 C 16.019531 38.390625 15.996094 38.367188 15.9375 38.320312 C 15.9375 38.320312 15.914062 38.320312 15.867188 38.320312 C 15.808594 38.261719 15.785156 38.238281 15.785156 38.238281 C 15.738281 38.238281 15.691406 38.214844 15.636719 38.171875 C 15.636719 38.171875 15.613281 38.171875 15.566406 38.171875 L 12.941406 37.042969 L 11.753906 39.890625 L 14.4375 40.933594 C 14.695312 41.085938 14.890625 41.132812 15.042969 41.085938 C 15.195312 41.085938 15.320312 40.957031 15.414062 40.714844 C 15.472656 40.65625 15.496094 40.632812 15.496094 40.632812 C 15.542969 40.585938 15.566406 40.539062 15.566406 40.480469 C 15.566406 40.480469 15.589844 40.457031 15.636719 40.410156 C 15.636719 40.367188 15.636719 40.332031 15.636719 40.332031 L 16.089844 40.480469 C 15.738281 41.132812 15.472656 41.703125 15.261719 42.210938 C 15.21875 42.351562 15.171875 42.503906 15.113281 42.652344 C 15.066406 42.804688 15.019531 42.957031 14.960938 43.105469 C 14.914062 43.257812 14.867188 43.410156 14.820312 43.558594 C 14.765625 43.710938 14.71875 43.851562 14.671875 44 L 14.21875 43.78125 C 14.367188 43.433594 14.4375 43.175781 14.4375 43.027344 C 14.4375 42.886719 14.347656 42.757812 14.148438 42.652344 C 14.148438 42.652344 14.113281 42.628906 14.066406 42.585938 C 14.066406 42.585938 14.042969 42.585938 13.996094 42.585938 C 13.949219 42.527344 13.914062 42.503906 13.914062 42.503906 C 13.871094 42.503906 13.824219 42.480469 13.765625 42.433594 L 8.375 40.261719 C 8.132812 40.109375 7.933594 40.0625 7.78125 40.109375 C 7.632812 40.109375 7.480469 40.238281 7.328125 40.480469 C 7.328125 40.480469 7.328125 40.515625 7.328125 40.5625 C 7.285156 40.609375 7.261719 40.65625 7.261719 40.714844 C 7.261719 40.714844 7.238281 40.738281 7.179688 40.785156 C 7.179688 40.839844 7.179688 40.863281 7.179688 40.863281 L 6.738281 40.714844 C 7.027344 40.109375 7.285156 39.5625 7.480469 39.066406 C 7.679688 38.519531 7.910156 37.890625 8.15625 37.195312 L 8.605469 37.414062 C 8.457031 37.71875 8.375 37.972656 8.375 38.171875 C 8.375 38.320312 8.457031 38.4375 8.605469 38.542969 C 8.699219 38.589844 8.828125 38.644531 8.980469 38.691406 Z M 11.300781 39.65625 "/>
<path style=" stroke:none;fill-rule:nonzero;fill:rgb(67.843139%,60.000002%,38.82353%);fill-opacity:1;" d="M 19.828125 28.890625 L 21.546875 30.457031 L 18.191406 35.625 L 17.808594 35.394531 C 18.003906 35.101562 18.109375 34.871094 18.109375 34.71875 C 18.15625 34.570312 18.109375 34.417969 17.957031 34.277344 C 17.957031 34.230469 17.933594 34.199219 17.886719 34.199219 C 17.886719 34.152344 17.855469 34.128906 17.808594 34.128906 C 17.808594 34.128906 17.785156 34.105469 17.738281 34.046875 C 17.691406 34.046875 17.667969 34.023438 17.667969 33.976562 L 12.800781 30.828125 C 12.546875 30.6875 12.347656 30.609375 12.195312 30.609375 C 12.046875 30.5625 11.894531 30.65625 11.753906 30.910156 C 11.652344 31.003906 11.546875 31.128906 11.453125 31.28125 L 11.082031 30.980469 C 11.175781 30.886719 11.277344 30.757812 11.371094 30.609375 C 11.417969 30.457031 11.5 30.328125 11.605469 30.238281 C 11.699219 30.085938 11.800781 29.957031 11.894531 29.863281 C 12 29.714844 12.09375 29.5625 12.195312 29.410156 C 12.5 28.957031 12.824219 28.414062 13.171875 27.761719 L 13.542969 28.0625 C 13.347656 28.367188 13.21875 28.585938 13.171875 28.738281 C 13.171875 28.890625 13.242188 29.039062 13.394531 29.191406 C 13.441406 29.238281 13.542969 29.308594 13.695312 29.410156 L 18.714844 32.699219 C 18.957031 32.851562 19.132812 32.90625 19.234375 32.851562 C 19.375 32.851562 19.527344 32.734375 19.675781 32.476562 L 20.050781 31.886719 C 20.304688 31.480469 20.433594 31.128906 20.433594 30.828125 C 20.433594 30.539062 20.28125 30.15625 19.980469 29.714844 C 19.933594 29.65625 19.910156 29.609375 19.910156 29.5625 C 19.851562 29.503906 19.828125 29.480469 19.828125 29.480469 C 19.78125 29.433594 19.734375 29.386719 19.675781 29.332031 C 19.675781 29.285156 19.652344 29.238281 19.609375 29.191406 Z M 19.828125 28.890625 "/>
<path style=" stroke:none;fill-rule:nonzero;fill:rgb(67.843139%,60.000002%,38.82353%);fill-opacity:1;" d="M 18.480469 20.804688 C 18.585938 20.699219 18.714844 20.605469 18.851562 20.503906 C 19.003906 20.363281 19.15625 20.257812 19.304688 20.210938 C 19.457031 20.105469 19.609375 20.003906 19.757812 19.910156 C 19.957031 19.851562 20.128906 19.804688 20.28125 19.757812 C 21.628906 19.457031 22.953125 19.933594 24.242188 21.175781 C 25.148438 22.082031 25.695312 23 25.890625 23.953125 C 25.890625 24.101562 25.890625 24.242188 25.890625 24.394531 C 25.9375 24.496094 25.9375 24.625 25.890625 24.777344 C 25.890625 24.917969 25.890625 25.042969 25.890625 25.148438 C 25.84375 25.300781 25.789062 25.449219 25.742188 25.589844 C 25.589844 26.089844 25.324219 26.566406 24.917969 27.019531 C 24.824219 27.113281 24.71875 27.214844 24.625 27.320312 C 24.476562 27.414062 24.347656 27.496094 24.242188 27.542969 C 24.148438 27.644531 24.023438 27.714844 23.871094 27.761719 C 23.765625 27.867188 23.648438 27.9375 23.5 27.984375 C 23.394531 28.039062 23.277344 28.0625 23.128906 28.0625 C 22.976562 28.109375 22.847656 28.132812 22.753906 28.132812 C 22.605469 28.191406 22.453125 28.214844 22.300781 28.214844 C 22.199219 28.214844 22.082031 28.191406 21.929688 28.132812 C 20.933594 28.039062 19.980469 27.566406 19.085938 26.714844 C 18.132812 25.765625 17.585938 24.800781 17.433594 23.800781 C 17.390625 23.695312 17.367188 23.570312 17.367188 23.429688 C 17.367188 23.277344 17.390625 23.128906 17.433594 22.976562 C 17.433594 22.871094 17.457031 22.753906 17.515625 22.605469 C 17.515625 22.453125 17.539062 22.324219 17.585938 22.222656 C 17.632812 22.082031 17.691406 21.953125 17.738281 21.847656 C 17.832031 21.699219 17.910156 21.582031 17.957031 21.476562 C 18.003906 21.375 18.085938 21.28125 18.191406 21.175781 C 18.285156 21.023438 18.386719 20.910156 18.480469 20.804688 Z M 18.714844 21.175781 C 18.410156 21.523438 18.285156 21.976562 18.328125 22.523438 C 18.433594 23.324219 19.0625 24.265625 20.199219 25.371094 C 21 26.066406 21.757812 26.589844 22.453125 26.9375 C 22.847656 27.136719 23.242188 27.238281 23.648438 27.238281 C 24 27.191406 24.324219 27.019531 24.625 26.714844 C 25.019531 26.320312 25.148438 25.824219 24.996094 25.21875 C 24.800781 24.476562 24.125 23.546875 22.976562 22.453125 C 22.175781 21.652344 21.453125 21.128906 20.804688 20.886719 C 19.957031 20.480469 19.257812 20.582031 18.714844 21.175781 Z M 18.714844 21.175781 "/>
<path style=" stroke:none;fill-rule:nonzero;fill:rgb(67.843139%,60.000002%,38.82353%);fill-opacity:1;" d="M 26.636719 21.175781 L 27.019531 20.886719 C 27.414062 21.328125 27.820312 21.628906 28.214844 21.78125 C 28.308594 21.78125 28.414062 21.804688 28.515625 21.847656 C 28.609375 21.847656 28.679688 21.847656 28.738281 21.847656 C 28.832031 21.90625 28.933594 21.929688 29.039062 21.929688 C 29.132812 21.882812 29.238281 21.847656 29.332031 21.847656 C 29.679688 21.804688 29.980469 21.675781 30.238281 21.476562 C 30.632812 21.175781 30.851562 20.804688 30.910156 20.363281 C 30.957031 20.304688 30.957031 20.234375 30.910156 20.128906 C 30.910156 20.027344 30.910156 19.933594 30.910156 19.828125 C 30.910156 19.734375 30.875 19.652344 30.828125 19.609375 C 30.78125 19.503906 30.734375 19.433594 30.675781 19.386719 C 30.386719 18.980469 29.957031 18.78125 29.410156 18.78125 C 29.15625 18.78125 28.714844 18.804688 28.0625 18.863281 C 27.066406 19.015625 26.367188 19.0625 25.960938 19.015625 C 25.414062 18.910156 24.972656 18.632812 24.625 18.191406 C 24.171875 17.585938 24.046875 16.960938 24.242188 16.308594 C 24.441406 15.714844 24.847656 15.195312 25.4375 14.742188 C 25.890625 14.390625 26.367188 14.21875 26.867188 14.21875 C 27.019531 14.21875 27.191406 14.21875 27.390625 14.21875 L 27.238281 13.324219 L 27.460938 13.171875 L 29.039062 15.261719 L 28.65625 15.496094 C 28.308594 15.148438 27.960938 14.914062 27.609375 14.820312 C 27.019531 14.566406 26.4375 14.625 25.890625 14.972656 C 25.542969 15.261719 25.347656 15.589844 25.289062 15.9375 C 25.242188 16.285156 25.324219 16.609375 25.519531 16.914062 C 25.71875 17.214844 26.019531 17.367188 26.414062 17.367188 C 26.566406 17.414062 26.867188 17.390625 27.308594 17.285156 C 27.519531 17.285156 27.691406 17.261719 27.84375 17.214844 C 27.984375 17.214844 28.132812 17.214844 28.285156 17.214844 C 28.4375 17.167969 28.609375 17.132812 28.808594 17.132812 C 28.957031 17.132812 29.109375 17.109375 29.261719 17.0625 C 29.761719 17.0625 30.15625 17.109375 30.457031 17.214844 C 30.851562 17.367188 31.210938 17.632812 31.503906 18.039062 C 31.957031 18.632812 32.105469 19.28125 31.957031 19.980469 C 31.851562 20.628906 31.480469 21.210938 30.828125 21.699219 C 30.734375 21.804688 30.609375 21.882812 30.457031 21.929688 C 30.304688 22.023438 30.15625 22.105469 30.003906 22.152344 C 29.910156 22.199219 29.761719 22.257812 29.5625 22.300781 C 29.410156 22.300781 29.261719 22.324219 29.109375 22.371094 C 28.957031 22.371094 28.761719 22.371094 28.515625 22.371094 L 28.65625 23.429688 L 28.4375 23.648438 Z M 26.636719 21.175781 "/>
<path style=" stroke:none;fill-rule:nonzero;fill:rgb(67.843139%,60.000002%,38.82353%);fill-opacity:1;" d="M 32.78125 16.84375 L 33.152344 16.609375 C 33.5 17.109375 33.847656 17.457031 34.199219 17.667969 C 34.546875 17.867188 34.929688 17.957031 35.324219 17.957031 C 35.671875 17.957031 35.996094 17.886719 36.300781 17.738281 C 36.742188 17.492188 37.019531 17.167969 37.125 16.761719 C 37.265625 16.367188 37.242188 16.019531 37.042969 15.714844 C 36.847656 15.261719 36.472656 14.996094 35.917969 14.890625 C 35.671875 14.84375 35.21875 14.820312 34.570312 14.820312 C 33.523438 14.765625 32.828125 14.695312 32.476562 14.601562 C 32.375 14.542969 32.257812 14.496094 32.105469 14.449219 C 32.003906 14.347656 31.910156 14.242188 31.804688 14.148438 C 31.652344 14.089844 31.550781 13.996094 31.503906 13.847656 C 31.410156 13.742188 31.328125 13.648438 31.28125 13.542969 C 30.933594 12.894531 30.933594 12.253906 31.28125 11.605469 C 31.582031 11.058594 32.023438 10.628906 32.628906 10.328125 C 33.128906 10.082031 33.628906 9.976562 34.128906 10.023438 C 34.277344 10.023438 34.453125 10.058594 34.652344 10.105469 L 34.652344 9.210938 L 34.953125 9.058594 L 36.148438 11.371094 L 35.695312 11.605469 C 35.394531 11.199219 35.101562 10.90625 34.800781 10.699219 C 34.253906 10.351562 33.675781 10.328125 33.070312 10.628906 C 32.675781 10.824219 32.433594 11.105469 32.328125 11.453125 C 32.175781 11.800781 32.199219 12.148438 32.398438 12.5 C 32.546875 12.800781 32.804688 13 33.152344 13.101562 C 33.347656 13.101562 33.675781 13.125 34.128906 13.171875 C 34.277344 13.171875 34.417969 13.171875 34.570312 13.171875 C 34.71875 13.171875 34.894531 13.171875 35.101562 13.171875 C 35.242188 13.171875 35.394531 13.171875 35.542969 13.171875 C 35.695312 13.21875 35.847656 13.253906 35.996094 13.253906 C 36.496094 13.300781 36.890625 13.394531 37.195312 13.542969 C 37.589844 13.742188 37.890625 14.066406 38.089844 14.519531 C 38.4375 15.171875 38.496094 15.84375 38.238281 16.542969 C 38.042969 17.191406 37.589844 17.691406 36.890625 18.039062 C 36.300781 18.339844 35.671875 18.457031 35.023438 18.410156 C 34.871094 18.410156 34.671875 18.386719 34.417969 18.339844 L 34.417969 19.457031 L 34.199219 19.539062 Z M 32.78125 16.84375 "/>
<path style=" stroke:none;fill-rule:nonzero;fill:rgb(67.843139%,60.000002%,38.82353%);fill-opacity:1;" d="M 49.089844 11.371094 L 49.238281 13.777344 L 43.257812 15.195312 L 43.105469 14.742188 C 43.5 14.648438 43.757812 14.542969 43.851562 14.449219 C 44 14.347656 44.082031 14.195312 44.082031 13.996094 C 44.082031 13.996094 44.082031 13.972656 44.082031 13.925781 C 44.023438 13.871094 44 13.847656 44 13.847656 C 44 13.800781 44 13.742188 44 13.695312 C 44 13.648438 44 13.625 44 13.625 L 42.652344 7.933594 C 42.605469 7.632812 42.527344 7.457031 42.433594 7.410156 C 42.328125 7.261719 42.152344 7.214844 41.910156 7.261719 C 41.851562 7.261719 41.804688 7.261719 41.757812 7.261719 C 41.703125 7.261719 41.679688 7.261719 41.679688 7.261719 C 41.632812 7.261719 41.585938 7.261719 41.539062 7.261719 C 41.480469 7.304688 41.433594 7.339844 41.386719 7.339844 L 41.304688 6.886719 C 41.457031 6.832031 41.609375 6.808594 41.757812 6.808594 C 41.957031 6.761719 42.132812 6.714844 42.28125 6.667969 C 42.433594 6.667969 42.585938 6.644531 42.734375 6.585938 C 42.886719 6.585938 43.027344 6.5625 43.175781 6.515625 C 43.734375 6.367188 44.351562 6.191406 45.046875 5.992188 L 45.128906 6.433594 C 44.78125 6.539062 44.546875 6.644531 44.453125 6.738281 C 44.304688 6.832031 44.222656 6.957031 44.222656 7.109375 C 44.222656 7.214844 44.257812 7.363281 44.304688 7.5625 L 45.652344 13.394531 C 45.742188 13.695312 45.847656 13.871094 45.953125 13.925781 C 46.046875 13.972656 46.242188 13.972656 46.546875 13.925781 L 47.21875 13.777344 C 47.671875 13.671875 47.996094 13.496094 48.195312 13.253906 C 48.390625 13 48.542969 12.625 48.648438 12.128906 C 48.695312 11.929688 48.71875 11.699219 48.71875 11.453125 Z M 49.089844 11.371094 "/>
<path style=" stroke:none;fill-rule:nonzero;fill:rgb(67.843139%,60.000002%,38.82353%);fill-opacity:1;" d="M 55 11.082031 L 52.238281 11.152344 L 51.933594 12.046875 C 51.832031 12.347656 51.785156 12.546875 51.785156 12.648438 C 51.785156 12.847656 51.910156 12.953125 52.15625 12.953125 C 52.261719 13 52.433594 13.019531 52.679688 13.019531 L 52.757812 13.472656 C 52.609375 13.472656 52.480469 13.472656 52.386719 13.472656 C 52.285156 13.472656 52.191406 13.472656 52.085938 13.472656 C 51.933594 13.472656 51.808594 13.472656 51.714844 13.472656 C 51.609375 13.472656 51.515625 13.472656 51.414062 13.472656 C 51.0625 13.472656 50.609375 13.519531 50.066406 13.625 L 50.066406 13.101562 C 50.261719 13.101562 50.414062 13.078125 50.519531 13.019531 C 50.808594 12.976562 51.039062 12.800781 51.179688 12.5 C 51.285156 12.300781 51.390625 12.046875 51.480469 11.753906 L 54.027344 4.566406 L 57.171875 11.894531 C 57.324219 12.300781 57.5 12.546875 57.695312 12.648438 C 57.894531 12.742188 58.148438 12.800781 58.441406 12.800781 L 58.519531 13.253906 C 57.824219 13.195312 57.171875 13.195312 56.570312 13.253906 C 55.929688 13.253906 55.28125 13.300781 54.628906 13.394531 L 54.628906 12.953125 C 54.933594 12.894531 55.128906 12.871094 55.234375 12.871094 C 55.429688 12.824219 55.523438 12.71875 55.523438 12.570312 C 55.523438 12.523438 55.476562 12.347656 55.375 12.046875 Z M 52.386719 10.699219 L 54.78125 10.546875 L 53.585938 7.261719 Z M 52.386719 10.699219 "/>
<path style=" stroke:none;fill-rule:nonzero;fill:rgb(67.843139%,60.000002%,38.82353%);fill-opacity:1;" d="M 65.851562 14.601562 L 65.558594 14.519531 C 65.351562 14.019531 65.0625 13.371094 64.65625 12.570312 L 64.433594 12.128906 L 61.519531 6.585938 L 60.613281 12.195312 C 60.566406 12.5 60.566406 12.695312 60.613281 12.800781 C 60.671875 12.953125 60.808594 13.042969 61.066406 13.101562 C 61.214844 13.148438 61.367188 13.195312 61.519531 13.253906 L 61.4375 13.695312 C 61.34375 13.648438 61.238281 13.625 61.144531 13.625 C 61.042969 13.625 60.9375 13.601562 60.84375 13.542969 C 60.738281 13.542969 60.613281 13.519531 60.460938 13.472656 C 60.367188 13.472656 60.261719 13.472656 60.171875 13.472656 C 59.765625 13.371094 59.324219 13.300781 58.824219 13.253906 L 58.894531 12.800781 C 59.289062 12.847656 59.566406 12.847656 59.71875 12.800781 C 59.765625 12.800781 59.789062 12.800781 59.789062 12.800781 C 59.84375 12.800781 59.890625 12.777344 59.9375 12.71875 C 59.9375 12.671875 59.960938 12.648438 60.019531 12.648438 C 60.019531 12.601562 60.019531 12.546875 60.019531 12.5 C 60.066406 12.40625 60.113281 12.277344 60.171875 12.128906 L 61.144531 5.914062 C 61.089844 5.867188 61.042969 5.84375 60.996094 5.84375 C 60.996094 5.785156 60.960938 5.738281 60.914062 5.691406 C 60.867188 5.691406 60.84375 5.667969 60.84375 5.609375 C 60.785156 5.5625 60.738281 5.539062 60.691406 5.539062 C 60.542969 5.390625 60.34375 5.285156 60.089844 5.238281 L 60.171875 4.785156 C 60.367188 4.84375 60.566406 4.890625 60.761719 4.9375 C 60.960938 4.996094 61.167969 5.019531 61.367188 5.019531 C 61.566406 5.066406 61.785156 5.085938 62.039062 5.085938 C 62.238281 5.144531 62.4375 5.167969 62.632812 5.167969 L 65.851562 11.300781 L 66.523438 7.191406 C 66.582031 6.886719 66.582031 6.691406 66.523438 6.585938 C 66.476562 6.390625 66.175781 6.238281 65.628906 6.132812 L 65.699219 5.691406 C 65.910156 5.738281 66.105469 5.785156 66.304688 5.84375 C 66.546875 5.84375 66.78125 5.867188 66.976562 5.914062 C 67.175781 5.96875 67.394531 5.992188 67.652344 5.992188 C 67.847656 6.039062 68.070312 6.0625 68.324219 6.0625 L 68.253906 6.515625 C 67.847656 6.515625 67.582031 6.515625 67.429688 6.515625 C 67.28125 6.5625 67.175781 6.667969 67.128906 6.808594 C 67.070312 6.910156 67.023438 7.0625 66.976562 7.261719 Z M 65.851562 14.601562 "/>
<path style=" stroke:none;fill-rule:nonzero;fill:rgb(67.843139%,60.000002%,38.82353%);fill-opacity:1;" d="M 76.933594 8.839844 L 75.875 11.605469 L 75.503906 11.453125 C 75.5625 10.953125 75.5625 10.5 75.503906 10.105469 C 75.503906 10 75.480469 9.910156 75.433594 9.804688 C 75.433594 9.699219 75.410156 9.605469 75.351562 9.5 C 75.304688 9.457031 75.261719 9.386719 75.214844 9.28125 C 75.15625 9.175781 75.109375 9.105469 75.0625 9.058594 C 74.957031 8.957031 74.886719 8.886719 74.828125 8.839844 C 74.738281 8.734375 74.65625 8.652344 74.609375 8.605469 C 74.503906 8.5625 74.410156 8.503906 74.308594 8.457031 C 74.261719 8.410156 74.191406 8.386719 74.085938 8.386719 C 72.644531 7.828125 71.460938 8.757812 70.566406 11.152344 C 70.171875 12.253906 69.972656 13.171875 69.972656 13.925781 C 69.972656 14.820312 70.414062 15.4375 71.320312 15.785156 C 71.671875 15.9375 72.113281 15.996094 72.667969 15.9375 L 73.484375 13.925781 C 73.539062 13.71875 73.5625 13.566406 73.5625 13.472656 C 73.515625 13.277344 73.261719 13.078125 72.808594 12.871094 L 72.960938 12.429688 C 73.261719 12.570312 73.539062 12.695312 73.785156 12.800781 C 74.039062 12.894531 74.285156 13 74.539062 13.101562 C 74.828125 13.195312 75.109375 13.300781 75.351562 13.394531 C 75.609375 13.453125 75.875 13.519531 76.175781 13.625 L 76.027344 14.066406 C 75.734375 13.972656 75.503906 13.949219 75.351562 13.996094 C 75.304688 13.996094 75.28125 13.996094 75.28125 13.996094 C 75.238281 13.996094 75.214844 14.019531 75.214844 14.066406 C 75.15625 14.066406 75.132812 14.066406 75.132812 14.066406 C 75.132812 14.125 75.109375 14.148438 75.0625 14.148438 C 75.0625 14.195312 75.0625 14.21875 75.0625 14.21875 C 75.0625 14.265625 75.0625 14.300781 75.0625 14.300781 C 75.003906 14.347656 74.980469 14.367188 74.980469 14.367188 C 74.980469 14.414062 74.980469 14.449219 74.980469 14.449219 L 74.308594 16.238281 C 73.167969 16.542969 72.042969 16.496094 70.9375 16.089844 C 69.847656 15.691406 69.101562 14.996094 68.695312 13.996094 C 68.347656 13.042969 68.429688 11.929688 68.917969 10.628906 C 69.371094 9.386719 70.042969 8.503906 70.9375 8.015625 C 71.890625 7.515625 72.914062 7.457031 74.015625 7.863281 C 74.609375 8.109375 75.109375 8.457031 75.503906 8.910156 C 75.609375 9.058594 75.734375 9.257812 75.875 9.5 L 76.628906 8.757812 Z M 76.933594 8.839844 "/>
<path style=" stroke:none;fill-rule:nonzero;fill:rgb(67.843139%,60.000002%,38.82353%);fill-opacity:1;" d="M 82.171875 19.015625 L 80.601562 20.804688 L 75.28125 17.667969 L 75.503906 17.285156 C 75.851562 17.433594 76.109375 17.539062 76.257812 17.585938 C 76.410156 17.585938 76.527344 17.515625 76.628906 17.367188 C 76.675781 17.367188 76.699219 17.34375 76.699219 17.285156 C 76.757812 17.285156 76.78125 17.261719 76.78125 17.214844 C 76.78125 17.214844 76.804688 17.191406 76.851562 17.132812 C 76.851562 17.085938 76.886719 17.0625 76.933594 17.0625 L 79.847656 12.128906 C 80 11.824219 80.070312 11.628906 80.070312 11.523438 C 80.070312 11.371094 79.976562 11.199219 79.777344 11 C 79.71875 11 79.695312 11 79.695312 11 C 79.652344 10.953125 79.605469 10.929688 79.546875 10.929688 C 79.546875 10.882812 79.523438 10.847656 79.476562 10.847656 C 79.417969 10.804688 79.394531 10.78125 79.394531 10.78125 L 79.628906 10.40625 L 84.867188 13.472656 L 84.042969 15.566406 L 83.667969 15.34375 C 83.867188 14.84375 83.9375 14.449219 83.890625 14.148438 C 83.890625 13.894531 83.808594 13.671875 83.667969 13.472656 C 83.519531 13.324219 83.320312 13.171875 83.066406 13.019531 L 81.71875 12.195312 L 80.070312 15.042969 L 81.265625 15.785156 C 81.472656 15.890625 81.613281 15.9375 81.71875 15.9375 C 81.871094 15.9375 82.042969 15.820312 82.242188 15.566406 C 82.289062 15.519531 82.367188 15.414062 82.460938 15.261719 L 82.84375 15.566406 L 81.496094 17.738281 L 81.125 17.515625 C 81.265625 17.214844 81.371094 16.984375 81.417969 16.84375 C 81.417969 16.84375 81.417969 16.820312 81.417969 16.761719 C 81.417969 16.714844 81.417969 16.691406 81.417969 16.691406 C 81.417969 16.644531 81.394531 16.585938 81.347656 16.542969 C 81.347656 16.542969 81.347656 16.519531 81.347656 16.460938 C 81.300781 16.460938 81.265625 16.4375 81.265625 16.390625 C 81.21875 16.390625 81.195312 16.367188 81.195312 16.308594 C 81.148438 16.308594 81.125 16.308594 81.125 16.308594 C 81.066406 16.261719 81.042969 16.238281 81.042969 16.238281 L 79.777344 15.496094 L 78.28125 18.109375 C 78.128906 18.308594 78.070312 18.480469 78.128906 18.632812 C 78.128906 18.738281 78.257812 18.863281 78.5 19.015625 L 79.105469 19.386719 C 79.5 19.632812 79.847656 19.734375 80.148438 19.6875 C 80.453125 19.632812 80.824219 19.480469 81.265625 19.234375 C 81.324219 19.179688 81.371094 19.132812 81.417969 19.085938 C 81.472656 19.085938 81.519531 19.0625 81.566406 19.015625 C 81.566406 18.957031 81.589844 18.933594 81.648438 18.933594 C 81.695312 18.886719 81.742188 18.839844 81.789062 18.78125 Z M 82.171875 19.015625 "/>
<path style=" stroke:none;fill-rule:nonzero;fill:rgb(67.843139%,60.000002%,38.82353%);fill-opacity:1;" d="M 86.804688 26.34375 L 86.585938 26.125 C 86.679688 25.566406 86.78125 24.871094 86.886719 24.023438 L 86.886719 23.5 L 87.410156 17.214844 L 83.667969 21.476562 C 83.460938 21.734375 83.367188 21.90625 83.367188 22 C 83.320312 22.152344 83.390625 22.324219 83.589844 22.523438 C 83.636719 22.628906 83.738281 22.753906 83.890625 22.894531 L 83.589844 23.195312 C 83.496094 23.152344 83.414062 23.082031 83.367188 22.976562 C 83.261719 22.929688 83.171875 22.847656 83.066406 22.753906 C 83.019531 22.699219 82.9375 22.628906 82.84375 22.523438 C 82.796875 22.476562 82.71875 22.40625 82.613281 22.300781 C 82.519531 22.257812 82.4375 22.175781 82.390625 22.082031 C 82.289062 22.023438 82.195312 21.953125 82.089844 21.847656 C 81.996094 21.804688 81.914062 21.757812 81.871094 21.699219 C 81.765625 21.605469 81.671875 21.523438 81.566406 21.476562 L 81.871094 21.105469 C 82.171875 21.351562 82.390625 21.5 82.542969 21.558594 C 82.695312 21.605469 82.84375 21.582031 82.996094 21.476562 C 83.089844 21.429688 83.195312 21.328125 83.285156 21.175781 L 87.410156 16.460938 C 87.410156 16.414062 87.410156 16.367188 87.410156 16.308594 C 87.410156 16.261719 87.410156 16.214844 87.410156 16.167969 C 87.410156 16.121094 87.375 16.066406 87.328125 16.019531 C 87.328125 16.019531 87.328125 15.996094 87.328125 15.9375 C 87.234375 15.738281 87.109375 15.566406 86.957031 15.414062 L 87.257812 15.042969 C 87.609375 15.34375 87.910156 15.613281 88.152344 15.867188 C 88.410156 16.121094 88.734375 16.390625 89.128906 16.691406 L 88.605469 23.570312 L 91.371094 20.433594 C 91.523438 20.234375 91.625 20.0625 91.671875 19.910156 C 91.71875 19.710938 91.546875 19.433594 91.152344 19.085938 L 91.453125 18.714844 C 91.800781 19.0625 92.125 19.363281 92.417969 19.609375 C 92.71875 19.910156 93.042969 20.210938 93.390625 20.503906 L 93.089844 20.804688 C 92.847656 20.605469 92.648438 20.480469 92.496094 20.433594 C 92.300781 20.328125 92.148438 20.363281 92.042969 20.503906 C 92 20.503906 91.953125 20.535156 91.894531 20.582031 C 91.894531 20.582031 91.871094 20.605469 91.824219 20.652344 C 91.824219 20.652344 91.800781 20.675781 91.742188 20.734375 C 91.742188 20.734375 91.71875 20.757812 91.671875 20.804688 Z M 86.804688 26.34375 "/>
<path style=" stroke:none;fill-rule:nonzero;fill:rgb(67.843139%,60.000002%,38.82353%);fill-opacity:1;" d="M 90.546875 25.890625 L 90.847656 26.273438 C 90.453125 26.714844 90.175781 27.136719 90.023438 27.542969 C 89.976562 27.644531 89.953125 27.714844 89.953125 27.761719 C 89.894531 27.867188 89.871094 27.960938 89.871094 28.0625 C 89.871094 28.167969 89.871094 28.261719 89.871094 28.367188 C 89.871094 28.460938 89.894531 28.5625 89.953125 28.65625 C 90 29.015625 90.128906 29.285156 90.324219 29.480469 C 90.628906 29.886719 91 30.109375 91.453125 30.15625 C 91.847656 30.214844 92.195312 30.132812 92.496094 29.933594 C 92.847656 29.632812 93.019531 29.214844 93.019531 28.65625 C 93.019531 28.414062 92.972656 27.9375 92.871094 27.238281 C 92.71875 26.242188 92.671875 25.566406 92.71875 25.21875 C 92.765625 24.625 93.019531 24.148438 93.472656 23.800781 C 94.066406 23.347656 94.691406 23.21875 95.332031 23.429688 C 95.9375 23.625 96.457031 24 96.910156 24.542969 C 97.261719 24.996094 97.457031 25.449219 97.503906 25.890625 C 97.503906 26.042969 97.503906 26.242188 97.503906 26.496094 L 98.410156 26.34375 L 98.632812 26.566406 L 96.539062 28.132812 L 96.238281 27.84375 C 96.585938 27.4375 96.832031 27.066406 96.980469 26.714844 C 97.191406 26.066406 97.085938 25.496094 96.691406 24.996094 C 96.4375 24.648438 96.109375 24.453125 95.714844 24.394531 C 95.609375 24.394531 95.519531 24.394531 95.414062 24.394531 C 95.367188 24.394531 95.285156 24.417969 95.191406 24.476562 C 95.089844 24.476562 95.019531 24.496094 94.960938 24.542969 C 94.867188 24.601562 94.785156 24.648438 94.738281 24.695312 C 94.4375 24.894531 94.285156 25.195312 94.285156 25.589844 C 94.285156 25.742188 94.34375 26.042969 94.4375 26.496094 C 94.589844 27.34375 94.671875 27.984375 94.671875 28.4375 C 94.761719 28.933594 94.738281 29.332031 94.589844 29.632812 C 94.496094 30.039062 94.238281 30.386719 93.84375 30.6875 C 93.242188 31.128906 92.589844 31.304688 91.894531 31.210938 C 91.242188 31.152344 90.675781 30.804688 90.175781 30.15625 C 90.082031 30.0625 89.976562 29.933594 89.871094 29.785156 C 89.824219 29.632812 89.757812 29.480469 89.652344 29.332031 C 89.605469 29.191406 89.546875 29.039062 89.5 28.890625 C 89.453125 28.738281 89.429688 28.585938 89.429688 28.4375 C 89.429688 28.390625 89.429688 28.34375 89.429688 28.285156 C 89.429688 28.238281 89.429688 28.191406 89.429688 28.132812 C 89.429688 28.085938 89.429688 28.039062 89.429688 27.984375 C 89.429688 27.9375 89.429688 27.890625 89.429688 27.84375 L 88.304688 28.0625 L 88.152344 27.84375 Z M 90.546875 25.890625 "/>
<path style=" stroke:none;fill-rule:nonzero;fill:rgb(67.843139%,60.000002%,38.82353%);fill-opacity:1;" d="M 101.476562 32.78125 L 95.632812 35.996094 C 95.390625 36.148438 95.214844 36.277344 95.113281 36.371094 C 95.066406 36.472656 95.089844 36.671875 95.191406 36.972656 C 95.238281 37.066406 95.285156 37.195312 95.332031 37.34375 L 94.960938 37.566406 C 94.671875 36.972656 94.390625 36.394531 94.148438 35.847656 C 94.042969 35.695312 93.9375 35.542969 93.84375 35.394531 C 93.789062 35.300781 93.71875 35.171875 93.625 35.023438 C 93.519531 34.871094 93.4375 34.71875 93.390625 34.570312 C 93.289062 34.476562 93.195312 34.347656 93.089844 34.199219 L 93.542969 33.976562 C 93.695312 34.277344 93.84375 34.476562 93.996094 34.570312 C 94.089844 34.71875 94.238281 34.753906 94.4375 34.652344 C 94.496094 34.652344 94.519531 34.652344 94.519531 34.652344 C 94.566406 34.652344 94.613281 34.628906 94.671875 34.570312 C 94.671875 34.570312 94.691406 34.570312 94.738281 34.570312 C 94.738281 34.523438 94.761719 34.5 94.808594 34.5 L 100.652344 31.28125 L 100.5 30.980469 C 100.199219 30.433594 99.804688 30.132812 99.304688 30.085938 C 98.957031 30.039062 98.527344 30.085938 98.039062 30.238281 L 97.804688 29.863281 L 100.058594 29.109375 L 102.976562 34.5 L 101.105469 35.996094 L 100.953125 35.625 C 101.394531 35.171875 101.699219 34.800781 101.847656 34.5 C 102 34.046875 101.953125 33.605469 101.699219 33.152344 Z M 101.476562 32.78125 "/>
<path style=" stroke:none;fill-rule:nonzero;fill:rgb(67.843139%,60.000002%,38.82353%);fill-opacity:1;" d="M 100.28125 44.894531 L 97.957031 45.277344 L 95.9375 39.4375 L 96.390625 39.285156 C 96.539062 39.632812 96.65625 39.867188 96.761719 39.957031 C 96.855469 40.109375 96.980469 40.15625 97.132812 40.109375 C 97.191406 40.109375 97.238281 40.109375 97.285156 40.109375 C 97.339844 40.109375 97.363281 40.109375 97.363281 40.109375 C 97.410156 40.0625 97.457031 40.039062 97.503906 40.039062 C 97.503906 40.039062 97.527344 40.039062 97.585938 40.039062 L 103.046875 38.171875 C 103.347656 38.066406 103.519531 37.972656 103.566406 37.867188 C 103.671875 37.761719 103.695312 37.589844 103.648438 37.34375 C 103.648438 37.289062 103.648438 37.242188 103.648438 37.195312 C 103.648438 37.148438 103.648438 37.125 103.648438 37.125 C 103.589844 37.066406 103.566406 37.019531 103.566406 36.972656 C 103.566406 36.914062 103.566406 36.890625 103.566406 36.890625 L 104.019531 36.742188 L 105.972656 42.503906 L 103.941406 43.558594 L 103.800781 43.175781 C 104.300781 42.886719 104.625 42.605469 104.765625 42.351562 C 104.914062 42.152344 105.019531 41.933594 105.066406 41.679688 C 105.066406 41.480469 105.019531 41.238281 104.914062 40.933594 L 104.394531 39.515625 L 101.246094 40.5625 L 101.699219 41.910156 C 101.800781 42.109375 101.894531 42.257812 102 42.351562 C 102.105469 42.410156 102.300781 42.410156 102.59375 42.351562 C 102.648438 42.351562 102.777344 42.328125 102.976562 42.28125 L 103.125 42.734375 L 100.652344 43.558594 L 100.5 43.105469 C 100.804688 43.003906 101 42.910156 101.105469 42.804688 C 101.152344 42.804688 101.175781 42.78125 101.175781 42.734375 C 101.222656 42.734375 101.246094 42.710938 101.246094 42.652344 C 101.246094 42.605469 101.28125 42.585938 101.324219 42.585938 C 101.324219 42.527344 101.324219 42.480469 101.324219 42.433594 C 101.324219 42.433594 101.324219 42.410156 101.324219 42.351562 C 101.324219 42.304688 101.324219 42.28125 101.324219 42.28125 C 101.28125 42.234375 101.246094 42.1875 101.246094 42.132812 C 101.246094 42.132812 101.246094 42.109375 101.246094 42.0625 L 100.804688 40.714844 L 97.957031 41.679688 C 97.714844 41.78125 97.5625 41.886719 97.503906 41.980469 C 97.410156 42.132812 97.410156 42.328125 97.503906 42.585938 L 97.738281 43.257812 C 97.886719 43.710938 98.085938 44 98.328125 44.152344 C 98.585938 44.304688 98.980469 44.429688 99.527344 44.523438 C 99.722656 44.523438 99.933594 44.523438 100.128906 44.523438 Z M 100.28125 44.894531 "/>
<path style=" stroke:none;fill-rule:nonzero;fill:rgb(67.843139%,60.000002%,38.82353%);fill-opacity:1;" d="M 99.675781 47.371094 L 105.4375 46.324219 C 105.738281 46.277344 105.9375 46.195312 106.042969 46.09375 C 106.136719 46 106.191406 45.824219 106.191406 45.570312 C 106.191406 45.523438 106.191406 45.476562 106.191406 45.417969 C 106.191406 45.371094 106.167969 45.347656 106.113281 45.347656 C 106.113281 45.300781 106.113281 45.253906 106.113281 45.199219 C 106.113281 45.152344 106.113281 45.128906 106.113281 45.128906 L 106.566406 44.976562 C 106.667969 45.71875 106.761719 46.371094 106.867188 46.917969 C 106.960938 47.472656 107.109375 48.089844 107.308594 48.796875 L 106.785156 48.867188 C 106.738281 48.519531 106.667969 48.265625 106.566406 48.125 C 106.460938 47.972656 106.34375 47.914062 106.191406 47.972656 C 106.136719 47.972656 106.089844 47.972656 106.042969 47.972656 C 106.042969 47.972656 106.019531 47.972656 105.972656 47.972656 C 105.914062 47.972656 105.890625 47.972656 105.890625 47.972656 C 105.84375 47.972656 105.785156 47.972656 105.738281 47.972656 L 99.980469 49.089844 C 99.675781 49.136719 99.503906 49.195312 99.457031 49.238281 C 99.304688 49.34375 99.234375 49.542969 99.234375 49.84375 C 99.28125 49.996094 99.304688 50.144531 99.304688 50.285156 L 98.851562 50.367188 C 98.851562 50.214844 98.828125 50.066406 98.78125 49.914062 C 98.78125 49.761719 98.78125 49.589844 98.78125 49.390625 C 98.734375 49.238281 98.710938 49.089844 98.710938 48.9375 C 98.652344 48.796875 98.632812 48.648438 98.632812 48.496094 C 98.585938 48.34375 98.527344 48.171875 98.480469 47.972656 C 98.480469 47.824219 98.457031 47.671875 98.410156 47.519531 C 98.351562 47.371094 98.304688 47.21875 98.257812 47.066406 C 98.203125 46.917969 98.15625 46.765625 98.109375 46.625 L 98.632812 46.546875 C 98.675781 46.894531 98.757812 47.125 98.851562 47.21875 C 98.957031 47.371094 99.085938 47.441406 99.234375 47.441406 C 99.28125 47.441406 99.328125 47.441406 99.386719 47.441406 C 99.433594 47.441406 99.457031 47.441406 99.457031 47.441406 C 99.503906 47.441406 99.558594 47.441406 99.605469 47.441406 C 99.605469 47.441406 99.628906 47.417969 99.675781 47.371094 Z M 99.675781 47.371094 "/>
<path style=" stroke:none;fill-rule:nonzero;fill:rgb(67.843139%,60.000002%,38.82353%);fill-opacity:1;" d="M 99.152344 58.148438 L 99.152344 57.847656 C 99.605469 57.546875 100.175781 57.128906 100.871094 56.570312 L 101.246094 56.277344 L 106.191406 52.386719 L 100.5 52.539062 C 100.199219 52.585938 100 52.632812 99.910156 52.679688 C 99.757812 52.78125 99.675781 52.957031 99.675781 53.210938 C 99.675781 53.257812 99.675781 53.304688 99.675781 53.351562 C 99.675781 53.351562 99.675781 53.375 99.675781 53.433594 C 99.675781 53.480469 99.675781 53.527344 99.675781 53.585938 C 99.675781 53.585938 99.675781 53.609375 99.675781 53.652344 L 99.152344 53.652344 C 99.152344 53.15625 99.152344 52.738281 99.152344 52.386719 C 99.152344 52.238281 99.152344 52.109375 99.152344 52.003906 C 99.152344 51.910156 99.152344 51.808594 99.152344 51.714844 C 99.152344 51.609375 99.128906 51.480469 99.085938 51.332031 C 99.085938 51.238281 99.085938 51.132812 99.085938 51.039062 L 99.527344 51.039062 C 99.582031 51.390625 99.628906 51.632812 99.675781 51.785156 C 99.675781 51.832031 99.699219 51.855469 99.757812 51.855469 C 99.757812 51.910156 99.78125 51.933594 99.828125 51.933594 C 99.875 51.980469 99.933594 52.003906 99.980469 52.003906 C 99.980469 52.0625 100 52.085938 100.058594 52.085938 C 100.152344 52.085938 100.304688 52.085938 100.5 52.085938 L 106.714844 51.855469 C 106.761719 51.808594 106.808594 51.785156 106.867188 51.785156 C 106.867188 51.738281 106.890625 51.691406 106.9375 51.632812 C 106.9375 51.585938 106.960938 51.5625 107.019531 51.5625 C 107.019531 51.515625 107.042969 51.457031 107.085938 51.414062 C 107.085938 51.367188 107.085938 51.308594 107.085938 51.261719 C 107.132812 51.214844 107.15625 51.15625 107.15625 51.109375 C 107.15625 51.0625 107.15625 51.015625 107.15625 50.960938 C 107.15625 50.914062 107.15625 50.84375 107.15625 50.738281 L 107.679688 50.738281 C 107.632812 51.238281 107.632812 51.667969 107.679688 52.003906 C 107.679688 52.363281 107.714844 52.757812 107.761719 53.210938 L 102.300781 57.546875 L 106.496094 57.476562 C 106.785156 57.429688 106.984375 57.371094 107.085938 57.324219 C 107.285156 57.21875 107.390625 56.894531 107.390625 56.347656 L 107.832031 56.347656 C 107.832031 56.546875 107.832031 56.753906 107.832031 56.953125 C 107.832031 57.195312 107.832031 57.429688 107.832031 57.625 C 107.832031 57.871094 107.867188 58.089844 107.914062 58.300781 C 107.914062 58.542969 107.914062 58.765625 107.914062 58.972656 L 107.460938 58.972656 C 107.414062 58.613281 107.367188 58.371094 107.308594 58.21875 C 107.261719 58.066406 107.132812 57.976562 106.9375 57.917969 C 106.9375 57.917969 106.914062 57.917969 106.867188 57.917969 C 106.808594 57.917969 106.761719 57.917969 106.714844 57.917969 C 106.714844 57.917969 106.691406 57.917969 106.632812 57.917969 C 106.589844 57.917969 106.566406 57.917969 106.566406 57.917969 Z M 99.152344 58.148438 "/>
<path style=" stroke:none;fill-rule:nonzero;fill:rgb(8.627451%,14.117648%,23.921569%);fill-opacity:1;" d="M 56.128906 96.609375 C 78.28125 96.609375 96.238281 78.652344 96.238281 56.5 C 96.238281 34.347656 78.28125 16.390625 56.128906 16.390625 C 33.976562 16.390625 16.019531 34.347656 16.019531 56.5 C 16.019531 78.652344 33.976562 96.609375 56.128906 96.609375 Z M 56.128906 96.609375 "/>
<path style=" stroke:none;fill-rule:nonzero;fill:rgb(8.627451%,14.117648%,23.921569%);fill-opacity:1;" d="M 56.128906 94.519531 C 35.101562 94.519531 18.039062 77.523438 18.039062 56.5 C 18.039062 35.476562 35.101562 18.410156 56.128906 18.410156 C 77.152344 18.410156 94.148438 35.476562 94.148438 56.5 C 94.148438 77.523438 77.152344 94.519531 56.128906 94.519531 Z M 56.128906 94.519531 "/>
<path style=" stroke:none;fill-rule:nonzero;fill:rgb(8.627451%,14.117648%,23.921569%);fill-opacity:1;" d="M 56.128906 95.632812 C 34.570312 95.632812 16.984375 78.046875 16.984375 56.5 C 16.984375 34.953125 34.570312 17.367188 56.128906 17.367188 C 77.675781 17.367188 95.261719 34.953125 95.261719 56.5 C 95.261719 78.046875 77.675781 95.632812 56.128906 95.632812 Z M 56.128906 17.957031 C 34.871094 17.957031 17.585938 35.242188 17.585938 56.5 C 17.585938 77.757812 34.871094 95.042969 56.128906 95.042969 C 77.375 95.042969 94.671875 77.757812 94.671875 56.5 C 94.671875 35.242188 77.375 17.957031 56.128906 17.957031 Z M 56.128906 17.957031 "/>
<path style=" stroke:none;fill-rule:nonzero;fill:rgb(67.843139%,60.000002%,38.82353%);fill-opacity:1;" d="M 56.128906 15.9375 C 33.746094 15.9375 15.566406 34.128906 15.566406 56.5 C 15.566406 78.871094 33.746094 97.0625 56.128906 97.0625 C 78.5 97.0625 96.691406 78.871094 96.691406 56.5 C 96.691406 34.128906 78.5 15.9375 56.128906 15.9375 Z M 56.128906 96.085938 C 34.277344 96.085938 16.542969 78.347656 16.542969 56.5 C 16.542969 34.652344 34.277344 16.914062 56.128906 16.914062 C 77.976562 16.914062 95.714844 34.652344 95.714844 56.5 C 95.714844 78.347656 77.976562 96.085938 56.128906 96.085938 Z M 56.128906 96.085938 "/>
<path style=" stroke:none;fill-rule:nonzero;fill:rgb(67.843139%,60.000002%,38.82353%);fill-opacity:1;" d="M 56.128906 17.957031 C 77.375 17.957031 94.671875 35.242188 94.671875 56.5 C 94.671875 77.757812 77.375 95.042969 56.128906 95.042969 C 34.871094 95.042969 17.585938 77.757812 17.585938 56.5 C 17.585938 35.242188 34.871094 17.957031 56.128906 17.957031 Z M 56.128906 18.933594 C 35.394531 18.933594 18.5625 35.777344 18.5625 56.5 C 18.5625 63.457031 20.503906 69.894531 23.800781 75.433594 L 88.457031 75.433594 C 91.742188 69.894531 93.695312 63.386719 93.695312 56.5 C 93.695312 35.777344 76.851562 18.933594 56.128906 18.933594 Z M 56.128906 94.066406 C 69.589844 94.066406 81.417969 86.875 88.003906 76.257812 L 24.242188 76.257812 C 30.910156 86.957031 42.652344 94.066406 56.128906 94.066406 Z M 56.128906 94.066406 "/>
<path style=" stroke:none;fill-rule:nonzero;fill:rgb(67.843139%,60.000002%,38.82353%);fill-opacity:1;" d="M 55.90625 38.914062 L 55.90625 29.933594 L 68.324219 25.742188 L 54.933594 21.023438 L 54.933594 38.914062 L 39.4375 48.71875 L 71.695312 48.71875 Z M 55.90625 38.914062 "/>
<path style=" stroke:none;fill-rule:nonzero;fill:rgb(67.843139%,60.000002%,38.82353%);fill-opacity:1;" d="M 39.738281 64.875 L 39.738281 51.109375 L 72.066406 51.109375 L 72.066406 65.027344 L 56.871094 74.085938 L 89.046875 74.085938 L 73.261719 64.804688 L 73.261719 49.914062 L 38.542969 49.914062 L 38.542969 64.957031 L 23.128906 74.085938 L 55.375 74.085938 Z M 39.738281 64.875 "/>
</g>
</svg>
