<svg viewBox="0 0 150.6 150" xmlns="http://www.w3.org/2000/svg" version="1.2" style="max-height: 500px" width="150.6" height="150"><defs><clipPath id="cp1" clipPathUnits="userSpaceOnUse"><path d="m0 0.24h150v149.53h-150z"/></clipPath><clipPath id="cp2" clipPathUnits="userSpaceOnUse"><path d="m0 0.24h150v149.53h-150z"/></clipPath></defs><style>.a{fill:#16243d}.b{fill:#ad9963}</style><path d="m75 149.1c40.9 0 74.1-33.2 74.1-74.1 0-40.9-33.2-74.1-74.1-74.1-40.9 0-74.1 33.2-74.1 74.1 0 40.9 33.2 74.1 74.1 74.1z" class="a"/><g clip-path="url(#cp1)"><path d="m75 150c-41.4 0-75-33.6-75-75 0-41.4 33.6-75 75-75 41.4 0 75 33.6 75 75 0 41.4-33.6 75-75 75zm0-148.2c-40.4 0-73.2 32.9-73.2 73.2 0 40.4 32.8 73.2 73.2 73.2 40.3 0 73.2-32.8 73.2-73.2 0-40.3-32.9-73.2-73.2-73.2z" class="b"/></g><path d="m75 149.1c40.9 0 74.1-33.2 74.1-74.1 0-40.9-33.2-74.1-74.1-74.1-40.9 0-74.1 33.2-74.1 74.1 0 40.9 33.2 74.1 74.1 74.1z" class="a"/><g clip-path="url(#cp2)"><path d="m75 150c-41.4 0-75-33.6-75-75 0-41.4 33.6-75 75-75 41.4 0 75 33.6 75 75 0 41.4-33.6 75-75 75zm0-148.2c-40.4 0-73.2 32.9-73.2 73.2 0 40.4 32.8 73.2 73.2 73.2 40.3 0 73.2-32.8 73.2-73.2 0-40.3-32.9-73.2-73.2-73.2z" class="b"/></g><path d="m32.6 117.1l0.5-0.3 2.7 2.4q0.8 0.8 1.1 1.3 0.6 0.8 0.3 1.8-0.1 0.8-0.9 1.7-0.2 0.3-0.5 0.5-0.3 0.3-0.6 0.5-0.3 0.2-0.7 0.4-0.3 0.2-0.7 0.3-1.5 0.6-3 0.3-1.4-0.3-2.8-1.6l-2.7-2.4 0.5-0.3q0.4 0.4 0.6 0.5 0.1 0 0.2 0 0 0.1 0.1 0.1 0.1 0 0.1-0.1 0.1 0 0.2 0 0 0 0.1-0.1 0 0 0.1 0 0-0.1 0.1-0.1 0 0 0.1-0.1l5.2-3.5q0.3-0.2 0.5-0.3 0.2-0.3-0.1-0.6 0 0-0.1-0.1 0 0-0.1-0.1 0-0.1-0.1-0.1 0-0.1-0.1-0.1zm2.2 1.9l-6.2 4.2q-0.3 0.2-0.4 0.3-0.2 0.2 0.2 0.6 0.6 0.5 1.1 0.8 0.5 0.2 1.1 0.1 1.2-0.1 2.9-1.1 0.2-0.1 0.5-0.3 0.3-0.2 0.5-0.4 0.3-0.2 0.5-0.4 0.2-0.3 0.4-0.5 0.9-1 0.7-1.7-0.1-0.4-0.8-1.1z" class="b"/><path d="m38.4 130l0.4 0.4q-0.1 0.1-0.3 0.2-0.2 0.1-0.4 0.1-0.2 0.1-0.4 0.2-0.2 0-0.4 0.1-1.2 0.1-2.2-0.6-0.9-0.6-1-1.4-0.3-0.9 0.4-1.7 0.1-0.2 0.3-0.4 0.1-0.2 0.3-0.4 0.2-0.1 0.4-0.3 0.2-0.2 0.4-0.3 1.2-0.8 2.4-0.7 0.3 0 0.5 0 0.3 0.1 0.5 0.1 0.3 0.1 0.5 0.2 0.2 0.1 0.4 0.3 0.6 0.4 0.9 1 0.2 0.7-0.2 1.3-0.7 1-2.5 0.7-1.1-0.2-2.3-0.9-0.1 0-0.2 0.1 0 0.1-0.1 0.1-0.1 0.1-0.1 0.2-0.1 0.1-0.1 0.2-0.3 0.4-0.3 0.8 0 0.6 0.5 0.9 0.7 0.5 1.6 0.2 0.1 0 0.3 0 0.1-0.1 0.2-0.1 0.1-0.1 0.2-0.1 0.2-0.1 0.3-0.2zm-1.9-2.5q0.7 0.6 1.6 0.5 0.1 0 0.2 0 0.2 0 0.3 0 0.1-0.1 0.3-0.1 0.1-0.1 0.2-0.2 0.5-0.2 0.8-0.6 0-0.1 0.1-0.2 0 0 0-0.1 0.1-0.1 0.1-0.1 0-0.1 0-0.2 0.1-0.3-0.2-0.5-0.6-0.4-1.9 0.4-0.2 0.1-0.4 0.2-0.2 0.2-0.4 0.3-0.2 0.2-0.4 0.3-0.2 0.2-0.3 0.3z" class="b"/><path d="m42.2 127.9l0.2-0.2q1.1 0.5 2.1 0.8-0.1 0.2-0.1 0.2-0.3 0.5-0.7 1 0.6-0.3 1-0.4 0.7-0.2 1.4 0.1 0.4 0.2 0.5 0.6 0.1 0.4-0.1 0.7-0.1 0.1-0.1 0.2-0.1 0.1-0.2 0.2-0.1 0-0.2 0.1 0 0-0.1 0.1-0.1 0-0.2 0-0.1 0-0.2 0-0.1 0-0.1 0-0.1-0.1-0.2-0.1-0.3-0.2-0.4-0.5 0-0.1 0-0.1 0 0 0.1-0.1 0 0 0-0.1 0 0 0-0.1 0.2-0.2 0.5-0.2 0.1-0.3-0.2-0.4-0.4-0.2-1.2 0.3-0.5 0.3-1.5 1.4l-2.2 2.2-1.4-0.8 3.4-3.6q0.4-0.4 0.5-0.6 0.1-0.2-0.2-0.3 0-0.1-0.1-0.1 0-0.1-0.1-0.1-0.1 0-0.1-0.1-0.1 0-0.1-0.1z" class="b"/><path d="m55.3 136.8l0.5 0.1q-0.7 1.1-1.5 1.6-1.5 1-3.3 0.4-1.5-0.6-2-1.8-0.5-1.1 0.1-2.5 0.1-0.3 0.2-0.6 0.2-0.3 0.4-0.6 0.2-0.3 0.4-0.6 0.2-0.3 0.4-0.6 1.2-1.3 2.8-1.8 1.3-0.3 2.7 0.2 0.6 0.2 1 0.5 0.2 0.2 0.7 0.6 0.2 0.3 0.4 0.3 0.1 0.1 0.6 0l-1.5 2.3-0.4-0.1q0.3-0.8 0.3-1.2 0-0.1 0-0.3 0-0.1 0-0.2-0.1-0.2-0.1-0.3 0-0.1-0.1-0.2-0.3-0.6-0.9-0.8-1.5-0.5-3.2 1-0.7 0.6-1.3 1.5-0.1 0.2-0.2 0.4-0.1 0.2-0.2 0.4-0.1 0.2-0.2 0.4-0.1 0.2-0.2 0.4-0.4 1-0.1 1.8 0.3 0.7 1.1 1 1.3 0.5 2.5-0.2 0.6-0.4 1.1-1.1z" class="b"/><path d="m61.3 134.9q1 0.2 1.5 1 0.5 0.8 0.3 1.9-0.2 0.7-0.6 1.4-0.1 0.2-0.2 0.3-0.1 0.2-0.3 0.3-0.1 0.2-0.2 0.3-0.2 0.1-0.3 0.3-1.4 1.1-3.1 0.7-1-0.3-1.5-0.9-0.6-0.9-0.3-2.1 0.3-1 0.9-1.8 0.8-1 1.8-1.3 0.3-0.1 0.5-0.2 0.3 0 0.5 0 0.3 0 0.5 0 0.3 0 0.5 0.1zm-0.1 0.3q-0.1 0-0.2 0-0.2 0-0.3 0-0.1 0-0.2 0.1 0 0-0.1 0-0.4 0.3-0.9 0.9-0.5 0.6-0.9 1.6-0.1 0.2-0.2 0.4-0.1 0.2-0.2 0.4-0.1 0.2-0.1 0.4-0.1 0.2-0.1 0.4-0.3 1.1 0.5 1.3 0.6 0.1 1.1-0.3 0.6-0.5 1.3-1.8 0.6-1.1 0.8-2 0.3-1.2-0.5-1.4z" class="b"/><path d="m64.7 136.3l0.1-0.3q0.4 0 0.7 0 0.4 0 0.7 0 0.4 0 0.7-0.1 0.4 0 0.7-0.1l-1.7 4.5q-0.1 0.5-0.2 0.8 0 0 0 0.1 0 0 0 0.1 0 0 0.1 0.1 0 0 0 0.1 0.1 0.3 0.5 0.3 0.8 0.1 1.4-0.8 0.2-0.4 0.6-1.3l1.3-3.4q0.8 0.1 1.7 0.1l-1.4 3.8q-0.5 1.1-0.5 1.4 0 0.2 0.1 0.4 0 0 0 0 0 0.1 0.1 0.1 0 0 0 0 0.1 0 0.1 0 0.3 0.1 0.6-0.3 0.1-0.1 0.3-0.4l0.3 0.2q-0.8 1.4-1.9 1.2-0.7-0.1-1-0.5-0.2-0.3-0.2-0.7-0.1 0.1-0.2 0.1-0.1 0.1-0.2 0.2-0.1 0.1-0.2 0.2-0.1 0-0.3 0.1-0.1 0.1-0.3 0.1-0.2 0.1-0.3 0.1-0.2 0-0.4 0-0.2 0.1-0.4 0-0.8-0.1-1.2-0.6-0.1-0.1-0.1-0.2-0.1-0.1-0.1-0.3 0-0.1 0-0.2 0-0.1 0-0.3 0-0.3 0.2-0.8l1-2.6q0.2-0.5 0.2-0.7 0-0.2-0.3-0.3-0.1 0-0.1 0-0.1 0-0.2 0 0 0-0.1-0.1 0 0-0.1 0z" class="b"/><path d="m72.6 137.1l0.1-0.3q1.3-0.2 2.3-0.4 0 0.2 0 0.4 0 0.3 0 0.7 0.8-1.1 2.2-1.1 0.8-0.1 1.2 0.4 0.3 0.3 0.3 0.8 0 0.5-0.1 1.2l-0.5 1.9q-0.2 1-0.2 1.2 0 0.4 0.3 0.4 0 0 0.1 0 0.1 0 0.1-0.1 0.1 0 0.1 0 0.1-0.1 0.1-0.1 0.1-0.2 0.3-0.7l0.4 0.1q-0.4 1.6-1.7 1.6-0.6 0-1-0.3-0.1-0.1-0.1-0.2-0.1-0.1-0.2-0.3 0-0.1 0-0.2-0.1-0.1-0.1-0.3 0-0.4 0.3-1.3l0.4-1.9q0.1-0.1 0.1-0.2 0-0.1 0-0.2 0-0.1 0-0.2 0-0.1 0.1-0.2-0.1-0.4-0.2-0.5-0.1-0.1-0.2-0.1 0-0.1-0.1-0.1-0.1 0-0.1 0-0.1 0-0.2 0-0.5 0-0.9 0.5-0.3 0.4-0.5 1l-1 4.4h-1.7l1.1-4.9q0.1-0.5 0.1-0.7 0-0.2-0.3-0.2 0 0-0.1 0-0.1-0.1-0.1-0.1-0.1 0-0.2 0 0 0-0.1 0z" class="b"/><path d="m84 141.4l-0.1 0.6q-0.7 0.6-1.5 0.6-0.6 0.1-1-0.2-0.4-0.4-0.5-1 0-0.4 0.1-1.3l0.5-3.4-0.9 0.1 0.1-0.5q0.8-0.1 1.4-0.8 0.6-0.6 0.9-1.5l0.5-0.1-0.3 2.1 1.3-0.1-0.1 0.5-1.3 0.1-0.4 3.5q-0.1 1-0.1 1.3 0 0.3 0.2 0.4 0.1 0.1 0.1 0.1 0.1 0 0.1 0 0 0 0.1 0 0 0 0.1 0 0.3 0 0.8-0.4z" class="b"/><path d="m84.9 136.3v-0.3q0.3-0.1 0.6-0.2 0.2 0 0.5-0.1 0.3-0.1 0.5-0.2 0.3-0.1 0.5-0.3 0.1 0.2 0.1 0.3 0.1 0.5 0.1 1.2 0.2-0.6 0.4-1 0.5-0.6 1.2-0.8 0.5 0 0.8 0.2 0.3 0.2 0.4 0.6 0 0.1 0 0.2 0 0.1 0 0.2 0 0.1-0.1 0.2 0 0.1-0.1 0.2 0 0.1-0.1 0.1 0 0.1-0.1 0.1-0.1 0.1-0.1 0.1-0.1 0-0.2 0.1-0.4 0-0.6-0.2 0 0-0.1-0.1 0 0 0 0 0-0.1 0-0.1-0.1-0.1-0.1-0.1 0-0.3 0.2-0.5-0.1-0.2-0.3-0.2-0.5 0.1-0.8 1-0.2 0.6-0.3 2.1l-0.1 3.1-1.7 0.3 0.3-5q0-0.5 0-0.7-0.1-0.2-0.4-0.2 0 0-0.1 0-0.1 0-0.1 0-0.1 0-0.2 0 0 0-0.1 0z" class="b"/><path d="m93.5 140.2l-2.3-4.5q-0.3-0.5-0.5-0.6-0.2-0.1-0.6 0v-0.4q0.2 0 0.4-0.1 0.2 0 0.4-0.1 0.2 0 0.4-0.1 0.2-0.1 0.4-0.1 0.2-0.1 0.4-0.1 0.2-0.1 0.5-0.2 0.2 0 0.4-0.1 0.2-0.1 0.4-0.2v0.4q-0.4 0.2-0.5 0.3-0.2 0.1-0.2 0.3 0 0.1 0.1 0.3l1.4 3 1-3.3q0.1-0.2 0.1-0.3 0.2-0.4 0.1-0.6-0.1-0.3-0.5-0.2 0 0 0 0 0 0-0.1 0.1 0 0 0 0 0 0-0.1 0l-0.1-0.3q0.1-0.1 0.2-0.1 0.1-0.1 0.2-0.1 0.1-0.1 0.1-0.1 0.1-0.1 0.2-0.1 0.4-0.2 0.7-0.5 0 0 0.1 0.1 0 0 0 0.1 0 0 0.1 0.1 0 0 0 0.1 0 0 0 0.1 0 0.1 0 0.2 0 0 0 0.1 0 0.1 0 0.2 0 0.1-0.5 1.4l-2 6.2q-0.2 0.5-0.4 1-0.2 0.6-0.4 0.8-0.4 0.7-1.4 1-0.1 0-0.3 0.1l-0.3-1q0.5 0.1 0.8 0 0.7-0.2 1-0.9 0.4-0.7 0.6-1.4z" class="b"/><path d="m106.8 131.6l0.4-0.2q0.3 1.2 0.1 2.2-0.3 1.8-2 2.6-1.4 0.7-2.6 0.2-1.1-0.4-1.8-1.8-0.2-0.3-0.3-0.6-0.1-0.3-0.2-0.7-0.1-0.3-0.1-0.6-0.1-0.4-0.1-0.7-0.2-1.9 0.6-3.3 0.7-1.2 1.9-1.8 0.2-0.1 0.3-0.1 0.1-0.1 0.3-0.2 0.1 0 0.3 0 0.1-0.1 0.2-0.1 0.2 0 0.3 0 0.1 0 0.2 0 0.1 0 0.2 0 0.1-0.1 0.2-0.1 0.4 0 0.5 0 0.2-0.1 0.4-0.5l0.7 2.7-0.4 0.2q-0.4-0.8-0.6-1.1-0.1-0.1-0.2-0.2-0.1 0-0.2-0.1-0.2-0.1-0.3-0.1-0.1-0.1-0.2-0.1-0.6-0.2-1.2 0.1-1.4 0.7-1.5 3 0 0.2 0 0.5 0 0.2 0.1 0.4 0 0.3 0 0.5 0.1 0.3 0.1 0.5 0.2 1 0.6 1.7 0.5 1 1.2 1.3 0.7 0.3 1.5-0.1 1.3-0.6 1.6-1.9 0.1-0.7 0-1.6z" class="b"/><path d="m108.3 123.5l2.2 7q0.3 1 0.5 1.2 0.2 0.3 0.4 0.1 0.2-0.1 0.2-0.4 0.1-0.2 0-0.7l0.3-0.1q0.5 1.5-0.6 2.2-0.5 0.3-1 0.2-0.1 0-0.2-0.1-0.1 0-0.3-0.1-0.1-0.1-0.2-0.2 0-0.1-0.1-0.2-0.2-0.3-0.5-1.2l-1.6-5q-0.2-0.5-0.2-0.6-0.2-0.2-0.4-0.1-0.1 0-0.2 0.1 0 0-0.1 0 0 0-0.1 0.1-0.1 0-0.1 0l-0.1-0.3q1.1-0.8 2.1-1.9z" class="b"/><path d="m110.7 126.1l-0.1-0.4q1-0.9 1.9-2l1.9 4.4q0.2 0.5 0.4 0.7 0 0 0 0.1 0.1 0 0.1 0 0 0.1 0.1 0.1 0 0 0.1 0 0.3 0.1 0.6-0.1 0.6-0.4 0.4-1.5-0.1-0.5-0.5-1.4l-1.4-3.3q0.7-0.5 1.3-1.2l1.6 3.8q0.5 1.1 0.7 1.4 0 0 0.1 0 0 0.1 0 0.1 0.1 0 0.1 0 0 0 0.1 0.1 0.1 0 0.2-0.1 0.3-0.2 0.3-0.7 0 0 0-0.1-0.1 0-0.1-0.1 0-0.1 0-0.1 0-0.1 0-0.1l0.4-0.1q0.4 1.5-0.6 2.2-0.5 0.4-1.1 0.3-0.2-0.1-0.6-0.4 0 0.1 0 0.3 0 0.1 0 0.2-0.1 0.2-0.1 0.3 0 0.1-0.1 0.3-0.2 0.6-0.8 1.1-0.7 0.5-1.4 0.4-0.1 0-0.2-0.1-0.1 0-0.2-0.1-0.1-0.1-0.2-0.1-0.1-0.1-0.2-0.2-0.1-0.1-0.1-0.2-0.1-0.1-0.1-0.2-0.1-0.1-0.1-0.2-0.1-0.1-0.1-0.2l-1.1-2.6q-0.2-0.4-0.3-0.6-0.2-0.2-0.4 0-0.1 0-0.2 0.1 0 0-0.1 0 0 0.1-0.1 0.1 0 0-0.1 0.1z" class="b"/><path d="m117 116.4l1.7 3q0.1-1 0.7-1.5 0.7-0.7 1.6-0.6 0.7 0.1 1.3 0.8 0.7 0.7 1.1 1.6 0.5 1.3 0.2 2.6 0 0.2-0.1 0.4-0.1 0.3-0.2 0.5-0.1 0.2-0.2 0.4-0.2 0.2-0.4 0.4-0.8 0.8-1.8 0.7-0.7-0.1-1.3-0.7-0.4-0.4-1.2-2l-1.7-2.9q-0.2-0.4-0.4-0.5-0.1-0.2-0.4 0-0.1 0.1-0.4 0.4l-0.2-0.4q0.3-0.2 0.5-0.5 0.2-0.3 0.4-0.6 0.2-0.3 0.4-0.5 0.2-0.3 0.4-0.6zm2.4 1.9q-0.6 0.7 0.2 2.5 0.4 0.8 0.9 1.6 0.5 0.7 0.8 1.1 0.3 0.3 0.6 0.4 0.3 0 0.6-0.2 0.4-0.4 0.2-1.2-0.1-0.9-0.9-2.2-0.6-1.1-1.2-1.7-0.7-0.7-1.2-0.3z" class="b"/><path d="m13.6 77.6v-0.6q1.1-0.1 1.9-0.5 0.6-0.5 1-1.2 0.3-0.6 0.3-1.2 0.1-1-0.6-1.7-0.1-0.1-0.3-0.2-0.1-0.1-0.3-0.2-0.1 0-0.3-0.1-0.2 0-0.4 0-0.9 0-1.6 0.8-0.3 0.4-1 1.6-1 1.8-1.6 2.3-0.2 0.2-0.4 0.3-0.2 0.2-0.5 0.3-0.3 0.1-0.5 0.1-0.3 0.1-0.6 0.1-1.4-0.1-2.2-1.2-0.7-1.1-0.7-2.5 0-1.1 0.5-1.9 0.2-0.3 0.5-0.6l-1.1-0.6v-0.4l3.6 0.1v0.6q-1.1 0.1-1.7 0.5-1.1 0.7-1.2 2 0 0.9 0.5 1.4 0.5 0.6 1.3 0.6 0.7 0 1.2-0.6 0.2-0.2 0.7-1 0.8-1.5 1.3-2.2 0.5-0.9 1.1-1.2 0.7-0.5 1.7-0.5 1.5 0 2.4 1.1 1 1 1 2.6 0 0.3-0.1 0.6 0 0.3-0.1 0.6-0.1 0.3-0.2 0.6-0.2 0.3-0.3 0.6-0.2 0.2-0.5 0.6l1.3 0.7-0.1 0.4z" class="b"/><path d="m15.2 59.3l0.1-0.6q1.4 0.3 2.3 1.1 0.2 0.2 0.3 0.4 0.2 0.2 0.4 0.5 0.1 0.2 0.2 0.5 0.1 0.3 0.2 0.5 0.2 0.9 0 2 0 0.2-0.1 0.5-0.1 0.2-0.2 0.5-0.1 0.2-0.2 0.4-0.2 0.3-0.3 0.5-0.2 0.2-0.4 0.4-0.1 0.2-0.4 0.3-0.2 0.2-0.4 0.3-0.2 0.2-0.4 0.3-1.8 0.8-4.2 0.4-2.3-0.5-3.7-1.7-0.2-0.2-0.4-0.4-0.2-0.3-0.4-0.5-0.1-0.2-0.3-0.5-0.1-0.3-0.2-0.5-0.3-1.2-0.1-2.4 0.3-1.3 1.1-2.1 0.1-0.1 0.2-0.2 0.1-0.1 0.2-0.1 0.1-0.1 0.2-0.2 0.1 0 0.2-0.1l-1.2-0.8 0.1-0.4 3.8 0.8-0.1 0.5q-1.1 0.1-1.9 0.3-0.1 0.1-0.3 0.2-0.2 0.1-0.3 0.2-0.2 0.1-0.3 0.2-0.1 0.1-0.3 0.3-0.1 0.1-0.2 0.3-0.1 0.1-0.1 0.2-0.1 0.2-0.2 0.4 0 0.1 0 0.3-0.4 1.6 1 2.5 1.3 0.9 3.4 1.3 2 0.4 3.4 0.1 1.6-0.4 1.9-2.1 0-0.2 0.1-0.4 0-0.2 0-0.4 0-0.2-0.1-0.3 0-0.2-0.1-0.4 0-0.2-0.1-0.4 0-0.1-0.1-0.3-0.1-0.2-0.3-0.3-0.1-0.2-0.2-0.3-0.6-0.6-1.6-0.8z" class="b"/><path d="m15.1 52.5l1.6-3.7-3.1-1.3q-0.6-0.2-0.8-0.2-0.3 0.1-0.6 0.5-0.1 0.3-0.3 0.6l-0.6-0.3q0.7-1.2 1.1-2.3 0.5-1.1 0.9-2.3l0.6 0.2q-0.3 0.7-0.3 1 0 0.3 0.3 0.5 0.2 0.2 0.5 0.3l7.2 3q0.6 0.2 0.8 0.2 0.3-0.1 0.6-0.5 0.1-0.3 0.3-0.6l0.6 0.2q-0.2 0.3-0.3 0.6-0.2 0.3-0.3 0.5-0.1 0.3-0.2 0.6-0.2 0.3-0.3 0.6-0.1 0.3-0.2 0.6-0.1 0.3-0.2 0.6-0.2 0.3-0.3 0.6-0.1 0.3-0.2 0.6l-0.5-0.2q0.2-0.7 0.2-1 0-0.1 0-0.2 0-0.1-0.1-0.1 0-0.1-0.1-0.2 0 0-0.1-0.1 0 0-0.1 0-0.1-0.1-0.1-0.1-0.1 0-0.2-0.1 0 0-0.1 0l-3.5-1.5-1.6 3.8 3.6 1.4q0.5 0.3 0.8 0.2 0.3 0 0.5-0.5 0.1-0.1 0.1-0.1 0.1-0.1 0.1-0.2 0 0 0.1-0.1 0-0.1 0-0.1l0.6 0.2q-0.7 1.3-1.1 2.3-0.1 0.3-0.2 0.6-0.1 0.3-0.2 0.6-0.1 0.3-0.2 0.6-0.1 0.3-0.2 0.6l-0.6-0.3q0.3-0.7 0.3-1 0-0.3-0.4-0.5 0 0-0.1-0.1 0 0-0.1 0-0.1-0.1-0.1-0.1-0.1 0-0.2-0.1l-7.2-2.9q-0.5-0.3-0.8-0.2-0.3 0-0.6 0.5 0 0 0 0.1-0.1 0.1-0.1 0.2 0 0-0.1 0.1 0 0.1 0 0.1l-0.6-0.2q0.6-1.2 1-2.2 0.4-1.1 0.9-2.5l0.6 0.3q-0.3 0.6-0.3 1 0 0.3 0.3 0.5 0.2 0.1 0.5 0.2z" class="b"/><path d="m26.5 38.1l2.3 2.1-4.5 6.9-0.5-0.3q0.4-0.6 0.4-0.9 0.1-0.3-0.2-0.6 0-0.1-0.1-0.1 0-0.1-0.1-0.1 0 0-0.1-0.1-0.1 0-0.1-0.1l-6.5-4.2q-0.5-0.3-0.8-0.3-0.3-0.1-0.6 0.4-0.2 0.2-0.4 0.5l-0.5-0.4q0.2-0.2 0.4-0.5 0.1-0.3 0.3-0.5 0.2-0.3 0.4-0.5 0.2-0.3 0.4-0.6 0.6-0.9 1.3-2.2l0.5 0.4q-0.4 0.6-0.5 0.9 0 0.3 0.3 0.6 0.1 0.1 0.4 0.3l6.7 4.4q0.5 0.3 0.7 0.2 0.3 0 0.6-0.5l0.5-0.8q0.5-0.8 0.5-1.4 0-0.6-0.6-1.5-0.1-0.1-0.1-0.2-0.1-0.1-0.1-0.1-0.1-0.1-0.2-0.2 0-0.1-0.1-0.2z" class="b"/><path d="m24.7 27.3q0.2-0.2 0.5-0.4 0.3-0.3 0.6-0.4 0.3-0.2 0.6-0.4 0.4-0.1 0.7-0.2 2.7-0.6 5.3 1.9 1.8 1.8 2.2 3.7 0 0.3 0 0.6 0.1 0.2 0 0.5 0 0.3 0 0.5-0.1 0.3-0.2 0.6-0.3 1-1.1 1.9-0.2 0.2-0.4 0.4-0.3 0.2-0.5 0.3-0.2 0.2-0.5 0.3-0.2 0.2-0.5 0.3-0.2 0.1-0.5 0.1-0.3 0.1-0.5 0.1-0.3 0.1-0.6 0.1-0.2 0-0.5-0.1-2-0.2-3.8-1.9-1.9-1.9-2.2-3.9-0.1-0.2-0.1-0.5 0-0.3 0.1-0.6 0-0.2 0.1-0.5 0-0.3 0.1-0.5 0.1-0.3 0.2-0.5 0.2-0.3 0.3-0.5 0.1-0.2 0.3-0.4 0.2-0.3 0.4-0.5zm0.3 0.5q-0.6 0.7-0.5 1.8 0.2 1.6 2.5 3.8 1.6 1.4 3 2.1 0.8 0.4 1.6 0.4 0.7-0.1 1.3-0.7 0.8-0.8 0.5-2-0.4-1.5-2.7-3.7-1.6-1.6-2.9-2.1-1.7-0.8-2.8 0.4z" class="b"/><path d="m35.6 27.8l0.5-0.4q0.8 0.9 1.6 1.2 0.2 0 0.4 0.1 0.2 0 0.3 0 0.2 0.1 0.4 0.1 0.2-0.1 0.4-0.1 0.7-0.1 1.2-0.5 0.8-0.6 0.9-1.5 0.1-0.1 0-0.3 0-0.2 0-0.4 0-0.2-0.1-0.3-0.1-0.2-0.2-0.3-0.6-0.8-1.7-0.8-0.5 0-1.8 0.1-2 0.3-2.8 0.2-1.1-0.2-1.8-1.1-0.9-1.2-0.5-2.5 0.4-1.2 1.6-2.1 0.9-0.7 1.9-0.7 0.3 0 0.7 0l-0.2-1.2 0.3-0.2 2.1 2.8-0.5 0.3q-0.7-0.7-1.4-0.9-1.2-0.5-2.3 0.2-0.7 0.6-0.8 1.3-0.1 0.7 0.3 1.3 0.4 0.6 1.2 0.6 0.3 0.1 1.2-0.1 0.4 0 0.7-0.1 0.3 0 0.6 0 0.3-0.1 0.7-0.1 0.3 0 0.6-0.1 1 0 1.6 0.2 0.8 0.3 1.4 1.1 0.9 1.2 0.6 2.6-0.2 1.3-1.5 2.3-0.2 0.2-0.5 0.3-0.3 0.2-0.6 0.3-0.2 0.1-0.6 0.2-0.3 0-0.6 0.1-0.3 0-0.8 0l0.2 1.4-0.3 0.3z" class="b"/><path d="m43.8 22l0.5-0.3q0.7 1 1.4 1.4 0.7 0.4 1.5 0.4 0.7 0 1.3-0.3 0.9-0.5 1.1-1.3 0.3-0.8-0.1-1.4-0.4-0.9-1.5-1.1-0.5-0.1-1.8-0.1-2.1-0.1-2.8-0.3-0.2-0.1-0.5-0.2-0.2-0.2-0.4-0.4-0.3-0.1-0.4-0.4-0.2-0.2-0.3-0.4-0.7-1.3 0-2.6 0.6-1.1 1.8-1.7 1-0.5 2-0.4 0.3 0 0.7 0.1v-1.2l0.4-0.2 1.6 3.1-0.6 0.3q-0.6-0.8-1.2-1.2-1.1-0.7-2.3-0.1-0.8 0.4-1 1.1-0.3 0.7 0.1 1.4 0.3 0.6 1 0.8 0.4 0 1.3 0.1 0.3 0 0.6 0 0.3 0 0.7 0 0.3 0 0.6 0 0.3 0.1 0.6 0.1 1 0.1 1.6 0.4 0.8 0.4 1.2 1.3 0.7 1.3 0.2 2.7-0.4 1.3-1.8 2-1.2 0.6-2.5 0.5-0.3 0-0.8-0.1v1.5l-0.3 0.1z" class="b"/><path d="m65.6 14.7l0.2 3.2-8 1.9-0.2-0.6q0.8-0.2 1-0.4 0.3-0.2 0.3-0.6 0 0 0-0.1-0.1-0.1-0.1-0.1 0-0.1 0-0.2 0-0.1 0-0.1l-1.8-7.6q-0.1-0.6-0.3-0.7-0.2-0.3-0.7-0.2-0.1 0-0.2 0-0.1 0-0.1 0-0.1 0-0.2 0-0.1 0.1-0.2 0.1l-0.1-0.6q0.3-0.1 0.6-0.1 0.4-0.1 0.7-0.2 0.3 0 0.6-0.1 0.3 0 0.6-0.1 1.1-0.3 2.5-0.7l0.1 0.6q-0.7 0.2-0.9 0.4-0.3 0.2-0.3 0.5 0 0.2 0.1 0.6l1.8 7.8q0.2 0.6 0.4 0.7 0.2 0.1 0.8 0l0.9-0.2q0.9-0.2 1.3-0.7 0.4-0.5 0.6-1.5 0.1-0.4 0.1-0.9z" class="b"/><path d="m73.5 14.3l-3.7 0.1-0.4 1.2q-0.2 0.6-0.2 0.8 0 0.4 0.5 0.4 0.2 0.1 0.7 0.1l0.1 0.6q-0.3 0-0.5 0-0.2 0-0.4 0-0.3 0-0.5 0-0.2 0-0.4 0-0.7 0-1.8 0.2v-0.7q0.4 0 0.6-0.1 0.6-0.1 0.9-0.7 0.2-0.4 0.4-1l3.4-9.6 4.2 9.8q0.3 0.8 0.7 1 0.4 0.2 1 0.2l0.1 0.6q-1.4-0.1-2.6 0-1.3 0-2.6 0.2v-0.6q0.6-0.1 0.8-0.1 0.4-0.1 0.4-0.4 0-0.1-0.2-0.7zm-3.5-0.5l3.2-0.2-1.6-4.4z" class="b"/><path d="m88 19l-0.4-0.1q-0.4-1-1.2-2.6l-0.3-0.6-3.9-7.4-1.2 7.5q-0.1 0.6 0 0.8 0.1 0.3 0.6 0.4 0.3 0.1 0.6 0.2l-0.1 0.6q-0.2-0.1-0.4-0.1-0.2 0-0.4-0.1-0.2 0-0.5-0.1-0.2 0-0.4 0-0.8-0.2-1.8-0.3l0.1-0.6q0.8 0.1 1.1 0 0.1 0 0.1 0 0.1 0 0.2-0.1 0-0.1 0.1-0.1 0-0.1 0-0.2 0.1-0.2 0.2-0.5l1.3-8.3q-0.1-0.1-0.2-0.1 0-0.1-0.1-0.2-0.1 0-0.1-0.1-0.1-0.1-0.2-0.1-0.3-0.3-0.8-0.4l0.1-0.6q0.4 0.1 0.8 0.2 0.4 0.1 0.8 0.1 0.4 0.1 0.9 0.1 0.4 0.1 0.8 0.1l4.3 8.2 0.9-5.5q0.1-0.6 0-0.8-0.1-0.4-1.2-0.6l0.1-0.6q0.4 0.1 0.8 0.2 0.5 0 0.9 0.1 0.4 0.1 0.9 0.1 0.4 0.1 0.9 0.1l-0.1 0.6q-0.8 0-1.1 0-0.3 0.1-0.4 0.4-0.1 0.2-0.2 0.6z" class="b"/><path d="m102.8 11.3l-1.4 3.7-0.5-0.2q0.1-1 0-1.8 0-0.2-0.1-0.4 0-0.2-0.1-0.4-0.1-0.1-0.2-0.3-0.1-0.2-0.2-0.3-0.2-0.2-0.3-0.3-0.2-0.2-0.3-0.3-0.2-0.1-0.4-0.2-0.1-0.1-0.3-0.1-2.9-1.1-4.7 3.7-0.8 2.2-0.8 3.7 0 1.8 1.8 2.5 0.7 0.3 1.8 0.2l1.1-2.7q0.1-0.4 0.1-0.6-0.1-0.4-1-0.8l0.2-0.6q0.6 0.3 1.1 0.5 0.5 0.2 1 0.4 0.6 0.2 1.1 0.4 0.5 0.1 1.1 0.3l-0.2 0.6q-0.6-0.2-0.9-0.1-0.1 0-0.1 0-0.1 0-0.1 0.1-0.1 0-0.1 0 0 0.1-0.1 0.1 0 0.1 0 0.1 0 0.1 0 0.1-0.1 0.1-0.1 0.1 0 0.1 0 0.1l-0.9 2.4q-2.3 0.6-4.5-0.2-2.2-0.8-3-2.8-0.7-1.9 0.3-4.5 0.9-2.5 2.7-3.5 1.9-1 4.1-0.2 1.2 0.5 2 1.4 0.2 0.3 0.5 0.8l1-1z" class="b"/><path d="m109.8 24.9l-2.1 2.4-7.1-4.2 0.3-0.5q0.7 0.3 1 0.4 0.3 0 0.5-0.3 0.1 0 0.1-0.1 0.1 0 0.1-0.1 0 0 0.1-0.1 0-0.1 0.1-0.1l3.9-6.6q0.3-0.6 0.3-0.8 0-0.3-0.4-0.7-0.1 0-0.1 0-0.1-0.1-0.2-0.1 0-0.1-0.1-0.1-0.1-0.1-0.1-0.1l0.3-0.5 7 4.1-1.1 2.8-0.5-0.3q0.4-1 0.3-1.6 0-0.5-0.3-0.9-0.3-0.3-0.8-0.6l-1.8-1.1-2.2 3.8 1.6 1q0.4 0.2 0.6 0.2 0.3 0 0.7-0.5 0.1-0.1 0.3-0.4l0.5 0.4-1.8 2.9-0.5-0.3q0.3-0.6 0.4-0.9 0 0 0-0.1 0-0.1 0-0.1 0-0.1-0.1-0.2 0 0 0-0.1-0.1 0-0.1-0.1-0.1 0-0.1-0.1-0.1 0-0.1 0-0.1-0.1-0.1-0.1l-1.7-1-2 3.5q-0.3 0.4-0.2 0.7 0 0.2 0.5 0.5l0.8 0.5q0.8 0.5 1.4 0.4 0.6-0.1 1.5-0.6 0.1-0.1 0.2-0.2 0.1 0 0.2-0.1 0-0.1 0.1-0.1 0.1-0.1 0.2-0.2z" class="b"/><path d="m116 34.7l-0.3-0.3q0.2-1.1 0.4-2.8v-0.7l0.7-8.4-5 5.7q-0.4 0.5-0.4 0.7-0.1 0.3 0.3 0.7 0.1 0.2 0.4 0.5l-0.4 0.4q-0.2-0.1-0.3-0.3-0.2-0.1-0.4-0.3-0.1-0.1-0.3-0.3-0.1-0.1-0.3-0.3-0.2-0.1-0.3-0.3-0.2-0.1-0.4-0.3-0.2-0.1-0.3-0.2-0.2-0.2-0.4-0.3l0.4-0.5q0.6 0.5 0.9 0.6 0.3 0.1 0.6-0.1 0.2-0.1 0.4-0.4l5.5-6.3q0-0.1 0-0.2 0-0.1 0-0.2 0-0.1-0.1-0.2 0 0 0-0.1-0.2-0.4-0.5-0.7l0.4-0.5q0.7 0.6 1.2 1.1 0.5 0.5 1.3 1.1l-0.7 9.2 3.7-4.2q0.3-0.4 0.4-0.7 0.1-0.4-0.7-1.1l0.4-0.5q0.7 0.7 1.3 1.2 0.6 0.6 1.3 1.2l-0.4 0.4q-0.5-0.4-0.8-0.5-0.4-0.2-0.6 0.1-0.1 0-0.2 0.1 0 0-0.1 0.1 0 0-0.1 0.1 0 0-0.1 0.1z" class="b"/><path d="m121 34.1l0.4 0.5q-0.8 0.9-1.1 1.7-0.1 0.2-0.1 0.3-0.1 0.2-0.1 0.4 0 0.2 0 0.4 0 0.2 0.1 0.4 0.1 0.7 0.5 1.1 0.6 0.8 1.5 0.9 0.8 0.1 1.4-0.3 0.7-0.6 0.7-1.7 0-0.5-0.2-1.9-0.3-2-0.2-2.7 0.1-1.2 1-1.9 1.2-0.9 2.5-0.5 1.2 0.4 2.1 1.5 0.7 0.9 0.8 1.8 0 0.3 0 0.8l1.2-0.2 0.3 0.3-2.8 2.1-0.4-0.4q0.7-0.8 1-1.5 0.4-1.3-0.4-2.3-0.5-0.7-1.3-0.8-0.2 0-0.4 0-0.1 0-0.3 0.1-0.2 0-0.3 0.1-0.2 0.1-0.3 0.2-0.6 0.4-0.6 1.2 0 0.3 0.2 1.2 0.3 1.7 0.3 2.6 0.2 1-0.1 1.6-0.2 0.8-1 1.4-1.2 0.9-2.6 0.7-1.3-0.1-2.3-1.4-0.2-0.2-0.4-0.5-0.1-0.3-0.3-0.6-0.1-0.3-0.2-0.6-0.1-0.3-0.1-0.6 0-0.1 0-0.2 0-0.1 0-0.2 0-0.1 0-0.2 0-0.1 0-0.2l-1.5 0.3-0.2-0.3z" class="b"/><path d="m135.6 43.3l-7.8 4.3q-0.5 0.3-0.7 0.5-0.1 0.2 0.1 0.8 0.1 0.2 0.2 0.5l-0.5 0.3q-0.6-1.2-1.1-2.3-0.2-0.3-0.4-0.6-0.1-0.2-0.3-0.5-0.2-0.3-0.3-0.6-0.2-0.2-0.4-0.5l0.6-0.3q0.3 0.6 0.6 0.8 0.2 0.3 0.6 0.1 0.1 0 0.1 0 0.1 0 0.2-0.1 0 0 0.1 0 0-0.1 0.1-0.1l7.8-4.3-0.2-0.4q-0.6-1.1-1.6-1.2-0.7-0.1-1.7 0.2l-0.3-0.5 3-1 3.9 7.2-2.5 2-0.2-0.5q0.9-0.9 1.2-1.5 0.3-0.9-0.2-1.8z" class="b"/><path d="m134 59.5l-3.1 0.5-2.7-7.8 0.6-0.2q0.3 0.7 0.5 0.9 0.2 0.3 0.5 0.2 0.1 0 0.2 0 0.1 0 0.1 0 0.1-0.1 0.2-0.1 0 0 0.1 0l7.3-2.5q0.6-0.2 0.7-0.4 0.2-0.2 0.1-0.7 0-0.1 0-0.2 0-0.1 0-0.1-0.1-0.1-0.1-0.2 0-0.1 0-0.1l0.6-0.2 2.6 7.7-2.7 1.4-0.2-0.5q1-0.6 1.3-1.1 0.3-0.4 0.4-0.9 0-0.4-0.2-1l-0.7-1.9-4.2 1.4 0.6 1.8q0.2 0.4 0.4 0.6 0.2 0.1 0.8 0 0.1 0 0.5-0.1l0.2 0.6-3.3 1.1-0.2-0.6q0.6-0.2 0.8-0.4 0.1 0 0.1-0.1 0.1 0 0.1-0.1 0-0.1 0.1-0.1 0-0.1 0-0.2 0 0 0-0.1 0-0.1 0-0.1-0.1-0.1-0.1-0.2 0 0 0-0.1l-0.6-1.8-3.8 1.3q-0.5 0.2-0.6 0.4-0.2 0.3 0 0.8l0.3 0.9q0.3 0.9 0.8 1.2 0.5 0.3 1.6 0.5 0.4 0 0.8 0z" class="b"/><path d="m133.2 62.8l7.7-1.4q0.6-0.1 0.8-0.3 0.2-0.2 0.2-0.7 0-0.1 0-0.2 0-0.1-0.1-0.1 0-0.1 0-0.2 0-0.1 0-0.1l0.6-0.2q0.2 1.5 0.4 2.6 0.2 1.1 0.6 2.5l-0.7 0.1q-0.1-0.7-0.3-1-0.2-0.3-0.5-0.2-0.1 0-0.2 0 0 0-0.1 0-0.1 0-0.1 0-0.1 0-0.2 0l-7.7 1.5q-0.6 0.1-0.7 0.2-0.3 0.2-0.3 0.8 0.1 0.3 0.1 0.6l-0.6 0.1q0-0.3-0.1-0.6 0-0.3 0-0.7-0.1-0.3-0.1-0.6-0.1-0.3-0.1-0.6-0.1-0.3-0.2-0.7 0-0.3-0.1-0.6-0.1-0.3-0.2-0.6-0.1-0.3-0.2-0.6l0.7-0.1q0.1 0.7 0.3 0.9 0.2 0.3 0.5 0.3 0.1 0 0.2 0 0.1 0 0.1 0 0.1 0 0.2 0 0 0 0.1-0.1z" class="b"/><path d="m132.5 77.2v-0.4q0.9-0.6 2.3-1.7l0.5-0.4 6.6-5.2-7.6 0.2q-0.6 0.1-0.8 0.2-0.3 0.2-0.3 0.7 0 0.1 0 0.2 0 0 0 0.1 0 0.1 0 0.2 0 0 0 0.1h-0.7q0-1 0-1.7 0-0.3 0-0.5 0-0.2 0-0.4 0-0.2-0.1-0.5 0-0.2 0-0.4h0.6q0.1 0.7 0.2 1 0 0.1 0.1 0.1 0 0.1 0.1 0.1 0.1 0.1 0.2 0.1 0 0.1 0.1 0.1 0.2 0 0.6 0l8.3-0.3q0.1-0.1 0.2-0.1 0-0.1 0.1-0.2 0-0.1 0.1-0.1 0-0.1 0.1-0.2 0-0.1 0-0.2 0.1-0.1 0.1-0.2 0-0.1 0-0.2 0-0.1 0-0.3h0.7q-0.1 1 0 1.7 0 0.7 0.1 1.6l-7.3 5.8 5.6-0.1q0.6-0.1 0.8-0.2 0.4-0.2 0.4-1.3h0.6q0 0.4 0 0.8 0 0.5 0 0.9 0 0.5 0.1 0.9 0 0.5 0 0.9h-0.6q-0.1-0.7-0.2-1-0.1-0.3-0.5-0.4 0 0-0.1 0-0.1 0-0.2 0 0 0-0.1 0-0.1 0-0.1 0z" class="b"/><path d="m75 128.6c29.6 0 53.6-24 53.6-53.6 0-29.6-24-53.6-53.6-53.6-29.6 0-53.6 24-53.6 53.6 0 29.6 24 53.6 53.6 53.6z" class="a"/><path d="m75 125.8c-28.1 0-50.9-22.7-50.9-50.8 0-28.1 22.8-50.9 50.9-50.9 28.1 0 50.8 22.8 50.8 50.9 0 28.1-22.7 50.8-50.8 50.8z" class="a"/><path d="m75 127.3c-28.8 0-52.3-23.5-52.3-52.3 0-28.8 23.5-52.3 52.3-52.3 28.8 0 52.3 23.5 52.3 52.3 0 28.8-23.5 52.3-52.3 52.3zm0-103.8c-28.4 0-51.5 23.1-51.5 51.5 0 28.4 23.1 51.5 51.5 51.5 28.4 0 51.5-23.1 51.5-51.5 0-28.4-23.1-51.5-51.5-51.5z" class="a"/><path d="m75 20.8c-29.9 0-54.2 24.3-54.2 54.2 0 29.9 24.3 54.2 54.2 54.2 29.9 0 54.2-24.3 54.2-54.2 0-29.9-24.3-54.2-54.2-54.2zm0 107.1c-29.2 0-52.9-23.7-52.9-52.9 0-29.2 23.7-52.9 52.9-52.9 29.2 0 52.9 23.7 52.9 52.9 0 29.2-23.7 52.9-52.9 52.9z" class="b"/><path d="m75 23.5c28.4 0 51.5 23.1 51.5 51.5 0 28.4-23.1 51.5-51.5 51.5-28.4 0-51.5-23.1-51.5-51.5 0-28.4 23.1-51.5 51.5-51.5zm0 1.3c-27.7 0-50.2 22.5-50.2 50.2 0 9.3 2.6 17.9 7 25.3h86.4c4.4-7.4 7-16.1 7-25.3 0-27.7-22.5-50.2-50.2-50.2zm0 100.4c18 0 33.8-9.6 42.6-23.8h-85.2c8.9 14.3 24.6 23.8 42.6 23.8z" class="b"/><path d="m74.7 51.5v-12l16.6-5.6-17.9-6.3v23.9l-20.7 13.1h43.1z" class="b"/><path d="m53.1 86.2v-18.4h43.2v18.6l-20.3 12.1h43l-21.1-12.4v-19.9h-46.4v20.1l-20.6 12.2h43.1z" class="b"/></svg>