<?xml version="1.0" encoding="UTF-8"?>
<svg xmlns="http://www.w3.org/2000/svg" xmlns:xlink="http://www.w3.org/1999/xlink" width="200px" height="px" viewBox="0 0 200 200" version="1.1">
<g id="surface1">
<path style=" stroke:none;fill-rule:nonzero;fill:rgb(72.941178%,14.901961%,55.686277%);fill-opacity:1;" d="M 197.476562 60 C 198.8125 60 199.898438 61.054688 199.898438 62.335938 L 199.898438 70.203125 C 199.898438 71.492188 199.132812 73.289062 198.1875 74.195312 L 153.296875 117.4375 C 152.351562 118.351562 150.804688 118.351562 149.859375 117.4375 L 118.585938 87.3125 C 117.640625 86.40625 116.867188 84.609375 116.867188 83.320312 L 116.867188 75.460938 C 116.867188 74.171875 117.960938 73.117188 119.296875 73.117188 L 127.453125 73.117188 C 128.789062 73.117188 130.65625 73.867188 131.601562 74.773438 L 149.859375 92.359375 C 150.804688 93.273438 152.351562 93.273438 153.296875 92.359375 L 185.171875 61.65625 C 186.117188 60.742188 187.976562 60 189.3125 60 Z M 197.476562 60 "/>
<path style=" stroke:none;fill-rule:nonzero;fill:rgb(100%,100%,100%);fill-opacity:1;" d="M 143.726562 123.359375 C 144.664062 124.265625 144.664062 125.757812 143.726562 126.664062 L 131.601562 138.351562 C 130.65625 139.257812 128.789062 140 127.460938 140 L 119.296875 140 C 117.960938 140 116.867188 138.945312 116.867188 137.664062 L 116.867188 129.796875 C 116.867188 128.507812 117.640625 126.710938 118.585938 125.804688 L 130.710938 114.125 C 131.648438 113.21875 133.195312 113.21875 134.140625 114.125 Z M 143.726562 123.359375 "/>
<path style=" stroke:none;fill-rule:nonzero;fill:rgb(100%,100%,100%);fill-opacity:1;" d="M 184.570312 125.804688 C 185.507812 126.710938 186.28125 128.507812 186.28125 129.789062 L 186.28125 137.65625 C 186.28125 138.945312 185.1875 139.992188 183.851562 139.992188 L 175.695312 139.992188 C 174.359375 139.992188 172.492188 139.25 171.546875 138.34375 L 159.429688 126.664062 C 158.484375 125.757812 158.484375 124.265625 159.429688 123.351562 L 169.007812 114.117188 C 169.945312 113.210938 171.492188 113.210938 172.445312 114.117188 Z M 184.570312 125.804688 "/>
<path style=" stroke:none;fill-rule:nonzero;fill:rgb(100%,100%,100%);fill-opacity:1;" d="M 13.75 121.328125 C 10.945312 121.328125 8.25 120.960938 5.671875 120.242188 C 3.101562 119.507812 1.195312 118.414062 1.195312 118.414062 C 0.234375 117.859375 -0.171875 116.609375 0.289062 115.632812 L 1.375 113.296875 C 1.835938 112.320312 2.992188 111.960938 3.953125 112.507812 C 3.953125 112.507812 5.492188 113.398438 7.554688 114.054688 C 9.609375 114.710938 11.695312 115.039062 13.804688 115.039062 C 15.40625 115.039062 16.703125 114.890625 17.695312 114.585938 C 18.679688 114.273438 19.40625 113.851562 19.875 113.304688 C 20.34375 112.757812 20.578125 112.132812 20.578125 111.414062 C 20.578125 110.515625 20.210938 109.804688 19.476562 109.265625 C 18.734375 108.734375 17.765625 108.304688 16.5625 107.960938 C 15.359375 107.625 14.023438 107.304688 12.570312 106.992188 C 11.117188 106.6875 9.664062 106.3125 8.210938 105.859375 C 6.757812 105.40625 5.429688 104.828125 4.226562 104.117188 C 3.023438 103.40625 2.039062 102.476562 1.289062 101.3125 C 0.53125 100.15625 0.15625 98.671875 0.15625 96.867188 C 0.15625 94.929688 0.703125 93.164062 1.789062 91.570312 C 2.875 89.976562 4.515625 88.703125 6.710938 87.757812 C 8.890625 86.804688 11.640625 86.328125 14.953125 86.328125 C 17.164062 86.328125 19.335938 86.578125 21.476562 87.078125 C 23.617188 87.578125 25.34375 88.429688 25.34375 88.429688 C 26.335938 88.921875 26.804688 90.132812 26.382812 91.132812 L 25.398438 93.460938 C 24.976562 94.460938 23.820312 94.882812 22.820312 94.398438 C 22.820312 94.398438 21.359375 93.703125 19.71875 93.265625 C 18.078125 92.828125 16.476562 92.617188 14.898438 92.617188 C 13.335938 92.617188 12.046875 92.789062 11.039062 93.148438 C 10.039062 93.5 9.320312 93.960938 8.882812 94.523438 C 8.445312 95.085938 8.234375 95.742188 8.234375 96.476562 C 8.234375 97.351562 8.601562 98.054688 9.335938 98.585938 C 10.070312 99.117188 11.046875 99.539062 12.25 99.859375 C 13.445312 100.179688 14.78125 100.507812 16.234375 100.828125 C 17.695312 101.148438 19.148438 101.523438 20.601562 101.945312 C 22.054688 102.367188 23.382812 102.929688 24.585938 103.632812 C 25.789062 104.34375 26.773438 105.28125 27.523438 106.4375 C 28.273438 107.601562 28.648438 109.070312 28.648438 110.835938 C 28.648438 112.742188 28.101562 114.476562 26.992188 116.054688 C 25.890625 117.632812 24.242188 118.914062 22.054688 119.875 C 19.867188 120.84375 17.09375 121.328125 13.75 121.328125 Z M 13.75 121.328125 "/>
<path style=" stroke:none;fill-rule:nonzero;fill:rgb(100%,100%,100%);fill-opacity:1;" d="M 59.390625 114.460938 C 60.507812 114.460938 61.414062 115.335938 61.414062 116.414062 L 61.414062 118.789062 C 61.414062 119.867188 60.507812 120.742188 59.390625 120.742188 L 36.25 120.742188 C 35.132812 120.742188 34.226562 119.867188 34.226562 118.789062 L 34.226562 88.859375 C 34.226562 87.789062 35.132812 86.90625 36.25 86.90625 L 58.734375 86.90625 C 59.851562 86.90625 60.765625 87.789062 60.765625 88.859375 L 60.765625 91.242188 C 60.765625 92.3125 59.851562 93.195312 58.734375 93.195312 L 44.320312 93.195312 C 43.210938 93.195312 42.296875 94.070312 42.296875 95.148438 L 42.296875 98.585938 C 42.296875 99.664062 43.210938 100.539062 44.320312 100.539062 L 56.578125 100.539062 C 57.695312 100.539062 58.601562 101.414062 58.601562 102.492188 L 58.601562 104.679688 C 58.601562 105.75 57.695312 106.632812 56.578125 106.632812 L 44.320312 106.632812 C 43.210938 106.632812 42.296875 107.507812 42.296875 108.585938 L 42.296875 112.507812 C 42.296875 113.585938 43.210938 114.460938 44.320312 114.460938 Z M 59.390625 114.460938 "/>
<path style=" stroke:none;fill-rule:nonzero;fill:rgb(100%,100%,100%);fill-opacity:1;" d="M 84.945312 121.328125 C 82.164062 121.328125 79.601562 120.890625 77.242188 120.023438 C 74.882812 119.148438 72.84375 117.929688 71.125 116.351562 C 69.398438 114.773438 68.0625 112.914062 67.109375 110.789062 C 66.15625 108.664062 65.679688 106.335938 65.679688 103.828125 C 65.679688 101.3125 66.15625 98.992188 67.109375 96.867188 C 68.0625 94.742188 69.40625 92.890625 71.148438 91.304688 C 72.890625 89.726562 74.929688 88.507812 77.265625 87.632812 C 79.609375 86.765625 82.148438 86.328125 84.898438 86.328125 C 87.640625 86.328125 90.21875 86.765625 92.546875 87.632812 C 94.867188 88.507812 96.898438 89.726562 98.617188 91.304688 C 100.335938 92.882812 101.679688 94.726562 102.65625 96.835938 C 103.625 98.945312 104.109375 101.28125 104.109375 103.828125 C 104.109375 106.375 103.625 108.664062 102.65625 110.8125 C 101.679688 112.953125 100.335938 114.8125 98.617188 116.375 C 96.898438 117.9375 94.867188 119.15625 92.546875 120.023438 C 90.21875 120.890625 87.6875 121.328125 84.945312 121.328125 Z M 84.898438 114.65625 C 86.460938 114.65625 87.914062 114.398438 89.234375 113.882812 C 90.554688 113.367188 91.71875 112.625 92.71875 111.65625 C 93.726562 110.6875 94.5 109.546875 95.054688 108.226562 C 95.601562 106.898438 95.882812 105.4375 95.882812 103.828125 C 95.882812 102.210938 95.601562 100.75 95.054688 99.429688 C 94.5 98.109375 93.726562 96.960938 92.742188 96 C 91.757812 95.03125 90.59375 94.289062 89.257812 93.773438 C 87.914062 93.257812 86.460938 93 84.890625 93 C 83.320312 93 81.875 93.257812 80.554688 93.773438 C 79.226562 94.289062 78.070312 95.03125 77.0625 96 C 76.0625 96.960938 75.289062 98.109375 74.734375 99.429688 C 74.179688 100.75 73.90625 102.210938 73.90625 103.828125 C 73.90625 105.4375 74.179688 106.867188 74.734375 108.203125 C 75.289062 109.539062 76.054688 110.695312 77.039062 111.664062 C 78.023438 112.625 79.195312 113.367188 80.523438 113.882812 C 81.867188 114.398438 83.320312 114.65625 84.898438 114.65625 Z M 84.898438 114.65625 "/>
</g>
</svg>
