<svg xmlns="http://www.w3.org/2000/svg" fill="none" viewBox="0 0 77 31.03">
  <path d="M76.0643 0.000488281C76.5789 0.000488281 77 0.408749 77 0.907734V3.95759C77 4.45658 76.7021 5.15365 76.3388 5.50596L59.0382 22.2794C58.6749 22.6317 58.0791 22.6317 57.7142 22.2794L45.6628 10.5941C45.2979 10.2418 45 9.54472 45 9.04573V5.99587C45 5.49689 45.4211 5.08863 45.9357 5.08863H49.0795C49.5942 5.08863 50.3131 5.37743 50.6764 5.72975L57.7142 12.5522C58.0776 12.9046 58.6733 12.9046 59.0382 12.5522L71.322 0.641609C71.6854 0.289295 72.4043 0.000488281 72.9189 0.000488281H76.0643Z" fill="#BA268E"/>
  <path d="M55.3501 24.5746C55.7135 24.9269 55.7135 25.5046 55.3501 25.8584L50.678 30.389C50.3146 30.7413 49.5957 31.0301 49.0811 31.0301H45.9357C45.4211 31.0301 45 30.6218 45 30.1228V27.0727C45 26.5737 45.2979 25.8766 45.6612 25.5243L50.3333 20.9937C50.6967 20.6414 51.2924 20.6414 51.6573 20.9937L55.3501 24.5746Z" fill="#d9d9d9"/>
  <path d="M71.0897 25.5225C71.4531 25.8749 71.7509 26.572 71.7509 27.071V30.1211C71.7509 30.6201 71.3299 31.0284 70.8152 31.0284H67.6698C67.1552 31.0284 66.4363 30.7396 66.0729 30.3872L61.4008 25.8567C61.0375 25.5044 61.0375 24.9267 61.4008 24.5729L65.0936 20.992C65.457 20.6397 66.0527 20.6397 66.4176 20.992L71.0897 25.5225Z" fill="#d9d9d9"/>
  <path d="M5.26205 23.7867C4.17992 23.7867 3.14206 23.6465 2.14848 23.3649C1.1562 23.0833 0.421758 22.6578 0.421758 22.6578C0.0532338 22.4431 -0.104333 21.9582 0.0727669 21.5781L0.493379 20.6727C0.670479 20.2926 1.11713 20.1563 1.48696 20.3684C1.48696 20.3684 2.08077 20.7106 2.87381 20.9657C3.66685 21.222 4.46901 21.3496 5.28158 21.3496C5.90013 21.3496 6.40018 21.2902 6.78042 21.1715C7.16067 21.0528 7.44064 20.8874 7.62164 20.6753C7.80265 20.4631 7.8925 20.2194 7.8925 19.9441C7.8925 19.5943 7.75056 19.3165 7.46668 19.1094C7.1828 18.9036 6.80907 18.7344 6.34548 18.6031C5.8819 18.4718 5.36883 18.3468 4.80888 18.2281C4.24763 18.1094 3.68769 17.9629 3.12644 17.7874C2.56519 17.6118 2.05342 17.3871 1.58983 17.1118C1.12625 16.8365 0.748611 16.4741 0.458219 16.0246C0.167828 15.575 0.0232831 14.9992 0.0232831 14.2997C0.0232831 13.5496 0.232938 12.8652 0.652248 12.2464C1.07156 11.6277 1.70313 11.134 2.54696 10.7652C3.38948 10.3965 4.44948 10.2122 5.72564 10.2122C6.57598 10.2122 7.41459 10.3094 8.23889 10.5026C9.06319 10.6971 9.72861 11.0279 9.72861 11.0279C10.1102 11.2186 10.2912 11.6896 10.1297 12.076L9.75075 12.9788C9.58928 13.3652 9.14132 13.5294 8.75717 13.3438C8.75717 13.3438 8.19331 13.0723 7.56174 12.9031C6.93017 12.7339 6.31163 12.6505 5.7061 12.6505C5.10058 12.6505 4.60444 12.72 4.21768 12.8563C3.83093 12.994 3.55356 13.172 3.38688 13.3905C3.21889 13.6089 3.13555 13.8628 3.13555 14.1494C3.13555 14.4865 3.27749 14.7593 3.56137 14.9651C3.84525 15.171 4.21899 15.3376 4.68257 15.4614C5.14615 15.5864 5.65922 15.7114 6.21917 15.8364C6.78042 15.9614 7.34037 16.1054 7.90162 16.2683C8.46287 16.4312 8.97464 16.6496 9.43822 16.9249C9.9018 17.2002 10.2794 17.5626 10.5698 18.0121C10.8602 18.4617 11.0048 19.0312 11.0048 19.7181C11.0048 20.4555 10.7925 21.1311 10.3667 21.7435C9.94087 22.356 9.3067 22.8497 8.46157 23.2247C7.61774 23.5998 6.54993 23.7867 5.26205 23.7867Z" fill="#d9d9d9"/>
  <path d="M22.8496 21.1236C23.2794 21.1236 23.631 21.4646 23.631 21.8813V22.8043C23.631 23.221 23.2794 23.562 22.8496 23.562H13.9321C13.5024 23.562 13.1508 23.221 13.1508 22.8043V11.1947C13.1508 10.778 13.5024 10.437 13.9321 10.437H22.5983C23.028 10.437 23.3796 10.778 23.3796 11.1947V12.1165C23.3796 12.5332 23.028 12.8741 22.5983 12.8741H17.0444C16.6147 12.8741 16.2631 13.215 16.2631 13.6318V14.9665C16.2631 15.3832 16.6147 15.7241 17.0444 15.7241H21.7662C22.1959 15.7241 22.5475 16.0651 22.5475 16.4818V17.3291C22.5475 17.7458 22.1959 18.0867 21.7662 18.0867H17.0444C16.6147 18.0867 16.2631 18.4277 16.2631 18.8444V20.366C16.2631 20.7827 16.6147 21.1236 17.0444 21.1236H22.8496Z" fill="#d9d9d9"/>
  <path d="M32.6982 23.7867C31.6278 23.7867 30.6394 23.6174 29.7305 23.2803C28.8216 22.9431 28.035 22.4683 27.3722 21.8559C26.7081 21.2435 26.1924 20.525 25.8252 19.6992C25.458 18.8746 25.2744 17.9742 25.2744 16.9994C25.2744 16.0246 25.458 15.1242 25.8252 14.2997C26.1924 13.4751 26.7107 12.7566 27.3813 12.1429C28.052 11.5305 28.8372 11.0557 29.7396 10.7185C30.642 10.3814 31.6213 10.2122 32.6787 10.2122C33.7361 10.2122 34.731 10.3814 35.6269 10.7185C36.5228 11.0557 37.3028 11.5317 37.9669 12.1429C38.6311 12.7553 39.1493 13.4713 39.5231 14.2896C39.8968 15.1078 40.0843 16.0119 40.0843 16.9994C40.0843 17.9869 39.8968 18.8771 39.5231 19.7093C39.1493 20.5401 38.6298 21.2599 37.9669 21.866C37.3028 22.4721 36.5228 22.9444 35.6269 23.2816C34.731 23.6187 33.7543 23.7879 32.6982 23.7879V23.7867ZM32.6787 21.1993C33.2842 21.1993 33.8416 21.0995 34.3507 20.8988C34.8599 20.6992 35.3078 20.4113 35.6946 20.0363C36.0813 19.6613 36.3809 19.218 36.5931 18.7054C36.8054 18.1927 36.9122 17.6245 36.9122 16.9994C36.9122 16.3743 36.8054 15.8061 36.5931 15.2934C36.3809 14.7808 36.084 14.3375 35.7037 13.9625C35.3235 13.5875 34.8755 13.2996 34.3598 13.1001C33.8442 12.9005 33.2829 12.7995 32.6774 12.7995C32.0719 12.7995 31.5145 12.8993 31.0054 13.1001C30.4962 13.2996 30.0482 13.5875 29.6615 13.9625C29.2747 14.3375 28.9752 14.7808 28.763 15.2934C28.5507 15.8061 28.4439 16.3743 28.4439 16.9994C28.4439 17.6245 28.5507 18.1775 28.763 18.6965C28.9752 19.2155 29.2721 19.6625 29.6524 20.0376C30.0326 20.4126 30.4806 20.7005 30.9962 20.9C31.5119 21.0995 32.0719 21.2006 32.6787 21.2006V21.1993Z" fill="#d9d9d9"/>
</svg>