<?xml version="1.0" standalone="no"?>
<!DOCTYPE svg PUBLIC "-//W3C//DTD SVG 20010904//EN"
 "http://www.w3.org/TR/2001/REC-SVG-20010904/DTD/svg10.dtd">
<svg version="1.0" xmlns="http://www.w3.org/2000/svg"
 width="500.000000pt" height="160.000000pt" viewBox="0 0 500.000000 160.000000"
 preserveAspectRatio="xMidYMid meet">

<g transform="translate(0.000000,160.000000) scale(0.100000,-0.100000)"
fill="#000000" stroke="none">
<path d="M362 1261 c-124 -43 -176 -161 -123 -277 25 -54 72 -89 163 -120 133
-44 176 -107 112 -162 -24 -21 -35 -24 -80 -19 -56 6 -105 27 -142 60 l-23 21
-50 -51 -51 -50 47 -36 c69 -53 146 -79 235 -81 65 -1 81 3 121 26 25 15 59
46 75 69 25 37 29 51 29 114 0 61 -4 78 -27 112 -33 51 -101 96 -186 124 -83
27 -102 43 -102 85 0 27 6 36 30 49 43 22 81 18 145 -15 31 -16 59 -30 61 -30
4 0 74 108 74 114 0 2 -33 19 -72 39 -93 46 -162 54 -236 28z"/>
<path d="M4341 1258 c-163 -56 -267 -231 -239 -403 56 -354 536 -421 695 -97
25 50 28 68 28 152 0 87 -3 101 -32 161 -62 125 -172 198 -311 205 -61 4 -90
0 -141 -18z m226 -146 c49 -26 77 -56 102 -112 37 -82 23 -167 -41 -236 -75
-82 -189 -97 -285 -38 -90 55 -128 182 -84 280 22 49 90 109 139 123 50 14
123 6 169 -17z"/>
<path d="M800 916 l0 -356 70 0 70 0 0 139 0 138 73 5 c84 6 144 32 180 80 51
68 60 144 26 218 -47 103 -89 123 -276 128 l-143 4 0 -356z m275 189 c14 -13
25 -36 25 -50 0 -14 -11 -37 -25 -50 -20 -21 -34 -25 -80 -25 l-55 0 0 75 0
75 55 0 c46 0 60 -4 80 -25z"/>
<path d="M1522 1118 c-67 -129 -270 -526 -280 -550 -2 -5 32 -8 75 -8 l78 0
109 218 109 217 28 -60 c16 -33 63 -131 104 -217 l74 -158 76 0 c42 0 74 3 72
7 -2 5 -78 164 -168 356 -120 254 -168 347 -181 347 -11 0 -41 -48 -96 -152z"/>
<path d="M2067 1263 c-4 -3 -7 -35 -7 -69 l0 -63 101 -3 100 -3 -1 -282 -1
-283 71 0 70 0 0 285 0 285 100 0 100 0 0 70 0 70 -263 0 c-145 0 -267 -3
-270 -7z"/>
<path d="M3027 1208 c-48 -88 -327 -637 -327 -643 0 -3 34 -5 76 -3 l76 3 107
207 c59 114 109 210 112 212 2 3 49 -92 104 -209 l100 -215 77 0 77 0 -53 113
c-29 61 -104 221 -167 354 -83 177 -119 243 -131 243 -11 0 -30 -24 -51 -62z"/>
<path d="M3530 916 l0 -356 70 0 70 0 0 285 0 285 80 0 c73 0 83 -3 105 -25
51 -51 13 -125 -65 -125 l-40 0 0 -64 c0 -58 6 -78 67 -210 l68 -146 72 0 c40
0 73 1 73 3 0 2 -29 66 -65 142 -36 77 -65 144 -65 150 0 5 15 20 34 32 50 32
90 119 84 182 -7 69 -48 134 -106 168 -46 27 -52 28 -214 31 l-168 4 0 -356z"/>
<path d="M1317 393 c-11 -18 -19 -193 -9 -193 6 0 13 26 17 58 3 31 7 64 9 72
1 8 17 -14 35 -50 37 -72 42 -71 78 16 10 24 21 44 24 44 4 0 9 -30 12 -66 5
-64 11 -83 23 -71 10 10 -10 192 -21 192 -5 0 -25 -29 -43 -65 -18 -36 -35
-65 -37 -65 -3 0 -18 28 -34 61 -29 61 -45 81 -54 67z"/>
<path d="M2010 300 l0 -100 66 0 c41 0 63 4 59 10 -3 6 -28 10 -56 10 l-49 0
0 35 c0 35 0 35 45 35 25 0 45 5 45 10 0 6 -21 10 -46 10 -45 0 -45 0 -42 33
3 31 5 32 51 35 68 4 58 22 -13 22 l-60 0 0 -100z"/>
<path d="M2580 300 l0 -100 51 0 c43 0 55 5 80 29 31 31 37 68 19 115 -12 32
-58 56 -110 56 l-40 0 0 -100z m105 57 c21 -17 27 -32 27 -62 0 -48 -28 -75
-78 -75 l-34 0 0 73 c0 41 3 77 7 80 14 14 53 6 78 -16z"/>
<path d="M3130 300 c0 -60 4 -100 10 -100 6 0 10 40 10 100 0 60 -4 100 -10
100 -6 0 -10 -40 -10 -100z"/>
<path d="M3584 363 c-50 -116 -64 -163 -50 -163 8 0 17 11 20 25 6 22 11 25
56 25 45 0 50 -3 56 -25 5 -22 35 -37 33 -17 -2 24 -76 186 -87 190 -7 2 -19
-13 -28 -35z m44 -30 c5 -16 13 -36 17 -45 6 -16 1 -18 -35 -18 -36 0 -41 2
-35 18 4 9 12 29 17 45 5 15 14 27 18 27 4 0 13 -12 18 -27z"/>
</g>
</svg>
